<svg width="500" height="500" viewBox="0 0 500 500" fill="none" xmlns="http://www.w3.org/2000/svg">
<path d="M441.09 359.28C460.56 310.52 467.09 252.9 450.76 202.38C431.76 143.43 378.32 109.57 316.76 104.07C275 100.32 232 116.25 207.74 150.82C193.22 171.49 181.93 195.26 162.88 212.49C143.83 229.72 117.7 233.13 95 243.4C73 253.35 59.38 271.7 52.79 294.34C44.9309 321.736 46.7712 351.005 58 377.2C75.51 417.84 113.12 443.89 156.35 452.91C210.35 464.19 271.56 464.09 325.69 453.12C379.82 442.15 420.86 410 441.09 359.28V359.28Z" fill="#9E7CE1"/>
<path opacity="0.8" d="M441.09 359.28C460.56 310.52 467.09 252.9 450.76 202.38C431.76 143.43 378.32 109.57 316.76 104.07C275 100.32 232 116.25 207.74 150.82C193.22 171.49 181.93 195.26 162.88 212.49C143.83 229.72 117.7 233.13 95 243.4C73 253.35 59.38 271.7 52.79 294.34C44.9309 321.736 46.7712 351.005 58 377.2C75.51 417.84 113.12 443.89 156.35 452.91C210.35 464.19 271.56 464.09 325.69 453.12C379.82 442.15 420.86 410 441.09 359.28V359.28Z" fill="white"/>
<path d="M262 460.87C283.37 459.913 304.635 457.322 325.61 453.12C341.471 449.988 356.814 444.646 371.19 437.25V351.4H262V460.87Z" fill="#9E7CE1"/>
<path d="M262 460.87C283.37 459.913 304.635 457.322 325.61 453.12C341.471 449.988 356.814 444.646 371.19 437.25V351.4H262V460.87Z" fill="black" fill-opacity="0.5" stroke="#263238" stroke-linejoin="round"/>
<path d="M262 460.87V351.4L252.55 329V461.21L262 460.87V460.87Z" fill="#263238"/>
<path opacity="0.5" d="M371.23 351.58H262.03L252.55 328.99H361.74L371.23 351.58Z" fill="white" stroke="#263238" stroke-width="1.17" stroke-linejoin="round"/>
<path d="M371.23 351.58H262.03L252.55 328.99H361.74L371.23 351.58ZM255.35 411H146.16V450.41C149.493 451.343 152.873 452.167 156.3 452.88C188.863 459.495 222.092 462.254 255.3 461.1L255.35 411Z" fill="#9E7CE1" stroke="#263238" stroke-linejoin="round"/>
<path d="M255.35 411.2H146.16L136.67 388.61H245.87L255.35 411.2Z" fill="#9E7CE1"/>
<path opacity="0.5" d="M255.35 411.2H146.16L136.67 388.61H245.87L255.35 411.2Z" fill="white" stroke="#263238" stroke-linejoin="round"/>
<path d="M255.35 411.2H146.16L136.67 388.61H245.87L255.35 411.2Z" stroke="#263238" stroke-width="1.17" stroke-linejoin="round"/>
<path d="M136.67 447.5L146.16 450.44V411L136.67 388.58V447.5Z" fill="#263238"/>
<path d="M58 377.2C72.9399 412 102.67 436.07 138 448V375.36H57.2C57.46 376 57.69 376.59 58 377.2Z" fill="#9E7CE1"/>
<path d="M58.0001 377.2C72.9401 412 102.67 436.07 138 448V375.36H57.2001C57.4601 376 57.6901 376.59 58.0001 377.2Z" fill="black" fill-opacity="0.5" stroke="#263238" stroke-linejoin="round"/>
<path d="M57.28 375.54H138L128.55 353H50.42C51.9731 360.717 54.2705 368.266 57.28 375.54Z" fill="#9E7CE1" stroke="#263238" stroke-linejoin="round"/>
<path d="M421.3 185.62L365.74 119.54L359.9 125.38L380.15 149.46L186.39 312.38L141.69 261.68C140.567 260.406 139.181 259.391 137.626 258.707C136.072 258.023 134.387 257.686 132.689 257.72C130.991 257.753 129.321 258.156 127.794 258.9C126.268 259.645 124.922 260.713 123.85 262.03L24.79 383.7L42.94 398.48L133.27 287.48L176.4 336.4C178.419 338.693 181.255 340.104 184.301 340.332C187.348 340.56 190.362 339.587 192.7 337.62L395.21 167.37L415.46 191.46L421.3 185.62Z" fill="white" stroke="#263238" stroke-linejoin="round"/>
<path d="M450.74 104.48L365.74 119.54L386 143.63L192.23 306.55L147.53 255.84C146.406 254.565 145.019 253.551 143.464 252.867C141.908 252.183 140.223 251.846 138.524 251.879C136.825 251.912 135.154 252.315 133.627 253.06C132.1 253.804 130.753 254.872 129.68 256.19L30.63 377.87L48.77 392.64L139.11 281.64L182.24 330.56C184.259 332.853 187.095 334.264 190.141 334.492C193.188 334.72 196.202 333.747 198.54 331.78L401.05 161.54L421.3 185.62L450.74 104.48Z" fill="#263238" stroke="#263238" stroke-linejoin="round"/>
<path opacity="0.15" d="M313.14 347.44C335.883 347.44 354.32 344.248 354.32 340.31C354.32 336.372 335.883 333.18 313.14 333.18C290.397 333.18 271.96 336.372 271.96 340.31C271.96 344.248 290.397 347.44 313.14 347.44Z" fill="black"/>
<path d="M287.89 326.54C287.89 326.54 281.27 336.68 281.66 339.41C282.05 342.14 289.45 345.26 291.79 346.41C294.13 347.56 308.95 349.14 310.9 346.8C312.85 344.46 308.17 343.68 305.44 342.51C302.71 341.34 295.69 335.51 295.69 335.51L294.91 328.88L287.89 326.54Z" fill="#263238" stroke="#263238" stroke-width="1.17" stroke-miterlimit="10"/>
<path d="M310.9 346.82C311.51 346.09 311.47 345.51 311.05 345.02C306.59 345.45 299.77 345.84 294.91 344.87C289.23 343.74 284.19 339.92 281.86 337.93C281.695 338.405 281.627 338.908 281.66 339.41C282.05 342.14 289.45 345.26 291.79 346.41C294.13 347.56 309 349.16 310.9 346.82V346.82Z" fill="white" stroke="#263238" stroke-width="1.17" stroke-linejoin="round"/>
<path d="M328.45 319.13C328.45 319.13 321.45 326.93 322.99 329.27C324.53 331.61 329.62 330.83 332.74 333.56C335.86 336.29 340.54 339.8 345.22 341.36C349.9 342.92 353.8 340.19 351.85 338.63C349.9 337.07 340.93 329.27 340.15 326.54C339.634 324.242 339.373 321.895 339.37 319.54L328.45 319.13Z" fill="#263238" stroke="#263238" stroke-width="1.17" stroke-miterlimit="10"/>
<path d="M352.1 340.29C350.054 340.423 347.999 340.258 346 339.8C342.49 339.02 337.81 333.95 333.13 330.44C330.22 328.26 325.81 327.74 322.88 327.65C322.788 327.914 322.751 328.193 322.77 328.471C322.788 328.75 322.863 329.021 322.99 329.27C324.55 331.61 329.62 330.83 332.74 333.56C335.86 336.29 340.54 339.8 345.22 341.36C348.42 342.43 351.26 341.49 352.1 340.29Z" fill="white" stroke="#263238" stroke-width="1.17" stroke-linejoin="round"/>
<path d="M309.37 197C309.37 197 303.75 217.3 304.92 223.15C306.09 229 314.02 277.4 314.02 277.4L287.89 326.53L297.64 331.99C297.64 331.99 331.96 287.15 332.35 281.69C332.74 276.23 333.67 233.87 333.67 233.87L356.14 274.28L326.89 318.73C326.89 318.73 331.57 322.63 334.69 322.63H339.76C339.76 322.63 376.81 276.63 377.2 273.89C377.59 271.15 352.28 215.82 352.28 215.82L350.7 203.24L309.37 197Z" fill="#9E7CE1" stroke="#263238" stroke-width="1.17" stroke-linejoin="round"/>
<path d="M336.93 233.44L359 270.86C361.79 275.72 365.8 273.41 364.67 275.11C363.54 276.81 359.28 277.67 359.28 277.67L337.4 312.19M317.09 211.05C317.09 211.05 319.92 217.85 317.37 221.54C314.82 225.23 309.72 226.64 309.72 226.64L317.09 211.05ZM333.67 233.88L346.85 222.11L333.67 233.88ZM342.9 213.05L340.81 217.52C340.81 217.52 346.48 219.01 344.1 221.7C341.72 224.39 340.22 224.7 340.22 224.7L342.9 213.05ZM334.66 233.73L344.87 227.49L334.66 233.73ZM310 211.05C309.283 215.652 308.809 220.288 308.58 224.94L310 211.05ZM294.59 324.5L292.99 327.27L294.59 324.5ZM309.72 230.61L316.52 276.25C317.09 277.67 319.35 277.67 318.79 278.8C318.22 279.652 317.437 280.342 316.52 280.8L317.94 283.92L296.87 320.56L309.72 230.61ZM335.13 315.77L332.68 319.62L335.13 315.77Z" stroke="#263238" stroke-width="1.17" stroke-linecap="round" stroke-linejoin="round"/>
<path d="M307.57 205.61C308.254 206.097 308.98 206.522 309.74 206.88L314.15 209.21L315.15 204.03L319.04 204.8L318.52 209.21C318.52 209.21 318 210.21 323.19 210.51C328.38 210.81 330 211.8 330 211.8L331 205.8L334.89 205.54V212.28C337.921 212.284 340.949 212.11 343.96 211.76C345.905 211.486 347.765 210.779 349.4 209.69V205.02L347.29 202.69L309.37 197L307.57 205.61V205.61Z" fill="#263238"/>
<path d="M340.58 208.17V211.8C342.884 211.573 345.149 211.052 347.32 210.25L347.83 207.14C347.83 207.14 341.87 207.65 340.58 208.17V208.17ZM376.17 207.41L370.12 207.92L365.46 213.45L372.37 219.32C374.79 221.57 376.86 223.63 378.76 223.11C380.66 222.59 387.21 213.62 387.21 211.55C387.21 209.48 379.79 205.68 376.17 207.41V207.41Z" fill="white" stroke="#263238" stroke-width="1.17" stroke-linejoin="round"/>
<path d="M372.54 209.13C373.605 207.986 374.827 206.999 376.17 206.2C377.144 205.633 378.257 205.349 379.384 205.379C380.511 205.409 381.607 205.752 382.55 206.37C384.8 207.75 385.14 209.13 383.93 210.68C382.72 212.23 378.07 217.76 377.72 216.38C377.37 215 379.45 210.68 379.45 210.68C379.45 210.68 376.68 217.07 372.89 212.93" fill="white"/>
<path d="M372.54 209.13C373.605 207.986 374.827 206.999 376.17 206.2C377.144 205.633 378.257 205.349 379.384 205.379C380.511 205.409 381.607 205.752 382.55 206.37C384.8 207.75 385.14 209.13 383.93 210.68C382.72 212.23 378.07 217.76 377.72 216.38C377.37 215 379.45 210.68 379.45 210.68C379.45 210.68 376.68 217.07 372.89 212.93" stroke="#263238" stroke-width="1.17" stroke-linecap="round" stroke-linejoin="round"/>
<path d="M377.55 221.73C377.55 221.73 374.79 219.14 374.79 217.94C374.79 216.74 378.41 213.62 378.41 213.62" stroke="#263238" stroke-width="1.17" stroke-linecap="round" stroke-linejoin="round"/>
<path d="M368.74 204.64L372.2 207.41L366.5 214.14L363.39 211.2L368.74 204.64Z" fill="white" stroke="#263238" stroke-width="1.17" stroke-linejoin="round"/>
<path d="M351.66 188.88L370.12 204.56L362.46 212.22L346.78 201.77L351.66 188.88V188.88Z" fill="#9E7CE1" stroke="#263238" stroke-width="1.17" stroke-linejoin="round"/>
<path d="M325 129.41C325 129.41 316 134.22 314.54 142.17C313.08 150.12 308.68 194.94 308.68 198.91C308.68 202.88 319.97 207.7 329.8 207.91C339.63 208.12 349.67 207.91 351.14 204.56C352.61 201.21 355.54 163.09 354.28 152.21C353.02 141.33 350.28 135.27 346.28 132.55C342.28 129.83 330.45 126.28 325 129.41V129.41Z" fill="white" stroke="#263238" stroke-width="1.17" stroke-linejoin="round"/>
<path d="M311.09 201.66C320.517 202.619 330.039 201.429 338.94 198.18M312.64 199C312.64 199 335.08 190.1 343.97 178.11L312.64 199Z" stroke="#263238" stroke-width="1.17" stroke-linecap="round" stroke-linejoin="round"/>
<path d="M328.35 110.17C328.35 110.17 328.35 110.56 328.41 111.23C328.577 114.642 328.49 118.061 328.15 121.46L327.52 127.11L343.41 131.71C343.41 131.71 344.04 128.37 345.51 123.56C346.623 120.201 348.095 116.973 349.9 113.93C349.9 113.93 342.58 111.63 338.39 108.08C334.2 104.53 329.82 105.78 328.35 110.17Z" fill="white" stroke="#263238" stroke-width="1.17" stroke-linejoin="round"/>
<path d="M343.83 80.68C343.83 80.68 348.43 77.12 345.72 70.22C343.01 63.32 331.49 64.15 327.31 67.08C323.13 70.01 325.22 71.89 327.52 72.08C329.82 72.27 330.86 74.8 327.94 75.64C325.02 76.48 321.66 74.38 316.85 79.64C312.04 84.9 316.64 89.47 317.48 88.22C318.32 86.97 319.78 84.03 320.2 85.92C320.62 87.81 316 90.3 315.39 96.16C314.78 102.02 320.2 107.87 323.75 110.8C327.3 113.73 331.91 114.56 334 111.8C336.09 109.04 338.19 104.48 340.49 101.55C342.79 98.62 340.07 91.55 339.23 88.79C338.39 86.03 343.83 80.68 343.83 80.68V80.68Z" fill="#263238" stroke="#263238" stroke-width="1.17" stroke-linejoin="round"/>
<path d="M333.37 104.73C333.37 104.73 330.45 100.34 327.73 101.8C325.01 103.26 327.73 109.33 330.24 111.22C332.75 113.11 336.09 110.22 336.09 110.22C336.09 110.22 341.09 117.33 344.88 117.33C348.67 117.33 360.15 116.7 360.98 112.94C361.81 109.18 355.75 96.83 355.75 96.83C355.75 96.83 357.64 94.53 357.43 93.07C357.22 91.61 353.24 92.23 352.43 91.6C351.62 90.97 349.5 85.54 346.99 82.6C344.48 79.66 343.23 79.67 343.23 79.67C343.23 79.67 330 86.32 333 88.42C336 90.52 337 88.63 336.76 90.09C336.52 91.55 331.95 96.99 332.76 97.62C333.57 98.25 336.52 99.92 336.1 101.8C335.68 103.68 335.88 105.36 333.37 104.73V104.73Z" fill="white" stroke="#263238" stroke-width="1.17" stroke-linejoin="round"/>
<path d="M350.43 92.08C350.93 93.29 350.92 94.44 350.43 94.66C349.94 94.88 349.08 94.08 348.57 92.88C348.06 91.68 348.08 90.52 348.57 90.3C349.06 90.08 349.92 90.88 350.43 92.08Z" fill="#263238"/>
<path d="M355.68 102.25C355.68 102.25 354.23 103.88 351.87 102.43M348.6 87.91C348.6 87.91 345.52 87 344.25 89.36L348.6 87.91Z" stroke="#263238" stroke-width="1.17" stroke-linecap="round" stroke-linejoin="round"/>
<path d="M295.9 157.51C295.9 157.51 274.52 157.62 270.14 158.34C265.76 159.06 270.46 170.67 270.91 173.41C271.36 176.15 295.9 157.51 295.9 157.51Z" fill="#9E7CE1" stroke="#263238" stroke-width="1.17" stroke-linejoin="round"/>
<path d="M341.71 134.29C343.902 136.977 345.345 140.196 345.893 143.62C346.441 147.045 346.074 150.553 344.83 153.79C340.54 165.09 315.97 185.37 302.71 194.73C294.087 200.736 285.104 206.206 275.81 211.11C275.81 211.11 261 199 256.7 187.71C252.4 176.42 257.85 170.71 273.45 165.27C289.05 159.83 308.95 153.01 312.45 143.27C315.95 133.53 320.33 126.19 327.51 127.12C334.69 128.05 341.71 134.29 341.71 134.29Z" fill="#9E7CE1" stroke="#263238" stroke-width="1.17" stroke-linejoin="round"/>
<path d="M313.24 186.54C313.24 186.54 298.81 192 286.33 195.9C273.85 199.8 258.26 199.02 258.65 202.14C259.04 205.26 268.01 211.14 269.96 212.28C271.91 213.42 275.81 210.72 280.49 209.55C285.17 208.38 307 194.34 313.24 186.54V186.54Z" fill="#263238" stroke="#263238" stroke-width="1.17" stroke-linejoin="round"/>
<path d="M265.69 221.88L264.16 234.25L266.63 234.56L267.9 224.31L288.76 226.89L287.5 237.14L289.97 237.45L291.5 225.08L265.69 221.88V221.88Z" fill="white" stroke="#263238" stroke-width="1.17" stroke-linejoin="round"/>
<path d="M303.064 236.189L251.456 229.933C248.859 229.619 246.498 231.469 246.183 234.066L241.723 270.864C241.408 273.461 243.258 275.822 245.855 276.137L297.464 282.392C300.061 282.707 302.422 280.857 302.737 278.26L307.197 241.462C307.512 238.864 305.662 236.504 303.064 236.189Z" fill="white" stroke="#263238" stroke-width="1.16678" stroke-linejoin="round"/>
<path d="M246.22 253.62L302.42 260.81" stroke="#263238" stroke-width="1.17" stroke-linecap="round" stroke-linejoin="round"/>
<path d="M253.07 232.81L248.56 270.1L251.74 275.93L256.25 271.42L261.03 233.75" fill="white"/>
<path d="M253.07 232.81L248.56 270.1L251.74 275.93L256.25 271.42L261.03 233.75" stroke="#263238" stroke-width="1.17" stroke-linecap="round" stroke-linejoin="round"/>
<path d="M248.159 257.712L259.203 259.17L258.508 264.434L247.464 262.976L248.159 257.712Z" fill="white" stroke="#263238" stroke-width="1.17" stroke-linejoin="round"/>
<path d="M247.779 259.105L258.808 260.553L258.635 261.87L247.606 260.422L247.779 259.105Z" fill="white" stroke="#263238" stroke-width="1.168" stroke-linejoin="round"/>
<path d="M292.36 237.91L287.83 275.14L291.01 280.98L295.52 276.46L300.3 238.79" fill="white"/>
<path d="M292.36 237.91L287.83 275.14L291.01 280.98L295.52 276.46L300.3 238.79" stroke="#263238" stroke-width="1.17" stroke-linecap="round" stroke-linejoin="round"/>
<path d="M287.432 262.748L298.476 264.206L297.781 269.47L286.737 268.012L287.432 262.748Z" fill="white" stroke="#263238" stroke-width="1.17" stroke-linejoin="round"/>
<path d="M287.171 264.721L298.215 266.179L298.041 267.498L286.997 266.04L287.171 264.721Z" fill="white" stroke="#263238" stroke-width="1.17" stroke-linejoin="round"/>
<path d="M335.08 137.8C335.08 137.8 330.79 135.46 323.77 136.24C316.75 137.02 282.05 158.08 277 160.42C271.95 162.76 272.32 169.77 272.32 169.77L275.44 214.62H285.18L291.42 170.94C291.42 170.94 336.11 159.08 337.51 150.24" fill="#9E7CE1"/>
<path d="M335.08 137.8C335.08 137.8 330.79 135.46 323.77 136.24C316.75 137.02 282.05 158.08 277 160.42C271.95 162.76 272.32 169.77 272.32 169.77L275.44 214.62H285.18L291.42 170.94C291.42 170.94 336.11 159.08 337.51 150.24" stroke="#263238" stroke-width="1.17" stroke-linecap="round" stroke-linejoin="round"/>
<path d="M285.16 214.62L287.5 222.81C287.5 222.81 287.5 230.61 286.33 231.39C285.16 232.17 284.77 233.73 282.83 232.17L280.88 230.61C279.471 230.243 278.037 229.982 276.59 229.83C275.42 229.83 273.08 229.83 272.3 227.83C271.52 225.83 275.42 214.57 275.42 214.57L285.16 214.62Z" fill="white" stroke="#263238" stroke-width="1.17" stroke-linejoin="round"/>
<path d="M344.3 137.6L345.93 144.8C342.165 146.092 338.211 146.751 334.23 146.75C327.6 146.75 316.29 136.22 308.5 130.37C300.71 124.52 292.9 132.32 285.88 134.66C278.86 137 273.4 135.83 262.48 131.93C251.56 128.03 239.48 137 239.48 137L236 145.58L246.92 151.43C246.92 151.43 257.06 140.12 264.47 140.12C271.88 140.12 286.31 145.58 291.77 142.46C297.23 139.34 301.52 133.46 305.42 134.27C309.32 135.08 326.43 152.21 335 153C337.364 153.29 339.762 152.893 341.906 151.855C344.051 150.818 345.85 149.184 347.09 147.15L350.21 138.15C350.21 138.15 345 130.78 344.3 137.6V137.6Z" fill="#263238" stroke="#263238" stroke-width="1.17" stroke-linejoin="round"/>
<path d="M346.13 131.29L350.11 131.71L355.75 141.54L349.9 137.15L346.33 138.61L345.92 135.27L346.13 131.29V131.29Z" fill="white" stroke="#263238" stroke-width="1.17" stroke-linejoin="round"/>
<path d="M324.5 120.39L347.18 129.62L346.76 139.24L321.57 127.09L324.5 120.39Z" fill="white" stroke="#263238" stroke-width="1.17" stroke-linejoin="round"/>
</svg>
