<svg xmlns="http://www.w3.org/2000/svg" xmlns:xlink="http://www.w3.org/1999/xlink" viewBox="0 0 500 500" xmlns:v="https://vecta.io/nano"><style><![CDATA[.B{fill:#fff}.C{stroke-linejoin:round}.D{stroke:#263238}.E{stroke-width:1.17}.F{fill:#9e7ce1}.G{fill:#263238}.H{stroke-linecap:round}.I{fill:none}.J{stroke-miterlimit:10}]]></style><defs><clipPath id="A"><path d="M255.35 411.2H146.16l-9.49-22.59h109.2l9.48 22.59z" class="C D E F"/></clipPath><path id="B" d="M441.09 359.28c19.47-48.76 26-106.38 9.67-156.9-19-58.95-72.44-92.81-134-98.31-41.76-3.75-84.76 12.18-109.02 46.75-14.52 20.67-25.81 44.44-44.86 61.67S117.7 233.13 95 243.4c-22 9.95-35.62 28.3-42.21 50.94A123.72 123.72 0 0 0 58 377.2c17.51 40.64 55.12 66.69 98.35 75.71 54 11.28 115.21 11.18 169.34.21s95.17-43.12 115.4-93.84z"/><path id="C" d="M262,460.87a419.39,419.39,0,0,0,63.61-7.75,172.84,172.84,0,0,0,45.58-15.87V351.4H262Z"/><path id="D" d="M255.35 411.2H146.16l-9.49-22.59h109.2l9.48 22.59z"/></defs><use xlink:href="#B" class="F"/><use xlink:href="#B" opacity=".7" class="B"/><path d="M453.58 212.08H163.31l-.43.41C149.16 224.9 131.7 230.15 114.5 236h343.72a193.22 193.22 0 0 0-4.64-23.92zm6.42 48.47H71.19a80.07 80.07 0 0 0-14.92 23.89h402.81a235.51 235.51 0 0 0 .92-23.89zM48.08 332.91h402q3.35-11.78 5.63-23.9H49.52a123.37 123.37 0 0 0-1.44 23.9zM58 377.2l1.9 4.17h370.38a159.91 159.91 0 0 0 10.81-22.09l.7-1.8H51.41A120.59 120.59 0 0 0 58 377.2zm43.57 52.64H384a145.6 145.6 0 0 0 28.2-23.9H75.49a127.37 127.37 0 0 0 26.08 23.9z" opacity=".03"/><use xlink:href="#C" class="F"/><use xlink:href="#C" fill-opacity=".5" class="C D"/><path d="M262 460.87V351.4l-9.45-22.4v132.21l9.45-.34z" class="G"/><g class="C D"><path d="M371.23 351.58h-109.2l-9.48-22.59h109.19l9.49 22.59z" opacity=".5" class="B E"/><path d="M371.23 351.58h-109.2l-9.48-22.59h109.19l9.49 22.59zM255.35 411H146.16v39.41q5 1.4 10.14 2.47a423.39 423.39 0 0 0 99 8.22z" class="F"/></g><use xlink:href="#D" class="F"/><g clip-path="url(#A)" class="B C D"><use xlink:href="#D" opacity=".5"/></g><use xlink:href="#D" class="C D E I"/><path d="M136.67 447.5l9.49 2.94V411l-9.49-22.42z" class="G"/><path d="M58 377.2c14.94 34.8 44.67 58.87 80 70.8v-72.64H57.2c.26.64.49 1.23.8 1.84z" class="F"/><g class="C D"><path d="M58 377.2c14.94 34.8 44.67 58.87 80 70.8v-72.64H57.2c.26.64.49 1.23.8 1.84z" fill-opacity=".5"/><path d="M57.28 375.54H138L128.55 353H50.42a121.83 121.83 0 0 0 6.86 22.54z" class="F"/><path d="M421.3 185.62l-55.56-66.08-5.84 5.84 20.25 24.08-193.76 162.92-44.7-50.7a11.69 11.69 0 0 0-17.84.35L24.79 383.7l18.15 14.78 90.33-111 43.13 48.92a11.69 11.69 0 0 0 16.3 1.22l202.51-170.25 20.25 24.09z" class="B"/><path d="M450.74,104.48l-85,15.06L386,143.63,192.23,306.55l-44.7-50.71a11.7,11.7,0,0,0-17.85.35L30.63,377.87l18.14,14.77,90.34-111,43.13,48.92a11.69,11.69,0,0,0,16.3,1.22L401.05,161.54l20.25,24.08Z" class="G"/></g><ellipse cx="313.14" cy="340.31" rx="41.18" ry="7.13" opacity=".15"/><g class="D E"><path d="M287.89,326.54s-6.62,10.14-6.23,12.87,7.79,5.85,10.13,7,17.16,2.73,19.11.39-2.73-3.12-5.46-4.29-9.75-7-9.75-7l-.78-6.63Z" class="G J"/><path d="M310.9 346.82c.61-.73.57-1.31.15-1.8-4.46.43-11.28.82-16.14-.15-5.68-1.13-10.72-4.95-13.05-6.94a3.75 3.75 0 0 0-.2 1.48c.39 2.73 7.79 5.85 10.13 7s17.21 2.75 19.11.41z" class="B C"/><path d="M328.45,319.13s-7,7.8-5.46,10.14,6.63,1.56,9.75,4.29,7.8,6.24,12.48,7.8,8.58-1.17,6.63-2.73-10.92-9.36-11.7-12.09a32.11,32.11,0,0,1-.78-7Z" class="G J"/><g class="C"><path d="M352.1 340.29a21.19 21.19 0 0 1-6.1-.49c-3.51-.78-8.19-5.85-12.87-9.36-2.91-2.18-7.32-2.7-10.25-2.79a2.07 2.07 0 0 0 .11 1.62c1.56 2.34 6.63 1.56 9.75 4.29s7.8 6.24 12.48 7.8c3.2 1.07 6.04.13 6.88-1.07z" class="B"/><path d="M309.37,197s-5.62,20.3-4.45,26.15,9.1,54.25,9.1,54.25l-26.13,49.13,9.75,5.46s34.32-44.84,34.71-50.3,1.32-47.82,1.32-47.82l22.47,40.41-29.25,44.45s4.68,3.9,7.8,3.9h5.07s37.05-46,37.44-48.74-24.92-58.07-24.92-58.07l-1.58-12.58Z" class="F"/><path d="M317.09 211.05s2.83 6.8.28 10.49-7.65 5.1-7.65 5.1m23.95 7.24l13.18-11.77m-3.95-9.06l-2.09 4.47s5.67 1.49 3.29 4.18-3.88 3-3.88 3m-5.56 9.03l10.21-6.24M310 211.05a132.55 132.55 0 0 0-1.42 13.89m-13.99 99.56l-1.6 2.77m16.73-96.66l6.8 45.64c.57 1.42 2.83 1.42 2.27 2.55a5.91 5.91 0 0 1-2.27 2l1.42 3.12-21.07 36.64m38.26-4.79l-2.45 3.85m4.25-86.18L359 270.86c2.79 4.86 6.8 2.55 5.67 4.25s-5.39 2.56-5.39 2.56l-21.88 34.52" class="H I"/></g></g><path d="M307.57 205.61a14.11 14.11 0 0 0 2.17 1.27l4.41 2.33 1-5.18 3.89.77-.52 4.41s-.52 1 4.67 1.3 6.81 1.29 6.81 1.29l1-6 3.89-.26v6.74a77.78 77.78 0 0 0 9.07-.52 13.12 13.12 0 0 0 5.44-2.07v-4.67l-2.11-2.33-37.92-5.69-1.8 8.61z" class="G"/><g class="B C D E"><path d="M340.58 208.17v3.63a27.12 27.12 0 0 0 6.74-1.55l.51-3.11s-5.96.51-7.25 1.03zm35.59-.76l-6.05.51-4.66 5.53 6.91 5.87c2.42 2.25 4.49 4.31 6.39 3.79s8.45-9.49 8.45-11.56-7.42-5.87-11.04-4.14z"/><path d="M372.54,209.13a16.44,16.44,0,0,1,3.63-2.93,6.07,6.07,0,0,1,6.38.17c2.25,1.38,2.59,2.76,1.38,4.31s-5.86,7.08-6.21,5.7,1.73-5.7,1.73-5.7-2.77,6.39-6.56,2.25" class="H"/></g><path d="M377.55,221.73s-2.76-2.59-2.76-3.79,3.62-4.32,3.62-4.32" class="C D E H I"/><path d="M368.74 204.64l3.46 2.77-5.7 6.73-3.11-2.94 5.35-6.56z" class="B C D E"/><path d="M351.66 188.88l18.46 15.68-7.66 7.66-15.68-10.45 4.88-12.89z" class="C D E F"/><path d="M325 129.41s-9 4.81-10.46 12.76-5.86 52.77-5.86 56.74 11.29 8.79 21.12 9 19.87 0 21.34-3.35 4.4-41.47 3.14-52.35-4-16.94-8-19.66-15.83-6.27-21.28-3.14z" class="B C D E"/><path d="M312.64 199s22.44-8.9 31.33-20.89m-32.88 23.55a62.71 62.71 0 0 0 27.85-3.48" class="H I C D E"/><path d="M328.35,110.17s0,.39.06,1.06a69,69,0,0,1-.26,10.23l-.63,5.65,15.89,4.6s.63-3.34,2.1-8.15a49.18,49.18,0,0,1,4.39-9.63s-7.32-2.3-11.51-5.85S329.82,105.78,328.35,110.17Z" class="B C D E"/><path d="M343.83 80.68s4.6-3.56 1.89-10.46-14.23-6.07-18.41-3.14-2.09 4.81.21 5 3.34 2.72.42 3.56-6.28-1.26-11.09 4-.21 9.83.63 8.58 2.3-4.19 2.72-2.3-4.2 4.38-4.81 10.24 4.81 11.71 8.36 14.64 8.16 3.76 10.25 1 4.19-7.32 6.49-10.25-.42-10-1.26-12.76 4.6-8.11 4.6-8.11z" class="C D E G"/><path d="M333.37 104.73s-2.92-4.39-5.64-2.93 0 7.53 2.51 9.42 5.85-1 5.85-1 5 7.11 8.79 7.11 15.27-.63 16.1-4.39-5.23-16.11-5.23-16.11 1.89-2.3 1.68-3.76-4.19-.84-5-1.47-2.93-6.06-5.44-9-3.76-2.93-3.76-2.93S330 86.32 333 88.42s4 .21 3.76 1.67-4.81 6.9-4 7.53 3.76 2.3 3.34 4.18-.22 3.56-2.73 2.93z" class="B C D E"/><path d="M350.43 92.08c.5 1.21.49 2.36 0 2.58s-1.35-.58-1.86-1.78-.49-2.36 0-2.58 1.35.58 1.86 1.78z" class="G"/><g class="C D"><g class="E"><path d="M348.6 87.91s-3.08-.91-4.35 1.45m11.43 12.89s-1.45 1.63-3.81.18" class="H I"/><g class="F"><path d="M295.9 157.51s-21.38.11-25.76.83.32 12.33.77 15.07 24.99-15.9 24.99-15.9z"/><path d="M341.71 134.29a19.68 19.68 0 0 1 3.12 19.5c-4.29 11.3-28.86 31.58-42.12 40.94a256.6 256.6 0 0 1-26.9 16.38S261 199 256.7 187.71s1.15-17 16.75-22.44 35.5-12.26 39-22 7.88-17.08 15.06-16.15 14.2 7.17 14.2 7.17z"/></g><path d="M313.24 186.54s-14.43 5.46-26.91 9.36-28.07 3.12-27.68 6.24 9.36 9 11.31 10.14 5.85-1.56 10.53-2.73 26.51-15.21 32.75-23.01z" class="G"/><g class="B"><path d="M265.69 221.88l-1.53 12.37 2.47.31 1.27-10.25 20.86 2.58-1.26 10.25 2.47.31 1.53-12.37-25.81-3.2z"/><rect x="243.55" y="234.26" width="61.63" height="46.67" rx="4.75" transform="matrix(.99 .12 -.12 .99 33.75 -31.78)"/></g><g class="H"><path d="M246.22 253.62l56.2 7.19" class="I"/><path d="M253.07 232.81l-4.51 37.29 3.18 5.83 4.51-4.51 4.78-37.67" class="B"/></g><path d="M248.159 257.712l11.044 1.458-.695 5.264-11.044-1.458z" class="B"/></g><path d="M247.779 259.105l11.029 1.448-.173 1.317-11.029-1.448z" stroke-width="1.168" class="B"/><g class="E"><path d="M292.36 237.91l-4.53 37.23 3.18 5.84 4.51-4.52 4.78-37.67" class="B H"/><path d="M287.432 262.748l11.044 1.458-.695 5.264-11.044-1.458z" class="B"/><path d="M287.171 264.721l11.044 1.458-.174 1.319-11.044-1.458z" class="B"/><path d="M335.08 137.8s-4.29-2.34-11.31-1.56-41.72 21.84-46.77 24.18-4.68 9.35-4.68 9.35l3.12 44.85h9.74l6.24-43.68s44.69-11.86 46.09-20.7" class="F H"/><path d="M285.16,214.62l2.34,8.19s0,7.8-1.17,8.58-1.56,2.34-3.5.78l-1.95-1.56a29.14,29.14,0,0,0-4.29-.78c-1.17,0-3.51,0-4.29-2s3.12-13.26,3.12-13.26Z" class="B"/><path d="M344.3 137.6l1.63 7.2a36 36 0 0 1-11.7 1.95c-6.63 0-17.94-10.53-25.73-16.38s-15.6 1.95-22.62 4.29-12.48 1.17-23.4-2.73-23 5.07-23 5.07l-3.48 8.58 10.92 5.85s10.14-11.31 17.55-11.31 21.84 5.46 27.3 2.34 9.75-9 13.65-8.19S326.43 152.21 335 153a12.39 12.39 0 0 0 12.09-5.85l3.12-9s-5.21-7.37-5.91-.55z" class="G"/><g class="B"><path d="M346.13 131.29l3.98.42 5.64 9.83-5.85-4.39-3.57 1.46-.41-3.34.21-3.98z"/><path d="M324.5 120.39l22.68 9.23-.42 9.62-25.19-12.15 2.93-6.7z"/></g></g></g></svg>