<svg width="445" height="402" viewBox="0 0 445 402" fill="none" xmlns="http://www.w3.org/2000/svg">
<path d="M420.09 297.28C439.56 248.52 446.09 190.9 429.76 140.38C410.76 81.43 357.32 47.57 295.76 42.07C254 38.32 211 54.25 186.74 88.82C172.22 109.49 160.93 133.26 141.88 150.49C122.83 167.72 96.7 171.13 74 181.4C52 191.35 38.38 209.7 31.79 232.34C23.9309 259.736 25.7712 289.005 37 315.2C54.51 355.84 92.1201 381.89 135.35 390.91C189.35 402.19 250.56 402.09 304.69 391.12C358.82 380.15 399.86 348 420.09 297.28V297.28Z" fill="#9E7CE1"/>
<path opacity="0.8" d="M420.09 297.28C439.56 248.52 446.09 190.9 429.76 140.38C410.76 81.43 357.32 47.57 295.76 42.07C254 38.32 211 54.25 186.74 88.82C172.22 109.49 160.93 133.26 141.88 150.49C122.83 167.72 96.7 171.13 74 181.4C52 191.35 38.38 209.7 31.79 232.34C23.9309 259.736 25.7712 289.005 37 315.2C54.51 355.84 92.1201 381.89 135.35 390.91C189.35 402.19 250.56 402.09 304.69 391.12C358.82 380.15 399.86 348 420.09 297.28V297.28Z" fill="white"/>
<path d="M241 398.87C262.37 397.913 283.635 395.322 304.61 391.12C320.471 387.988 335.814 382.646 350.19 375.25V289.4H241V398.87Z" fill="#9E7CE1"/>
<path d="M241 398.87C262.37 397.913 283.635 395.322 304.61 391.12C320.471 387.988 335.814 382.646 350.19 375.25V289.4H241V398.87Z" fill="black" fill-opacity="0.5" stroke="#263238" stroke-linejoin="round"/>
<path d="M241 398.87V289.4L231.55 267V399.21L241 398.87V398.87Z" fill="#263238"/>
<path opacity="0.5" d="M350.23 289.58H241.03L231.55 266.99H340.74L350.23 289.58Z" fill="white" stroke="#263238" stroke-width="1.17" stroke-linejoin="round"/>
<path d="M350.23 289.58H241.03L231.55 266.99H340.74L350.23 289.58ZM234.35 349H125.16V388.41C128.493 389.343 131.873 390.167 135.3 390.88C167.863 397.495 201.092 400.254 234.3 399.1L234.35 349Z" fill="#9E7CE1" stroke="#263238" stroke-linejoin="round"/>
<path d="M234.35 349.2H125.16L115.67 326.61H224.87L234.35 349.2Z" fill="#9E7CE1"/>
<path opacity="0.5" d="M234.35 349.2H125.16L115.67 326.61H224.87L234.35 349.2Z" fill="white" stroke="#263238" stroke-linejoin="round"/>
<path d="M234.35 349.2H125.16L115.67 326.61H224.87L234.35 349.2Z" stroke="#263238" stroke-width="1.17" stroke-linejoin="round"/>
<path d="M115.67 385.5L125.16 388.44V349L115.67 326.58V385.5Z" fill="#263238"/>
<path d="M37 315.2C51.9399 350 81.67 374.07 117 386V313.36H36.2C36.46 314 36.69 314.59 37 315.2Z" fill="#9E7CE1"/>
<path d="M37.0001 315.2C51.9401 350 81.6701 374.07 117 386V313.36H36.2001C36.4601 314 36.6901 314.59 37.0001 315.2Z" fill="black" fill-opacity="0.5" stroke="#263238" stroke-linejoin="round"/>
<path d="M36.28 313.54H117L107.55 291H29.42C30.9731 298.717 33.2705 306.266 36.28 313.54Z" fill="#9E7CE1" stroke="#263238" stroke-linejoin="round"/>
<path d="M400.3 123.62L344.74 57.54L338.9 63.38L359.15 87.46L165.39 250.38L120.69 199.68C119.567 198.406 118.181 197.391 116.626 196.707C115.072 196.023 113.387 195.686 111.689 195.72C109.991 195.753 108.321 196.156 106.794 196.9C105.268 197.645 103.922 198.713 102.85 200.03L3.79004 321.7L21.94 336.48L112.27 225.48L155.4 274.4C157.419 276.693 160.255 278.104 163.301 278.332C166.348 278.56 169.362 277.587 171.7 275.62L374.21 105.37L394.46 129.46L400.3 123.62Z" fill="white" stroke="#263238" stroke-linejoin="round"/>
<path d="M429.74 42.48L344.74 57.54L365 81.63L171.23 244.55L126.53 193.84C125.406 192.565 124.019 191.551 122.464 190.867C120.908 190.183 119.223 189.846 117.524 189.879C115.825 189.912 114.154 190.315 112.627 191.06C111.1 191.804 109.753 192.872 108.68 194.19L9.63 315.87L27.77 330.64L118.11 219.64L161.24 268.56C163.259 270.853 166.095 272.264 169.141 272.492C172.188 272.72 175.202 271.747 177.54 269.78L380.05 99.54L400.3 123.62L429.74 42.48Z" fill="#263238" stroke="#263238" stroke-linejoin="round"/>
<path opacity="0.15" d="M292.14 285.44C314.883 285.44 333.32 282.248 333.32 278.31C333.32 274.372 314.883 271.18 292.14 271.18C269.397 271.18 250.96 274.372 250.96 278.31C250.96 282.248 269.397 285.44 292.14 285.44Z" fill="black"/>
<path d="M266.89 264.54C266.89 264.54 260.27 274.68 260.66 277.41C261.05 280.14 268.45 283.26 270.79 284.41C273.13 285.56 287.95 287.14 289.9 284.8C291.85 282.46 287.17 281.68 284.44 280.51C281.71 279.34 274.69 273.51 274.69 273.51L273.91 266.88L266.89 264.54Z" fill="#263238" stroke="#263238" stroke-width="1.17" stroke-miterlimit="10"/>
<path d="M289.9 284.82C290.51 284.09 290.47 283.51 290.05 283.02C285.59 283.45 278.77 283.84 273.91 282.87C268.23 281.74 263.19 277.92 260.86 275.93C260.695 276.405 260.627 276.908 260.66 277.41C261.05 280.14 268.45 283.26 270.79 284.41C273.13 285.56 288 287.16 289.9 284.82V284.82Z" fill="white" stroke="#263238" stroke-width="1.17" stroke-linejoin="round"/>
<path d="M307.45 257.13C307.45 257.13 300.45 264.93 301.99 267.27C303.53 269.61 308.62 268.83 311.74 271.56C314.86 274.29 319.54 277.8 324.22 279.36C328.9 280.92 332.8 278.19 330.85 276.63C328.9 275.07 319.93 267.27 319.15 264.54C318.634 262.242 318.373 259.895 318.37 257.54L307.45 257.13Z" fill="#263238" stroke="#263238" stroke-width="1.17" stroke-miterlimit="10"/>
<path d="M331.1 278.29C329.054 278.423 326.999 278.258 325 277.8C321.49 277.02 316.81 271.95 312.13 268.44C309.22 266.26 304.81 265.74 301.88 265.65C301.788 265.914 301.751 266.193 301.77 266.471C301.788 266.75 301.863 267.021 301.99 267.27C303.55 269.61 308.62 268.83 311.74 271.56C314.86 274.29 319.54 277.8 324.22 279.36C327.42 280.43 330.26 279.49 331.1 278.29Z" fill="white" stroke="#263238" stroke-width="1.17" stroke-linejoin="round"/>
<path d="M288.37 135C288.37 135 282.75 155.3 283.92 161.15C285.09 167 293.02 215.4 293.02 215.4L266.89 264.53L276.64 269.99C276.64 269.99 310.96 225.15 311.35 219.69C311.74 214.23 312.67 171.87 312.67 171.87L335.14 212.28L305.89 256.73C305.89 256.73 310.57 260.63 313.69 260.63H318.76C318.76 260.63 355.81 214.63 356.2 211.89C356.59 209.15 331.28 153.82 331.28 153.82L329.7 141.24L288.37 135Z" fill="#9E7CE1" stroke="#263238" stroke-width="1.17" stroke-linejoin="round"/>
<path d="M315.93 171.44L338 208.86C340.79 213.72 344.8 211.41 343.67 213.11C342.54 214.81 338.28 215.67 338.28 215.67L316.4 250.19M296.09 149.05C296.09 149.05 298.92 155.85 296.37 159.54C293.82 163.23 288.72 164.64 288.72 164.64L296.09 149.05ZM312.67 171.88L325.85 160.11L312.67 171.88ZM321.9 151.05L319.81 155.52C319.81 155.52 325.48 157.01 323.1 159.7C320.72 162.39 319.22 162.7 319.22 162.7L321.9 151.05ZM313.66 171.73L323.87 165.49L313.66 171.73ZM289 149.05C288.283 153.652 287.809 158.288 287.58 162.94L289 149.05ZM273.59 262.5L271.99 265.27L273.59 262.5ZM288.72 168.61L295.52 214.25C296.09 215.67 298.35 215.67 297.79 216.8C297.22 217.652 296.437 218.342 295.52 218.8L296.94 221.92L275.87 258.56L288.72 168.61ZM314.13 253.77L311.68 257.62L314.13 253.77Z" stroke="#263238" stroke-width="1.17" stroke-linecap="round" stroke-linejoin="round"/>
<path d="M286.57 143.61C287.254 144.097 287.98 144.522 288.74 144.88L293.15 147.21L294.15 142.03L298.04 142.8L297.52 147.21C297.52 147.21 297 148.21 302.19 148.51C307.38 148.81 309 149.8 309 149.8L310 143.8L313.89 143.54V150.28C316.921 150.284 319.949 150.11 322.96 149.76C324.905 149.486 326.765 148.779 328.4 147.69V143.02L326.29 140.69L288.37 135L286.57 143.61V143.61Z" fill="#263238"/>
<path d="M319.58 146.17V149.8C321.884 149.573 324.149 149.052 326.32 148.25L326.83 145.14C326.83 145.14 320.87 145.65 319.58 146.17V146.17ZM355.17 145.41L349.12 145.92L344.46 151.45L351.37 157.32C353.79 159.57 355.86 161.63 357.76 161.11C359.66 160.59 366.21 151.62 366.21 149.55C366.21 147.48 358.79 143.68 355.17 145.41V145.41Z" fill="white" stroke="#263238" stroke-width="1.17" stroke-linejoin="round"/>
<path d="M351.54 147.13C352.605 145.986 353.827 144.999 355.17 144.2C356.144 143.633 357.257 143.349 358.384 143.379C359.511 143.409 360.607 143.752 361.55 144.37C363.8 145.75 364.14 147.13 362.93 148.68C361.72 150.23 357.07 155.76 356.72 154.38C356.37 153 358.45 148.68 358.45 148.68C358.45 148.68 355.68 155.07 351.89 150.93" fill="white"/>
<path d="M351.54 147.13C352.605 145.986 353.827 144.999 355.17 144.2C356.144 143.633 357.257 143.349 358.384 143.379C359.511 143.409 360.607 143.752 361.55 144.37C363.8 145.75 364.14 147.13 362.93 148.68C361.72 150.23 357.07 155.76 356.72 154.38C356.37 153 358.45 148.68 358.45 148.68C358.45 148.68 355.68 155.07 351.89 150.93" stroke="#263238" stroke-width="1.17" stroke-linecap="round" stroke-linejoin="round"/>
<path d="M356.55 159.73C356.55 159.73 353.79 157.14 353.79 155.94C353.79 154.74 357.41 151.62 357.41 151.62" stroke="#263238" stroke-width="1.17" stroke-linecap="round" stroke-linejoin="round"/>
<path d="M347.74 142.64L351.2 145.41L345.5 152.14L342.39 149.2L347.74 142.64Z" fill="white" stroke="#263238" stroke-width="1.17" stroke-linejoin="round"/>
<path d="M330.66 126.88L349.12 142.56L341.46 150.22L325.78 139.77L330.66 126.88V126.88Z" fill="#9E7CE1" stroke="#263238" stroke-width="1.17" stroke-linejoin="round"/>
<path d="M304 67.41C304 67.41 295 72.22 293.54 80.17C292.08 88.12 287.68 132.94 287.68 136.91C287.68 140.88 298.97 145.7 308.8 145.91C318.63 146.12 328.67 145.91 330.14 142.56C331.61 139.21 334.54 101.09 333.28 90.21C332.02 79.33 329.28 73.27 325.28 70.55C321.28 67.83 309.45 64.28 304 67.41V67.41Z" fill="white" stroke="#263238" stroke-width="1.17" stroke-linejoin="round"/>
<path d="M290.09 139.66C299.517 140.619 309.039 139.429 317.94 136.18M291.64 137C291.64 137 314.08 128.1 322.97 116.11L291.64 137Z" stroke="#263238" stroke-width="1.17" stroke-linecap="round" stroke-linejoin="round"/>
<path d="M307.35 48.17C307.35 48.17 307.35 48.56 307.41 49.23C307.577 52.6417 307.49 56.0611 307.15 59.46L306.52 65.11L322.41 69.71C322.41 69.71 323.04 66.37 324.51 61.56C325.623 58.2014 327.095 54.9727 328.9 51.93C328.9 51.93 321.58 49.63 317.39 46.08C313.2 42.53 308.82 43.78 307.35 48.17Z" fill="white" stroke="#263238" stroke-width="1.17" stroke-linejoin="round"/>
<path d="M322.83 18.68C322.83 18.68 327.43 15.12 324.72 8.22003C322.01 1.32003 310.49 2.15003 306.31 5.08003C302.13 8.01003 304.22 9.89003 306.52 10.08C308.82 10.27 309.86 12.8 306.94 13.64C304.02 14.48 300.66 12.38 295.85 17.64C291.04 22.9 295.64 27.47 296.48 26.22C297.32 24.97 298.78 22.03 299.2 23.92C299.62 25.81 295 28.3 294.39 34.16C293.78 40.02 299.2 45.87 302.75 48.8C306.3 51.73 310.91 52.56 313 49.8C315.09 47.04 317.19 42.48 319.49 39.55C321.79 36.62 319.07 29.55 318.23 26.79C317.39 24.03 322.83 18.68 322.83 18.68V18.68Z" fill="#263238" stroke="#263238" stroke-width="1.17" stroke-linejoin="round"/>
<path d="M312.37 42.73C312.37 42.73 309.45 38.34 306.73 39.8C304.01 41.26 306.73 47.33 309.24 49.22C311.75 51.11 315.09 48.22 315.09 48.22C315.09 48.22 320.09 55.33 323.88 55.33C327.67 55.33 339.15 54.7 339.98 50.94C340.81 47.18 334.75 34.83 334.75 34.83C334.75 34.83 336.64 32.53 336.43 31.07C336.22 29.61 332.24 30.23 331.43 29.6C330.62 28.97 328.5 23.54 325.99 20.6C323.48 17.66 322.23 17.67 322.23 17.67C322.23 17.67 309 24.32 312 26.42C315 28.52 316 26.63 315.76 28.09C315.52 29.55 310.95 34.99 311.76 35.62C312.57 36.25 315.52 37.92 315.1 39.8C314.68 41.68 314.88 43.36 312.37 42.73V42.73Z" fill="white" stroke="#263238" stroke-width="1.17" stroke-linejoin="round"/>
<path d="M329.43 30.08C329.93 31.29 329.92 32.44 329.43 32.66C328.94 32.88 328.08 32.08 327.57 30.88C327.06 29.68 327.08 28.52 327.57 28.3C328.06 28.08 328.92 28.88 329.43 30.08Z" fill="#263238"/>
<path d="M334.68 40.25C334.68 40.25 333.23 41.88 330.87 40.43M327.6 25.91C327.6 25.91 324.52 25 323.25 27.36L327.6 25.91Z" stroke="#263238" stroke-width="1.17" stroke-linecap="round" stroke-linejoin="round"/>
<path d="M274.9 95.5099C274.9 95.5099 253.52 95.62 249.14 96.34C244.76 97.06 249.46 108.67 249.91 111.41C250.36 114.15 274.9 95.5099 274.9 95.5099Z" fill="#9E7CE1" stroke="#263238" stroke-width="1.17" stroke-linejoin="round"/>
<path d="M320.71 72.29C322.902 74.9772 324.345 78.196 324.893 81.6203C325.441 85.0446 325.074 88.5529 323.83 91.79C319.54 103.09 294.97 123.37 281.71 132.73C273.087 138.736 264.104 144.206 254.81 149.11C254.81 149.11 240 137 235.7 125.71C231.4 114.42 236.85 108.71 252.45 103.27C268.05 97.83 287.95 91.01 291.45 81.27C294.95 71.53 299.33 64.19 306.51 65.12C313.69 66.05 320.71 72.29 320.71 72.29Z" fill="#9E7CE1" stroke="#263238" stroke-width="1.17" stroke-linejoin="round"/>
<path d="M292.24 124.54C292.24 124.54 277.81 130 265.33 133.9C252.85 137.8 237.26 137.02 237.65 140.14C238.04 143.26 247.01 149.14 248.96 150.28C250.91 151.42 254.81 148.72 259.49 147.55C264.17 146.38 286 132.34 292.24 124.54V124.54Z" fill="#263238" stroke="#263238" stroke-width="1.17" stroke-linejoin="round"/>
<path d="M244.69 159.88L243.16 172.25L245.63 172.56L246.9 162.31L267.76 164.89L266.5 175.14L268.97 175.45L270.5 163.08L244.69 159.88V159.88Z" fill="white" stroke="#263238" stroke-width="1.17" stroke-linejoin="round"/>
<path d="M282.064 174.189L230.456 167.933C227.859 167.619 225.498 169.469 225.183 172.066L220.723 208.864C220.408 211.461 222.258 213.822 224.855 214.137L276.464 220.392C279.061 220.707 281.422 218.857 281.737 216.26L286.197 179.462C286.512 176.864 284.662 174.504 282.064 174.189Z" fill="white" stroke="#263238" stroke-width="1.16678" stroke-linejoin="round"/>
<path d="M225.22 191.62L281.42 198.81" stroke="#263238" stroke-width="1.17" stroke-linecap="round" stroke-linejoin="round"/>
<path d="M232.07 170.81L227.56 208.1L230.74 213.93L235.25 209.42L240.03 171.75" fill="white"/>
<path d="M232.07 170.81L227.56 208.1L230.74 213.93L235.25 209.42L240.03 171.75" stroke="#263238" stroke-width="1.17" stroke-linecap="round" stroke-linejoin="round"/>
<path d="M227.159 195.712L238.203 197.17L237.508 202.434L226.464 200.976L227.159 195.712Z" fill="white" stroke="#263238" stroke-width="1.17" stroke-linejoin="round"/>
<path d="M226.779 197.105L237.808 198.553L237.635 199.87L226.606 198.422L226.779 197.105Z" fill="white" stroke="#263238" stroke-width="1.168" stroke-linejoin="round"/>
<path d="M271.36 175.91L266.83 213.14L270.01 218.98L274.52 214.46L279.3 176.79" fill="white"/>
<path d="M271.36 175.91L266.83 213.14L270.01 218.98L274.52 214.46L279.3 176.79" stroke="#263238" stroke-width="1.17" stroke-linecap="round" stroke-linejoin="round"/>
<path d="M266.432 200.748L277.476 202.206L276.781 207.47L265.737 206.012L266.432 200.748Z" fill="white" stroke="#263238" stroke-width="1.17" stroke-linejoin="round"/>
<path d="M266.171 202.721L277.215 204.179L277.041 205.498L265.997 204.04L266.171 202.721Z" fill="white" stroke="#263238" stroke-width="1.17" stroke-linejoin="round"/>
<path d="M314.08 75.8C314.08 75.8 309.79 73.46 302.77 74.24C295.75 75.02 261.05 96.08 256 98.42C250.95 100.76 251.32 107.77 251.32 107.77L254.44 152.62H264.18L270.42 108.94C270.42 108.94 315.11 97.08 316.51 88.24" fill="#9E7CE1"/>
<path d="M314.08 75.8C314.08 75.8 309.79 73.46 302.77 74.24C295.75 75.02 261.05 96.08 256 98.42C250.95 100.76 251.32 107.77 251.32 107.77L254.44 152.62H264.18L270.42 108.94C270.42 108.94 315.11 97.08 316.51 88.24" stroke="#263238" stroke-width="1.17" stroke-linecap="round" stroke-linejoin="round"/>
<path d="M264.16 152.62L266.5 160.81C266.5 160.81 266.5 168.61 265.33 169.39C264.16 170.17 263.77 171.73 261.83 170.17L259.88 168.61C258.471 168.243 257.037 167.982 255.59 167.83C254.42 167.83 252.08 167.83 251.3 165.83C250.52 163.83 254.42 152.57 254.42 152.57L264.16 152.62Z" fill="white" stroke="#263238" stroke-width="1.17" stroke-linejoin="round"/>
<path d="M323.3 75.6L324.93 82.8C321.165 84.0925 317.211 84.7514 313.23 84.75C306.6 84.75 295.29 74.22 287.5 68.37C279.71 62.52 271.9 70.32 264.88 72.66C257.86 75 252.4 73.83 241.48 69.93C230.56 66.03 218.48 75 218.48 75L215 83.58L225.92 89.43C225.92 89.43 236.06 78.12 243.47 78.12C250.88 78.12 265.31 83.58 270.77 80.46C276.23 77.34 280.52 71.46 284.42 72.27C288.32 73.08 305.43 90.21 314 91C316.364 91.2903 318.762 90.8929 320.906 89.8553C323.051 88.8178 324.85 87.1841 326.09 85.15L329.21 76.15C329.21 76.15 324 68.78 323.3 75.6V75.6Z" fill="#263238" stroke="#263238" stroke-width="1.17" stroke-linejoin="round"/>
<path d="M325.13 69.29L329.11 69.7101L334.75 79.54L328.9 75.15L325.33 76.61L324.92 73.2701L325.13 69.29V69.29Z" fill="white" stroke="#263238" stroke-width="1.17" stroke-linejoin="round"/>
<path d="M303.5 58.39L326.18 67.62L325.76 77.24L300.57 65.09L303.5 58.39Z" fill="white" stroke="#263238" stroke-width="1.17" stroke-linejoin="round"/>
</svg>
