<svg width="500" height="500" viewBox="0 0 500 500" fill="none" xmlns="http://www.w3.org/2000/svg">
<path d="M38.16 210.57C38.16 210.57 30.94 289 89.6 351.89C148.26 414.78 238.09 433.57 310.6 450.72C383.11 467.87 444.38 435.89 460.6 374.79C476.82 313.69 423.31 286 401.89 209.79C380.47 133.58 386.1 110.6 327.44 56.13C268.78 1.65998 165.13 11.77 103.18 78C41.23 144.23 38.16 210.57 38.16 210.57Z" fill="#9E7CE1"/>
<path opacity="0.8" d="M38.16 210.57C38.16 210.57 30.94 289 89.6 351.89C148.26 414.78 238.09 433.57 310.6 450.72C383.11 467.87 444.38 435.89 460.6 374.79C476.82 313.69 423.31 286 401.89 209.79C380.47 133.58 386.1 110.6 327.44 56.13C268.78 1.65998 165.13 11.77 103.18 78C41.23 144.23 38.16 210.57 38.16 210.57Z" fill="white"/>
<path d="M19.09 374.66C22.09 374.44 27.91 371.19 27.92 371.19C27.93 371.19 24.61 367.99 24.37 367.81C21.64 365.81 15.18 363.46 12.08 365.67C11.5745 366.05 11.155 366.533 10.8488 367.087C10.5425 367.64 10.3564 368.252 10.3026 368.883C10.2488 369.513 10.3286 370.148 10.5366 370.745C10.7446 371.342 11.0763 371.889 11.51 372.35C13.28 374.38 16.56 374.84 19.09 374.66Z" fill="#263238"/>
<path d="M30.16 390.71C32.86 389.76 37.33 385.45 37.68 385.1C40.1405 387.666 42.7696 390.065 45.55 392.28C47.16 393.57 48.82 394.83 50.55 396.07C49.69 395.62 48.93 395.22 48.82 395.18C45.65 393.94 38.82 393.41 36.39 396.36C35.9934 396.859 35.7075 397.437 35.5511 398.055C35.3948 398.674 35.3717 399.318 35.4833 399.946C35.5948 400.574 35.8386 401.171 36.1983 401.697C36.5581 402.224 37.0256 402.668 37.57 403C39.81 404.49 43.1 404.07 45.49 403.22C47.88 402.37 51.81 398.77 52.83 397.8C53.48 398.27 54.12 398.75 54.77 399.21C57.9 401.45 61.04 403.67 64.05 405.94C65.11 406.74 66.12 407.57 67.14 408.39C66.38 407.99 65.74 407.66 65.64 407.62C62.47 406.38 55.64 405.85 53.21 408.8C52.8236 409.301 52.5471 409.879 52.3986 410.494C52.2501 411.11 52.2328 411.749 52.3479 412.372C52.463 412.995 52.7078 413.586 53.0666 414.108C53.4253 414.629 53.8898 415.07 54.43 415.4C56.67 416.88 59.96 416.46 62.35 415.62C64.74 414.78 68.29 411.51 69.5 410.37C70.5 411.24 71.5 412.11 72.5 413.01C73.13 413.63 73.78 414.19 74.38 414.85L76.19 416.77C77.29 418.02 78.44 419.31 79.48 420.57C80.22 421.44 80.9 422.27 81.59 423.12C80.59 422.31 78.46 420.77 78.28 420.66C75.28 418.96 68.65 417.39 65.82 419.95C65.3617 420.386 65.0005 420.914 64.7599 421.498C64.5193 422.083 64.4047 422.712 64.4235 423.345C64.4424 423.977 64.5943 424.598 64.8694 425.167C65.1445 425.737 65.5365 426.242 66.02 426.65C68.02 428.45 71.33 428.54 73.82 428.07C76.57 427.54 81.46 424.12 82.07 423.69C83.2 425.09 84.3 426.47 85.31 427.78C88.04 431.3 90.31 434.43 92.06 436.96L94.3 435.78C92.44 433.22 90.02 430 87.08 426.38C85.93 424.95 84.67 423.45 83.37 421.92C84.6149 420.461 85.7704 418.928 86.83 417.33C89.54 418.33 95.11 418.14 95.83 418.12C96.01 419.92 96.16 421.66 96.28 423.32C96.6 427.63 96.76 431.41 96.85 434.44L99.28 433.15C99.13 430.31 98.9 426.93 98.53 423.15C98.36 421.32 98.14 419.38 97.89 417.38C98.59 417.18 104.34 415.5 106.46 413.68C108.4 412.03 110.4 409.39 110.24 406.68C110.223 406.047 110.073 405.425 109.8 404.854C109.527 404.283 109.137 403.776 108.655 403.365C108.173 402.955 107.61 402.651 107.003 402.472C106.395 402.294 105.757 402.246 105.13 402.33C101.38 402.94 98.41 409.13 97.9 412.49C97.9 412.69 97.78 414.88 97.75 416.26C97.65 415.45 97.55 414.66 97.44 413.82C97.21 412.16 96.94 410.51 96.66 408.74C96.4933 407.893 96.3233 407.033 96.15 406.16C96 405.29 95.73 404.4 95.52 403.51C95 401.45 94.36 399.4 93.68 397.34C95.13 397.15 100.27 396.34 102.44 395.03C104.61 393.72 106.98 391.38 107.23 388.71C107.309 388.082 107.254 387.444 107.071 386.839C106.887 386.233 106.579 385.672 106.165 385.194C105.751 384.715 105.241 384.328 104.668 384.059C104.096 383.789 103.473 383.643 102.84 383.63C99.04 383.63 95.17 389.34 94.15 392.63C94.09 392.84 93.62 395.25 93.39 396.58C92.97 395.34 92.56 394.11 92.09 392.88C90.75 389.32 89.27 385.76 87.82 382.2L86.51 378.93C87.03 378.86 93.16 378.07 95.59 376.57C97.75 375.23 100.13 372.92 100.37 370.25C100.464 369.616 100.422 368.97 100.246 368.354C100.071 367.738 99.7665 367.167 99.353 366.678C98.9396 366.189 98.4268 365.793 97.8486 365.518C97.2705 365.242 96.6403 365.093 96 365.08C92.19 365.08 88.32 370.79 87.31 374.03C87.23 374.28 86.57 377.75 86.44 378.64C85.44 376.24 84.55 373.83 83.73 371.43C82.6081 368.185 81.6962 364.872 81 361.51C81.24 361.51 87.65 360.68 90.14 359.14C92.29 357.8 94.67 355.49 94.92 352.82C95 352.192 94.9472 351.555 94.765 350.949C94.5827 350.344 94.275 349.783 93.8619 349.304C93.4489 348.825 92.9396 348.438 92.3673 348.169C91.795 347.899 91.1724 347.753 90.54 347.74C86.73 347.74 82.86 353.45 81.85 356.69C81.77 356.95 81.05 360.69 80.97 361.37C80.97 361.17 80.87 360.98 80.83 360.78C80.2246 357.387 79.9201 353.947 79.92 350.5C79.92 348.6 79.98 346.78 80.1 345.01C81.31 345.01 86.83 344.81 89.23 343.67C91.63 342.53 94.13 340.54 94.68 337.91C94.8268 337.295 94.8429 336.656 94.7273 336.034C94.6117 335.412 94.3669 334.822 94.0088 334.301C93.6506 333.779 93.1871 333.339 92.6481 333.008C92.1092 332.677 91.5068 332.463 90.88 332.38C87.09 332 82.62 337.21 81.25 340.33C81.18 340.5 80.61 342.33 80.25 343.62C80.32 342.83 80.37 342 80.45 341.24C80.74 338.37 81.19 335.77 81.6 333.46C81.84 332.15 82.09 330.98 82.33 329.88C83.51 329.23 88.2 326.58 89.77 324.5C91.34 322.42 92.69 319.5 91.95 316.88C91.7981 316.263 91.5174 315.684 91.1263 315.183C90.7352 314.682 90.2426 314.269 89.6808 313.972C89.1189 313.674 88.5006 313.499 87.8662 313.457C87.2319 313.416 86.5959 313.509 86 313.73C82.46 315.13 80.9 321.82 81.12 325.21C81.12 325.51 81.97 330.06 82.03 330.02H82.1C81.85 331.07 81.59 332.2 81.33 333.45C80.87 335.75 80.33 338.35 80.01 341.22C79.5918 344.307 79.3547 347.415 79.3 350.53C79.2231 354.021 79.4574 357.511 80 360.96C80 360.96 80 361.04 80 361.08C79.5 360.08 78 357.34 77.86 357.15C75.86 354.37 70.49 350.15 66.86 351.28C66.2623 351.486 65.7146 351.815 65.2523 352.246C64.79 352.677 64.4234 353.2 64.1764 353.782C63.9294 354.363 63.8074 354.991 63.8183 355.623C63.8293 356.255 63.9729 356.877 64.24 357.45C65.29 359.92 68.24 361.39 70.73 362.01C73.51 362.7 79.61 361.57 80.1 361.48C80.7341 364.974 81.6027 368.422 82.7 371.8C83.33 373.8 84.02 375.74 84.7 377.7C84.24 376.85 83.82 376.1 83.75 376C81.75 373.22 76.38 369 72.75 370.13C72.1523 370.336 71.6046 370.665 71.1423 371.096C70.68 371.527 70.3134 372.05 70.0664 372.632C69.8194 373.213 69.6974 373.841 69.7083 374.473C69.7193 375.105 69.8629 375.727 70.13 376.3C71.18 378.78 74.13 380.24 76.61 380.86C79.09 381.48 84.34 380.63 85.72 380.38C86.01 381.13 86.28 381.88 86.57 382.63C87.94 386.23 89.33 389.81 90.57 393.36C91.01 394.61 91.4 395.86 91.8 397.11C91.39 396.36 91.03 395.73 90.97 395.64C88.97 392.86 83.59 388.64 79.97 389.77C79.3715 389.975 78.8227 390.303 78.3593 390.733C77.8959 391.164 77.5282 391.687 77.2802 392.269C77.0322 392.851 76.9093 393.478 76.9196 394.111C76.9299 394.743 77.0731 395.366 77.34 395.94C78.4 398.41 81.34 399.88 83.83 400.5C86.32 401.12 91.05 400.34 92.69 400.06C93.06 401.35 93.43 402.64 93.69 403.91C93.87 404.78 94.11 405.61 94.25 406.49C94.39 407.37 94.55 408.23 94.7 409.08C94.92 410.74 95.17 412.45 95.35 414.08C95.48 415.21 95.59 416.29 95.7 417.37C95.27 416.12 94.39 413.69 94.29 413.49C92.868 410.869 90.8034 408.653 88.29 407.05C88.1418 406.752 87.9678 406.468 87.77 406.2C87.4069 405.682 86.9389 405.246 86.3963 404.92C85.8537 404.595 85.2487 404.387 84.6205 404.31C83.9924 404.234 83.3552 404.291 82.7504 404.477C82.1455 404.663 81.5866 404.974 81.11 405.39C78.31 407.97 79.26 414.77 80.68 417.86C80.77 418.04 81.9 419.91 82.68 421.08C82.14 420.46 81.68 419.85 81.07 419.22C79.97 417.96 78.83 416.73 77.62 415.41L75.77 413.53C75.17 412.9 74.45 412.3 73.77 411.67C72.2 410.25 70.54 408.88 68.84 407.55C69.94 406.55 73.84 403.1 74.84 400.78C75.84 398.46 76.61 395.24 75.34 392.87C75.0663 392.298 74.6748 391.79 74.1912 391.38C73.7076 390.97 73.1428 390.667 72.5338 390.49C71.9248 390.314 71.2854 390.268 70.6574 390.356C70.0294 390.444 69.4271 390.663 68.89 391C65.73 393.13 65.63 400 66.57 403.27C66.63 403.47 67.57 405.74 68.11 406.97C67.11 406.18 66.11 405.38 64.99 404.61C61.91 402.38 58.71 400.22 55.54 398.06L52.64 396.06C53.04 395.72 57.71 391.68 58.91 389.06C59.97 386.75 60.68 383.52 59.41 381.15C59.1295 380.589 58.7348 380.093 58.2511 379.695C57.7675 379.296 57.2057 379.002 56.6018 378.834C55.998 378.665 55.3655 378.625 54.7452 378.716C54.1248 378.806 53.5303 379.026 53 379.36C49.84 381.48 49.74 388.36 50.69 391.62C50.76 391.86 52.12 395.13 52.5 395.94C50.38 394.46 48.28 392.94 46.26 391.42C43.5306 389.336 40.9385 387.078 38.5 384.66C38.68 384.5 43.59 380.3 44.81 377.66C45.87 375.36 46.59 372.12 45.32 369.75C45.0397 369.183 44.6432 368.681 44.1562 368.277C43.6692 367.873 43.1027 367.576 42.4934 367.405C41.8841 367.234 41.2458 367.194 40.6198 367.286C39.9938 367.378 39.3942 367.601 38.86 367.94C35.7 370.07 35.6 376.94 36.55 380.2C36.62 380.46 38.09 383.97 38.4 384.58L37.96 384.17C35.5794 381.678 33.4274 378.977 31.53 376.1C30.46 374.52 29.53 372.96 28.65 371.42C29.65 370.73 34.15 367.53 35.52 365.26C36.89 362.99 37.89 359.95 36.89 357.46C36.6748 356.865 36.3367 356.321 35.8977 355.865C35.4587 355.409 34.9286 355.051 34.3419 354.813C33.7552 354.575 33.1251 354.464 32.4924 354.486C31.8598 354.507 31.2388 354.662 30.67 354.94C27.3 356.71 26.45 363.53 27.03 366.88C27.03 367.06 27.58 368.88 28.03 370.19C27.65 369.49 27.24 368.77 26.89 368.09C25.55 365.54 24.48 363.09 23.55 360.98C23.04 359.75 22.55 358.63 22.19 357.58C22.81 356.4 25.26 351.58 25.42 349C25.58 346.42 25 343.17 23 341.42C22.5347 340.991 21.9843 340.665 21.3847 340.462C20.7851 340.26 20.1496 340.186 19.5195 340.246C18.8895 340.305 18.279 340.497 17.7277 340.807C17.1765 341.118 16.6968 341.542 16.32 342.05C14.14 345.17 16.53 351.61 18.59 354.32C18.77 354.56 21.97 357.89 22 357.83V357.76C22.37 358.76 22.78 359.87 23.24 361.05C24.13 363.22 25.15 365.67 26.43 368.26C27.792 371.067 29.318 373.792 31 376.42C32.8601 379.372 34.9784 382.153 37.33 384.73L37.42 384.82C36.42 384.26 33.69 382.82 33.42 382.72C30.25 381.48 23.42 380.95 21 383.9C20.6133 384.4 20.3364 384.976 20.1872 385.59C20.038 386.205 20.0199 386.843 20.134 387.465C20.2482 388.087 20.4921 388.677 20.8497 389.199C21.2074 389.72 21.6709 390.16 22.21 390.49C24.48 392 27.76 391.56 30.16 390.71Z" fill="#263238"/>
<path d="M79.6 344.46C79.67 344.46 78.6 339.96 78.5 339.68C77.35 336.48 73.24 330.98 69.43 331.11C68.7994 331.152 68.1846 331.325 67.6252 331.619C67.0657 331.913 66.5741 332.321 66.1821 332.816C65.7901 333.312 65.5064 333.884 65.3493 334.496C65.1922 335.109 65.1652 335.747 65.27 336.37C65.64 339.04 68.11 341.24 70.33 342.48C72.93 343.94 79.59 344.46 79.6 344.46Z" fill="#263238"/>
<path d="M479.23 374.66C476.23 374.44 470.41 371.19 470.41 371.19C470.41 371.19 473.72 367.99 473.95 367.81C476.68 365.81 483.15 363.46 486.25 365.67C486.755 366.051 487.173 366.535 487.479 367.088C487.784 367.642 487.969 368.255 488.022 368.885C488.075 369.515 487.994 370.15 487.785 370.747C487.577 371.344 487.244 371.89 486.81 372.35C485 374.38 481.76 374.84 479.23 374.66Z" fill="#263238"/>
<path d="M468.17 390.71C465.47 389.76 461 385.45 460.64 385.1C458.182 387.668 455.553 390.067 452.77 392.28C451.16 393.57 449.5 394.83 447.82 396.07C448.67 395.62 449.44 395.22 449.55 395.18C452.72 393.94 459.55 393.41 461.97 396.36C462.356 396.861 462.633 397.437 462.781 398.052C462.929 398.667 462.947 399.306 462.832 399.927C462.716 400.549 462.472 401.14 462.113 401.661C461.754 402.181 461.29 402.621 460.75 402.95C458.51 404.44 455.23 404.02 452.83 403.17C450.43 402.32 446.51 398.72 445.5 397.75L443.55 399.16C440.42 401.4 437.29 403.62 434.28 405.89C433.22 406.69 432.2 407.52 431.18 408.34C431.94 407.94 432.58 407.61 432.69 407.57C435.85 406.33 442.69 405.8 445.11 408.75C445.496 409.252 445.773 409.829 445.921 410.444C446.07 411.06 446.087 411.7 445.972 412.322C445.857 412.945 445.612 413.536 445.253 414.058C444.895 414.579 444.43 415.02 443.89 415.35C441.65 416.83 438.36 416.41 435.97 415.57C433.58 414.73 430.03 411.46 428.82 410.32C427.82 411.19 426.82 412.06 425.82 412.96C425.18 413.58 424.53 414.14 423.93 414.8C423.33 415.46 422.72 416.08 422.13 416.72C421.02 417.97 419.88 419.26 418.83 420.52C418.1 421.39 417.41 422.22 416.72 423.07C417.77 422.26 419.85 420.72 420.04 420.61C422.98 418.91 429.67 417.34 432.49 419.9C432.948 420.336 433.31 420.864 433.55 421.448C433.791 422.033 433.905 422.662 433.886 423.295C433.868 423.927 433.716 424.548 433.441 425.117C433.166 425.687 432.773 426.192 432.29 426.6C430.29 428.4 426.99 428.49 424.49 428.02C421.75 427.49 416.86 424.07 416.25 423.64C415.11 425.04 414.02 426.42 413 427.73C410.28 431.25 408 434.38 406.25 436.91L404 435.73C405.86 433.17 408.29 429.95 411.22 426.33C412.37 424.9 413.63 423.4 414.94 421.87C413.694 420.41 412.535 418.877 411.47 417.28C408.76 418.28 403.19 418.09 402.47 418.07C402.3 419.87 402.14 421.61 402.02 423.27C401.7 427.58 401.54 431.36 401.46 434.39L399.02 433.1C399.17 430.26 399.41 426.88 399.77 423.1C399.95 421.27 400.17 419.33 400.41 417.33C399.71 417.13 393.97 415.45 391.84 413.63C389.91 411.98 387.91 409.34 388.07 406.63C388.085 405.998 388.234 405.376 388.506 404.805C388.778 404.234 389.167 403.726 389.648 403.316C390.13 402.905 390.692 402.601 391.299 402.423C391.906 402.244 392.543 402.195 393.17 402.28C396.93 402.89 399.89 409.08 400.4 412.44C400.4 412.64 400.52 414.83 400.55 416.21C400.66 415.4 400.75 414.61 400.87 413.77C401.09 412.11 401.36 410.46 401.65 408.69C401.81 407.84 401.98 406.98 402.15 406.11C402.32 405.24 402.57 404.35 402.78 403.46C403.31 401.4 403.94 399.35 404.62 397.29C403.17 397.1 398.03 396.29 395.86 394.98C393.69 393.67 391.32 391.33 391.08 388.66C391 388.032 391.053 387.395 391.235 386.789C391.417 386.184 391.725 385.623 392.138 385.144C392.551 384.665 393.06 384.278 393.633 384.009C394.205 383.739 394.828 383.593 395.46 383.58C399.27 383.58 403.14 389.29 404.15 392.58C404.22 392.79 404.68 395.2 404.91 396.53C405.33 395.29 405.75 394.06 406.21 392.83C407.56 389.27 409.03 385.71 410.48 382.15C410.93 381.06 411.36 379.97 411.79 378.88C411.28 378.81 405.14 378.02 402.71 376.52C400.56 375.18 398.18 372.87 397.93 370.2C397.85 369.572 397.903 368.935 398.085 368.329C398.267 367.724 398.575 367.163 398.988 366.684C399.401 366.205 399.91 365.818 400.483 365.549C401.055 365.279 401.678 365.133 402.31 365.12C406.12 365.12 409.99 370.83 411.01 374.07C411.08 374.32 411.75 377.79 411.87 378.68C412.87 376.28 413.76 373.87 414.59 371.47C415.716 368.226 416.631 364.912 417.33 361.55C417.09 361.55 410.69 360.72 408.2 359.18C406.04 357.84 403.66 355.53 403.41 352.86C403.331 352.232 403.386 351.594 403.569 350.989C403.753 350.383 404.061 349.822 404.475 349.344C404.889 348.865 405.399 348.478 405.972 348.209C406.544 347.939 407.167 347.793 407.8 347.78C411.61 347.78 415.47 353.49 416.49 356.73C416.57 356.99 417.28 360.73 417.36 361.41C417.36 361.21 417.47 361.02 417.5 360.82C418.11 357.427 418.415 353.987 418.41 350.54C418.41 348.64 418.35 346.82 418.23 345.05C417.02 345.05 411.5 344.85 409.11 343.71C406.72 342.57 404.2 340.58 403.66 337.95C403.512 337.335 403.494 336.695 403.609 336.073C403.724 335.451 403.969 334.859 404.327 334.338C404.686 333.816 405.15 333.376 405.69 333.045C406.229 332.715 406.832 332.502 407.46 332.42C411.25 332.04 415.72 337.25 417.08 340.37C417.16 340.54 417.72 342.37 418.08 343.66C418.01 342.87 417.96 342.04 417.88 341.28C417.59 338.41 417.15 335.81 416.73 333.5C416.49 332.19 416.24 331.02 416 329.92C414.83 329.27 410.14 326.62 408.57 324.54C407 322.46 405.65 319.54 406.38 316.92C406.533 316.306 406.812 315.731 407.202 315.233C407.591 314.734 408.08 314.323 408.638 314.026C409.197 313.729 409.811 313.553 410.442 313.509C411.073 313.465 411.706 313.554 412.3 313.77C415.84 315.17 417.4 321.86 417.18 325.25C417.18 325.55 416.33 330.1 416.27 330.06H416.2C416.45 331.11 416.72 332.24 416.98 333.49C417.44 335.79 417.98 338.39 418.3 341.26C418.715 344.347 418.948 347.456 419 350.57C419.08 354.06 418.849 357.551 418.31 361V361.12C418.81 360.12 420.31 357.38 420.45 357.19C422.45 354.41 427.82 350.19 431.45 351.32C432.049 351.524 432.597 351.853 433.061 352.283C433.524 352.714 433.891 353.238 434.138 353.82C434.385 354.402 434.507 355.03 434.495 355.662C434.484 356.295 434.339 356.917 434.07 357.49C433.02 359.96 430.07 361.43 427.59 362.05C424.81 362.74 418.7 361.61 418.21 361.52C417.576 365.014 416.707 368.462 415.61 371.84C414.98 373.84 414.29 375.78 413.61 377.74C414.07 376.89 414.49 376.14 414.56 376.04C416.56 373.26 421.94 369.04 425.56 370.17C426.159 370.375 426.707 370.703 427.171 371.133C427.634 371.564 428.002 372.087 428.25 372.669C428.498 373.251 428.621 373.878 428.61 374.511C428.6 375.143 428.457 375.766 428.19 376.34C427.13 378.82 424.19 380.28 421.7 380.9C419.21 381.52 413.97 380.67 412.59 380.42L411.75 382.67C410.37 386.27 408.98 389.85 407.75 393.4C407.31 394.65 406.92 395.9 406.53 397.15C406.94 396.4 407.29 395.77 407.35 395.68C409.35 392.9 414.73 388.68 418.35 389.81C418.948 390.016 419.495 390.345 419.958 390.776C420.42 391.207 420.787 391.73 421.034 392.312C421.281 392.893 421.403 393.521 421.392 394.153C421.381 394.785 421.237 395.407 420.97 395.98C419.91 398.45 416.97 399.92 414.48 400.54C411.99 401.16 407.26 400.38 405.62 400.1C405.26 401.39 404.89 402.68 404.62 403.95C404.44 404.82 404.2 405.65 404.07 406.53C403.94 407.41 403.77 408.27 403.62 409.12C403.39 410.78 403.15 412.49 402.97 414.12C402.83 415.25 402.72 416.33 402.61 417.41C403.04 416.16 403.93 413.73 404.02 413.53C405.422 410.878 407.481 408.629 410 407C410.141 406.698 410.315 406.413 410.52 406.15C410.882 405.632 411.349 405.196 411.891 404.871C412.433 404.545 413.037 404.337 413.664 404.261C414.292 404.185 414.928 404.241 415.532 404.427C416.136 404.613 416.694 404.924 417.17 405.34C419.97 407.92 419.03 414.72 417.6 417.81C417.51 417.99 416.38 419.86 415.6 421.03C416.14 420.41 416.66 419.8 417.22 419.17C418.32 417.91 419.45 416.68 420.67 415.36L422.51 413.48C423.12 412.85 423.84 412.25 424.51 411.62C426.08 410.2 427.74 408.83 429.45 407.5C428.35 406.5 424.45 403.05 423.45 400.73C422.45 398.41 421.67 395.19 422.94 392.82C423.219 392.252 423.615 391.749 424.102 391.344C424.588 390.939 425.155 390.641 425.764 390.469C426.373 390.298 427.012 390.256 427.639 390.347C428.265 390.439 428.865 390.661 429.4 391C432.56 393.13 432.65 400 431.71 403.27C431.65 403.47 430.71 405.74 430.17 406.97C431.17 406.18 432.22 405.38 433.29 404.61C436.38 402.38 439.57 400.22 442.75 398.06L445.64 396.06C445.25 395.72 440.57 391.68 439.37 389.06C438.31 386.75 437.6 383.52 438.87 381.15C439.149 380.582 439.545 380.079 440.032 379.674C440.519 379.269 441.086 378.971 441.695 378.8C442.305 378.629 442.944 378.589 443.57 378.682C444.197 378.775 444.796 378.999 445.33 379.34C448.48 381.46 448.58 388.34 447.64 391.6C447.57 391.84 446.21 395.11 445.82 395.92C447.95 394.44 450.05 392.92 452.06 391.4C454.792 389.318 457.384 387.06 459.82 384.64C459.64 384.48 454.74 380.28 453.51 377.64C452.45 375.34 451.74 372.1 453.01 369.73C453.289 369.163 453.685 368.661 454.171 368.257C454.657 367.853 455.223 367.556 455.831 367.386C456.44 367.215 457.077 367.174 457.702 367.266C458.328 367.358 458.927 367.581 459.46 367.92C462.62 370.05 462.72 376.92 461.77 380.18C461.7 380.44 460.24 383.95 459.93 384.56L460.37 384.15C462.745 381.655 464.893 378.955 466.79 376.08C467.86 374.5 468.79 372.94 469.67 371.4C468.67 370.71 464.17 367.51 462.81 365.24C461.45 362.97 460.44 359.93 461.44 357.44C461.655 356.845 461.993 356.301 462.432 355.845C462.871 355.389 463.401 355.031 463.988 354.793C464.575 354.555 465.205 354.444 465.838 354.466C466.47 354.487 467.091 354.642 467.66 354.92C471.03 356.69 471.88 363.51 471.3 366.86C471.3 367.04 470.74 368.86 470.3 370.17C470.68 369.47 471.09 368.75 471.45 368.07C472.79 365.52 473.85 363.07 474.78 360.96C475.3 359.73 475.78 358.61 476.15 357.56C475.52 356.38 473.08 351.56 472.91 348.98C472.74 346.4 473.26 343.17 475.29 341.42C475.755 340.991 476.306 340.665 476.905 340.462C477.505 340.26 478.14 340.186 478.77 340.246C479.401 340.305 480.011 340.497 480.562 340.807C481.113 341.118 481.593 341.542 481.97 342.05C484.15 345.17 481.76 351.61 479.71 354.32C479.53 354.56 476.32 357.89 476.29 357.83V357.76C475.93 358.76 475.52 359.87 475.05 361.05C474.17 363.22 473.15 365.67 471.86 368.26C470.504 371.067 468.985 373.791 467.31 376.42C465.457 379.376 463.338 382.158 460.98 384.73L460.89 384.82C461.89 384.26 464.62 382.82 464.89 382.72C468.05 381.48 474.89 380.95 477.31 383.9C477.696 384.401 477.973 384.977 478.121 385.592C478.269 386.207 478.287 386.846 478.172 387.467C478.056 388.089 477.812 388.68 477.453 389.201C477.094 389.721 476.63 390.161 476.09 390.49C473.85 392 470.56 391.56 468.17 390.71Z" fill="#263238"/>
<path d="M418.73 344.46C418.66 344.46 419.73 339.96 419.82 339.68C420.97 336.48 425.09 330.98 428.89 331.11C429.521 331.15 430.137 331.322 430.697 331.616C431.257 331.909 431.749 332.317 432.142 332.813C432.534 333.309 432.818 333.882 432.974 334.495C433.131 335.108 433.156 335.747 433.05 336.37C432.69 339.04 430.21 341.24 428 342.48C425.4 343.94 418.73 344.46 418.73 344.46Z" fill="#263238"/>
<path d="M92.23 200.6L93.06 201.15" stroke="#263238" stroke-miterlimit="10"/>
<path d="M94.74 202.24L247.97 301.87" stroke="#263238" stroke-miterlimit="10" stroke-dasharray="2 2"/>
<path d="M248.81 302.42L249.64 302.96L249.1 302.13" stroke="#263238" stroke-miterlimit="10"/>
<path d="M248.02 300.46L116.58 98.36" stroke="#263238" stroke-miterlimit="10" stroke-dasharray="1.98 1.98"/>
<path d="M116.03 97.53L115.49 96.69" stroke="#263238" stroke-miterlimit="10"/>
<path d="M407.06 200.6L406.23 201.15" stroke="#263238" stroke-miterlimit="10"/>
<path d="M404.55 202.24L251.32 301.87" stroke="#263238" stroke-miterlimit="10" stroke-dasharray="2 2"/>
<path d="M250.48 302.42L249.64 302.96L250.19 302.13" stroke="#263238" stroke-miterlimit="10"/>
<path d="M251.27 300.46L382.71 98.36" stroke="#263238" stroke-miterlimit="10" stroke-dasharray="1.98 1.98"/>
<path d="M383.25 97.53L383.8 96.69" stroke="#263238" stroke-miterlimit="10"/>
<path d="M249.64 65.67V66.67" stroke="#263238" stroke-miterlimit="10"/>
<path d="M249.64 68.68V300.96" stroke="#263238" stroke-miterlimit="10" stroke-dasharray="2.01 2.01"/>
<path d="M249.64 301.96V302.96" stroke="#263238" stroke-miterlimit="10"/>
<path d="M251.51 91.9C268.493 91.9 282.26 78.1328 282.26 61.15C282.26 44.1672 268.493 30.4 251.51 30.4C234.527 30.4 220.76 44.1672 220.76 61.15C220.76 78.1328 234.527 91.9 251.51 91.9Z" fill="#263238" stroke="#263238" stroke-width="2" stroke-miterlimit="10"/>
<path d="M251.51 61.15L277.39 44.55C273.566 38.5971 267.811 34.141 261.09 31.93L251.51 61.15Z" fill="#9E7CE1" stroke="#263238" stroke-miterlimit="10"/>
<path d="M251.51 61.15L266 88.26C269.738 86.2561 273.021 83.5005 275.643 80.1666C278.265 76.8326 280.168 72.9923 281.234 68.8872C282.3 64.782 282.505 60.5007 281.837 56.3124C281.168 52.1241 279.641 48.1194 277.35 44.55L251.51 61.15Z" fill="white" stroke="#263238" stroke-miterlimit="10"/>
<path d="M400.412 118.232C412.417 106.227 412.417 86.7639 400.412 74.7592C388.408 62.7545 368.944 62.7545 356.939 74.7592C344.935 86.7639 344.935 106.227 356.939 118.232C368.944 130.237 388.408 130.237 400.412 118.232Z" stroke="#263238" stroke-miterlimit="10"/>
<path d="M378.67 123.15C393.388 123.15 405.32 111.218 405.32 96.5C405.32 81.7816 393.388 69.85 378.67 69.85C363.952 69.85 352.02 81.7816 352.02 96.5C352.02 111.218 363.952 123.15 378.67 123.15Z" fill="#263238"/>
<path d="M394 96.5L368.19 81.59V111.4L394 96.5Z" fill="white"/>
<path d="M453.921 204.25C458.048 187.02 447.426 169.707 430.196 165.58C412.966 161.453 395.653 172.075 391.526 189.305C387.399 206.535 398.021 223.848 415.251 227.975C432.481 232.102 449.794 221.48 453.921 204.25Z" fill="#263238"/>
<path d="M445.029 202.122C447.966 189.815 440.369 177.457 428.062 174.52C415.754 171.584 403.397 179.18 400.46 191.488C397.524 203.795 405.12 216.153 417.427 219.089C429.735 222.026 442.092 214.429 445.029 202.122Z" fill="white"/>
<path d="M436.08 199.949C437.834 192.561 433.267 185.149 425.879 183.394C418.49 181.639 411.079 186.206 409.324 193.595C407.569 200.983 412.136 208.395 419.524 210.15C426.913 211.905 434.325 207.337 436.08 199.949Z" fill="#263238"/>
<path d="M429.951 198.517C430.893 194.54 428.433 190.552 424.456 189.61C420.479 188.668 416.492 191.128 415.55 195.104C414.607 199.081 417.067 203.069 421.044 204.011C425.021 204.953 429.009 202.494 429.951 198.517Z" fill="white"/>
<path d="M463.6 181.4L459.52 179.81L461.3 178.94C461.403 178.893 461.496 178.826 461.572 178.743C461.649 178.659 461.708 178.562 461.747 178.455C461.785 178.349 461.802 178.235 461.796 178.122C461.79 178.009 461.762 177.898 461.713 177.796C461.663 177.695 461.594 177.603 461.509 177.529C461.424 177.454 461.325 177.397 461.218 177.361C461.11 177.325 460.997 177.31 460.884 177.319C460.771 177.327 460.661 177.358 460.56 177.41L459.27 178.04L461.32 173.6L453.71 177L452.6 181.27L422.35 196C422.249 196.049 422.159 196.117 422.085 196.201C422.011 196.285 421.954 196.383 421.918 196.489C421.882 196.595 421.867 196.707 421.874 196.819C421.881 196.93 421.91 197.04 421.96 197.14C422.007 197.241 422.074 197.332 422.157 197.407C422.239 197.482 422.337 197.539 422.442 197.575C422.548 197.612 422.659 197.626 422.771 197.619C422.882 197.611 422.991 197.581 423.09 197.53L453.44 182.75L456.75 184.62L463.6 181.4Z" fill="#263238"/>
<path d="M118.17 127.23C135.882 127.23 150.24 112.872 150.24 95.16C150.24 77.4482 135.882 63.09 118.17 63.09C100.458 63.09 86.1 77.4482 86.1 95.16C86.1 112.872 100.458 127.23 118.17 127.23Z" fill="white" stroke="#263238" stroke-width="2" stroke-miterlimit="10"/>
<path d="M118.17 127.23C131.016 127.23 141.43 112.872 141.43 95.16C141.43 77.4482 131.016 63.09 118.17 63.09C105.324 63.09 94.91 77.4482 94.91 95.16C94.91 112.872 105.324 127.23 118.17 127.23Z" fill="white" stroke="#263238" stroke-miterlimit="10"/>
<path d="M118.17 127.23C123.638 127.23 128.07 112.872 128.07 95.16C128.07 77.4482 123.638 63.09 118.17 63.09C112.702 63.09 108.27 77.4482 108.27 95.16C108.27 112.872 112.702 127.23 118.17 127.23Z" fill="white" stroke="#263238" stroke-miterlimit="10"/>
<path d="M101.18 68.07H135.73" stroke="#263238" stroke-miterlimit="10"/>
<path d="M89.56 80.64H146.73" stroke="#263238" stroke-miterlimit="10"/>
<path d="M86.26 93.2H150.18" stroke="#263238" stroke-miterlimit="10"/>
<path d="M87.67 105.77H148.3" stroke="#263238" stroke-miterlimit="10"/>
<path d="M96.31 118.33H140.6" stroke="#263238" stroke-miterlimit="10"/>
<path d="M76.19 228.86C93.9018 228.86 108.26 214.502 108.26 196.79C108.26 179.078 93.9018 164.72 76.19 164.72C58.4782 164.72 44.12 179.078 44.12 196.79C44.12 214.502 58.4782 228.86 76.19 228.86Z" fill="#263238" stroke="#263238" stroke-width="2" stroke-miterlimit="10"/>
<path d="M96.51 181.63H53.98V215.66H96.51V181.63Z" fill="white" stroke="#263238" stroke-width="2" stroke-miterlimit="10"/>
<path d="M99.17 181.63H51.32V195.45H99.17V181.63Z" fill="white" stroke="#263238" stroke-width="2" stroke-miterlimit="10"/>
<path d="M75.2 181.29C75.2 181.29 65.2 169.58 63.49 170.14C61.78 170.7 57.36 178.5 59.87 179.34C62.38 180.18 75.2 181.29 75.2 181.29Z" fill="#9E7CE1"/>
<path d="M75.29 181.29C75.29 181.29 85.29 169.58 87 170.14C88.71 170.7 93.14 178.5 90.63 179.34C88.12 180.18 75.29 181.29 75.29 181.29Z" fill="#9E7CE1"/>
<path d="M78.27 205.55L75.26 200.32L72.14 205.55V182.13H78.27V205.55Z" fill="#9E7CE1"/>
<path d="M90.39 285.14L249.53 195.57L412.57 285.14V414.99H92.35L90.39 285.14Z" fill="#263238" stroke="#263238" stroke-linecap="round" stroke-linejoin="round"/>
<path d="M370.6 219.73H132.38V431.59H370.6V219.73Z" fill="white" stroke="#263238" stroke-miterlimit="10"/>
<path d="M159.71 256.83H340.33" stroke="#263238" stroke-miterlimit="10"/>
<path d="M159.71 275.38H340.33" stroke="#263238" stroke-miterlimit="10"/>
<path d="M159.71 293.93H340.33" stroke="#263238" stroke-miterlimit="10"/>
<path d="M159.71 312.48H340.33" stroke="#263238" stroke-miterlimit="10"/>
<path d="M159.71 331.03H340.33" stroke="#263238" stroke-miterlimit="10"/>
<path d="M159.71 349.58H340.33" stroke="#263238" stroke-miterlimit="10"/>
<path d="M412.57 463.81H90.39V285.14L251.49 394.49L412.57 285.14V463.81Z" fill="#9E7CE1" stroke="#263238" stroke-miterlimit="10"/>
<path d="M90.39 463.81L207.53 364.6" stroke="#263238" stroke-miterlimit="10"/>
<path d="M412.06 463.81L295.79 364.44" stroke="#263238" stroke-miterlimit="10"/>
<path d="M286.33 160.67C286.33 160.67 285.12 166.33 286.74 168.15C288.36 169.97 294.42 176.44 294.42 177.45C294.42 178.46 292.42 207.58 292.42 207.58L283.12 200.91L277.46 218.3C277.46 218.3 291.61 224.37 298.29 225.58C304.97 226.79 306.17 224.97 306.17 219.72C306.17 214.47 300.91 174.22 300.91 174.22C300.91 174.22 302.53 164.92 302.53 163.3C302.53 161.68 303.14 160.87 301.72 160.06C300.3 159.25 288.78 158.06 288.78 158.06C288.78 158.06 286.33 159.05 286.33 160.67Z" fill="white" stroke="#263238" stroke-linecap="round" stroke-linejoin="round"/>
<path d="M283.33 203.36L280.26 218.94L277.44 218.3L283.33 203.36Z" fill="#263238" stroke="#263238" stroke-linecap="round" stroke-linejoin="round"/>
<path d="M306 165.21L283.09 162.13V156.42C283.09 156.155 283.195 155.9 283.383 155.713C283.57 155.525 283.825 155.42 284.09 155.42C284.355 155.42 284.61 155.525 284.797 155.713C284.985 155.9 285.09 156.155 285.09 156.42V160.42L304.24 163L304.57 158.38C304.549 158.232 304.561 158.082 304.606 157.939C304.651 157.797 304.727 157.666 304.829 157.557C304.931 157.448 305.056 157.363 305.195 157.309C305.333 157.254 305.483 157.232 305.632 157.242C305.781 157.253 305.925 157.297 306.055 157.371C306.184 157.444 306.296 157.546 306.381 157.669C306.466 157.791 306.523 157.931 306.547 158.079C306.571 158.226 306.562 158.377 306.52 158.52L306 165.21Z" fill="#263238"/>
<path d="M288.36 163.3L300.89 164.51L301.7 160.06L288.76 158.04L288.36 163.3Z" fill="white" stroke="#263238" stroke-linecap="round" stroke-linejoin="round"/>
<path d="M286.13 163.91C286.13 163.91 286.13 158.85 286.74 158.45C287.35 158.05 296.04 158.65 296.04 159.86C296.04 161.07 296.04 161.68 295.04 161.68C294.04 161.68 292.04 161.88 292.04 161.88C292.04 161.88 296.69 166.13 295.27 169.97" fill="white"/>
<path d="M286.13 163.91C286.13 163.91 286.13 158.85 286.74 158.45C287.35 158.05 296.04 158.65 296.04 159.86C296.04 161.07 296.04 161.68 295.04 161.68C294.04 161.68 292.04 161.88 292.04 161.88C292.04 161.88 296.69 166.13 295.27 169.97" stroke="#263238" stroke-linecap="round" stroke-linejoin="round"/>
<path d="M292.4 207.58L291.59 216.48" stroke="#263238" stroke-linecap="round" stroke-linejoin="round"/>
<path d="M189.71 203.7C189.71 203.7 161.13 226 161.87 228.41C162.61 230.82 183.81 251.09 190.82 256.06C197.83 261.03 201.7 263.26 201.7 263.26L206.12 266.02C206.12 266.02 204.28 269.02 205.39 269.53C206.5 270.04 210.55 272.11 211.1 271C211.65 269.89 214.61 261.6 214.24 259.57C213.87 257.54 203.17 255.88 202.44 255.14C201.71 254.4 184.18 227.14 184.18 227.14L197.83 216.45L189.71 203.7Z" fill="white" stroke="#263238" stroke-linecap="round" stroke-linejoin="round"/>
<path d="M189.22 204.44L194.41 218.51L197.83 216.42L189.22 204.44Z" fill="#263238" stroke="#263238" stroke-linecap="round" stroke-linejoin="round"/>
<path d="M206.12 266C206.12 266 207.42 268.77 209.63 269" stroke="#263238" stroke-linecap="round" stroke-linejoin="round"/>
<path d="M184.18 227.11L180.49 220.66" stroke="#263238" stroke-linecap="round" stroke-linejoin="round"/>
<path d="M208.71 429.02L208.41 445.41L221.84 445.7L223.03 427.84L208.71 429.02Z" fill="white" stroke="#263238" stroke-linecap="round" stroke-linejoin="round"/>
<path d="M208.76 428.13V432.18L222.69 432.83L223.01 428.62L208.76 428.13Z" fill="#263238" stroke="#263238" stroke-linecap="round" stroke-linejoin="round"/>
<path d="M215.05 441.13C215.05 441.13 213.28 434.19 210.62 434.04C207.96 433.89 206.62 435.96 205.62 437.88C204.62 439.8 198.09 446.29 195.87 447.88C193.65 449.47 188.79 451.57 188.05 456.29C187.31 461.01 190.11 462.94 192.05 463.38C193.99 463.82 202.68 463.97 207.85 463.38C213.02 462.79 227.11 464.19 227.93 463.38C228.75 462.57 229.85 459.98 229.11 458.21C228.53 456.921 227.837 455.687 227.04 454.52C227.04 454.52 228.52 450.24 227.63 447.88C226.74 445.52 224.97 442.56 225.27 441.23C225.57 439.9 228.81 437.1 226.6 436.95C224.39 436.8 220.84 439.46 218.6 440.2C217.449 440.621 216.26 440.933 215.05 441.13V441.13Z" fill="#263238" stroke="#263238" stroke-linecap="round" stroke-linejoin="round"/>
<path d="M224.5 455.15C222.43 455.45 214.5 459.28 209.44 460.47C204.38 461.66 200 461.79 197.63 460.61C195.26 459.43 193.2 455.89 191.43 453.67C189.66 451.45 188.19 457.07 188.19 457.07L187.94 457.18C187.64 461.29 190.22 463 192.02 463.42C193.82 463.84 202.65 464.01 207.82 463.42C212.99 462.83 227.08 464.23 227.9 463.42C228.72 462.61 229.82 460.02 229.08 458.25C228.5 456.961 227.807 455.727 227.01 454.56C226.13 454.41 226.57 454.86 224.5 455.15Z" fill="white" stroke="#263238" stroke-linecap="round" stroke-linejoin="round"/>
<path d="M203 442C203 442 207 441.12 212 446L209.35 448.21C209.35 448.21 204.18 444.21 200.93 444.21L203 442Z" fill="white" stroke="#263238" stroke-linecap="round" stroke-linejoin="round"/>
<path d="M199.26 445C199.26 445 203.26 444.11 208.26 449L205.61 451.22C205.61 451.22 200.44 447.22 197.19 447.22L199.26 445Z" fill="white" stroke="#263238" stroke-linecap="round" stroke-linejoin="round"/>
<path d="M210.92 444.52L215.05 441.13" stroke="#263238" stroke-linecap="round" stroke-linejoin="round"/>
<path d="M205.61 451.17C205.61 451.17 206.61 453.38 204.87 454.71C203.13 456.04 191.43 453.82 191.58 452.2C191.73 450.58 197.19 447.2 197.19 447.2C200.242 447.924 203.109 449.276 205.61 451.17V451.17Z" fill="white" stroke="#263238" stroke-linecap="round" stroke-linejoin="round"/>
<path d="M293.42 429.02L293.71 445.41L280.28 445.7L279.1 427.84L293.42 429.02Z" fill="white" stroke="#263238" stroke-linecap="round" stroke-linejoin="round"/>
<path d="M279.36 430.88V433.31L293.61 433.15L293.45 429.59L279.04 429.43L279.36 430.88Z" fill="#263238" stroke="#263238" stroke-linecap="round" stroke-linejoin="round"/>
<path d="M287.07 441.13C287.07 441.13 288.84 434.19 291.5 434.04C294.16 433.89 295.5 435.96 296.5 437.88C297.5 439.8 304.03 446.29 306.24 447.88C308.45 449.47 313.33 451.57 314.06 456.29C314.79 461.01 312 462.94 310.06 463.38C308.12 463.82 299.43 463.97 294.26 463.38C289.09 462.79 275 464.19 274.19 463.38C273.38 462.57 272.27 459.98 273 458.21C273.58 456.921 274.273 455.687 275.07 454.52C275.07 454.52 273.59 450.24 274.48 447.88C275.37 445.52 277.14 442.56 276.84 441.23C276.54 439.9 273.3 437.1 275.51 436.95C277.72 436.8 281.27 439.46 283.51 440.2C284.664 440.623 285.856 440.934 287.07 441.13V441.13Z" fill="#263238" stroke="#263238" stroke-linecap="round" stroke-linejoin="round"/>
<path d="M277.62 455.15C279.69 455.45 287.62 459.28 292.68 460.47C297.74 461.66 302.13 461.79 304.49 460.61C306.85 459.43 308.92 455.89 310.69 453.67C312.46 451.45 313.94 457.07 313.94 457.07L314.18 457.18C314.48 461.29 311.9 463 310.1 463.42C308.3 463.84 299.47 464.01 294.3 463.42C289.13 462.83 275.04 464.23 274.23 463.42C273.42 462.61 272.31 460.02 273.04 458.25C273.62 456.961 274.313 455.727 275.11 454.56C276 454.41 275.55 454.86 277.62 455.15Z" fill="white" stroke="#263238" stroke-linecap="round" stroke-linejoin="round"/>
<path d="M299.17 442C299.17 442 295.17 441.12 290.17 446L292.83 448.21C292.83 448.21 297.99 444.21 301.24 444.21L299.17 442Z" fill="white" stroke="#263238" stroke-linecap="round" stroke-linejoin="round"/>
<path d="M302.86 445C302.86 445 298.86 444.11 293.86 449L296.52 451.22C296.52 451.22 301.68 447.22 304.93 447.22L302.86 445Z" fill="white" stroke="#263238" stroke-linecap="round" stroke-linejoin="round"/>
<path d="M291.2 444.52L287.07 441.13" stroke="#263238" stroke-linecap="round" stroke-linejoin="round"/>
<path d="M296.52 451.17C296.52 451.17 295.52 453.38 297.25 454.71C298.98 456.04 310.69 453.82 310.54 452.2C310.39 450.58 304.93 447.2 304.93 447.2C301.881 447.924 299.016 449.276 296.52 451.17V451.17Z" fill="white" stroke="#263238" stroke-linecap="round" stroke-linejoin="round"/>
<path d="M214.88 256C214.88 256 207.07 287.89 204.14 314.91C201.21 341.93 196.65 430.44 196.65 430.44H232.45C232.45 430.44 243.19 340.61 244.82 324.67C246.45 308.73 246.44 298.67 246.44 298.67L266.62 430.48H309.25C309.25 430.48 292.98 346.84 286.47 308.48C279.96 270.12 270.85 255.11 270.85 255.11L214.88 256Z" fill="#B0B0B0" stroke="#263238" stroke-linecap="round" stroke-linejoin="round"/>
<path d="M245.47 258.31C245.16 259.24 236.68 271.98 239.28 272.95C241.88 273.92 246.77 273.95 246.77 271.33V260.91C246.77 260.91 247.42 275.56 250.35 274.91C253.28 274.26 257.18 274.91 256.21 271.65C255.24 268.39 247.75 258 247.75 258C247.75 258 246.44 255.38 245.47 258.31Z" fill="#B0B0B0" stroke="#263238" stroke-linecap="round" stroke-linejoin="round"/>
<path d="M246.81 259.38C246.81 259.38 254.19 269.86 253.48 270.81C252.77 271.76 251.81 272.71 251.1 271.29C250.39 269.87 246.81 259.38 246.81 259.38Z" stroke="#263238" stroke-miterlimit="10"/>
<path d="M246.57 258.19C246.57 258.19 241.09 269.86 241.81 270.33C242.067 270.489 242.358 270.584 242.659 270.608C242.96 270.631 243.262 270.583 243.541 270.467C243.819 270.351 244.066 270.169 244.261 269.939C244.455 269.708 244.592 269.434 244.66 269.14C245.14 267.48 246.57 258.19 246.57 258.19Z" stroke="#263238" stroke-miterlimit="10"/>
<path d="M268.81 291.45C269.11 293.1 269.37 294.66 269.55 296.06" stroke="#263238" stroke-linecap="round" stroke-linejoin="round"/>
<path d="M261.09 259.29C261.09 259.29 265.15 273.79 267.76 286.1" stroke="#263238" stroke-linecap="round" stroke-linejoin="round"/>
<path d="M258.16 259.29C258.16 259.29 260.76 277.51 262.06 282.39" stroke="#263238" stroke-linecap="round" stroke-linejoin="round"/>
<path d="M222.74 284.52C222.6 285.78 222.48 286.93 222.36 287.92" stroke="#263238" stroke-linecap="round" stroke-linejoin="round"/>
<path d="M225.29 259.29C225.29 259.29 224.21 270.42 223.29 279.62" stroke="#263238" stroke-linecap="round" stroke-linejoin="round"/>
<path d="M222.69 259.94L221.38 275.56" stroke="#263238" stroke-linecap="round" stroke-linejoin="round"/>
<path d="M245.49 126.5C245.49 126.5 257.62 127.71 254.79 133.98C251.96 140.25 249.13 141.46 248.52 141.46C247.91 141.46 243.06 133.98 243.06 133.98L245.49 126.5Z" fill="#263238" stroke="#263238" stroke-linecap="round" stroke-linejoin="round"/>
<path d="M244.07 132.36C244.07 132.36 248.72 134.99 250.14 139.84C251.56 144.69 255.19 146.11 256.21 145.91C257.23 145.71 258.63 148.74 257.42 150.76L256.21 152.76C256.21 152.76 257.21 166.51 256 168.33C254.79 170.15 247.31 169.14 247.31 169.14C247.31 169.14 245.69 175.61 247.11 179.66C248.53 183.71 252.77 185.72 254.39 185.72C256.01 185.72 259.44 183.72 264.09 186.13C268.74 188.54 284.31 200.28 284.31 200.28L276 223L267.1 218.35L273.37 256.97L212.71 258.39C212.71 258.39 213.32 230.89 211.71 225.83C210.585 222.477 209.163 219.23 207.46 216.13L199.78 222.19L189.06 203.59C189.06 203.59 204.83 187.82 211.06 186.4C217.29 184.98 224.81 186.81 227.24 183.77C229.67 180.73 227.64 166.38 227.64 166.38C227.64 166.38 221.78 164.38 218.34 154.05C214.9 143.72 226.63 133.05 226.63 133.05C226.63 133.05 231.94 127.51 244.07 132.36Z" fill="white" stroke="#263238" stroke-linecap="round" stroke-linejoin="round"/>
<path d="M247.31 169.16L241.84 168.24L246.23 173.29L247.31 169.16Z" fill="#263238" stroke="#263238" stroke-linecap="round" stroke-linejoin="round"/>
<path d="M244.74 143.31C244.74 143.31 244.74 139.47 248.18 139.47" stroke="#263238" stroke-width="2" stroke-linecap="round" stroke-linejoin="round"/>
<path d="M253.78 157.23L246.7 153.79C246.7 153.79 246.1 161.07 248.7 160.87C251.3 160.67 253.78 157.23 253.78 157.23Z" fill="#263238" stroke="#263238" stroke-linecap="round" stroke-linejoin="round"/>
<path d="M246.85 147.06C246.85 147.06 249.13 144.59 251.03 146.68" stroke="#263238" stroke-linecap="round" stroke-linejoin="round"/>
<path d="M246.65 156.1L253.01 158.17C253.283 157.871 253.54 157.557 253.78 157.23L246.7 153.8C246.7 153.8 246.62 154.83 246.65 156.1Z" fill="white" stroke="#263238" stroke-linecap="round" stroke-linejoin="round"/>
<path d="M207.07 141.06C207.07 141.06 202.62 131.96 196.35 132.97C190.08 133.98 185.23 140.85 187.25 150.56C187.25 150.56 188.25 153.19 189.07 155.41C189.07 155.41 181.19 152.99 176.94 158.24C172.69 163.49 175.94 168.96 180.78 171.59C185.62 174.22 188.47 174.02 188.47 174.02C188.47 174.02 177.75 177.25 181.59 181.3C185.43 185.35 197.16 182.71 194.73 179.3C192.3 175.89 190.49 176.3 190.49 176.3C190.49 176.3 200.19 172.66 199.18 170.03C198.17 167.4 193.32 165.38 193.32 165.38C193.32 165.38 202.62 168.62 207.68 165.58C212.74 162.54 208.28 149.58 208.28 149.58L207.07 141.06Z" fill="#263238" stroke="#263238" stroke-linecap="round" stroke-linejoin="round"/>
<path d="M247.71 122.05C247.71 122.05 249.33 127.71 246.5 132.56C243.67 137.41 237.6 145.71 236.79 155.01C235.98 164.31 238.61 175.84 240.23 179.68C241.85 183.52 238.23 184.33 235.58 184.13C232.93 183.93 231.94 182.31 231.94 178.67C231.94 175.03 231.13 168.56 231.13 168.56C231.13 168.56 220.82 167.56 215.97 164.71C211.12 161.86 204.04 152.18 207.07 141.06C210.1 129.94 218.19 126.7 223.07 124.68C227.95 122.66 234.6 122.86 239.25 121.85C243.9 120.84 247.51 119.62 247.71 122.05Z" fill="#263238" stroke="#263238" stroke-linecap="round" stroke-linejoin="round"/>
<path d="M233 150.36L231.18 157.64C231.18 157.64 227.34 155.82 226.73 152.58C226.12 149.34 230.73 147.73 234.01 150.58" fill="white"/>
<path d="M233 150.36L231.18 157.64C231.18 157.64 227.34 155.82 226.73 152.58C226.12 149.34 230.73 147.73 234.01 150.58" stroke="#263238" stroke-linecap="round" stroke-linejoin="round"/>
<path d="M292 161.88L289.37 162.09" stroke="#263238" stroke-linecap="round" stroke-linejoin="round"/>
<path d="M273.08 156.04L340.48 165.47L331.32 115.61L271 144.66L273.08 156.04Z" fill="#9E7CE1" stroke="#263238" stroke-linecap="round" stroke-linejoin="round"/>
<path d="M270.996 144.662L260.982 146.493L263.053 157.825L273.067 155.994L270.996 144.662Z" fill="#9E7CE1" stroke="#263238" stroke-linecap="round" stroke-linejoin="round"/>
<path d="M284.31 200.3C284.31 200.3 268.74 188.57 264.09 186.15C259.44 183.73 256.09 185.69 254.46 185.74C252.292 188.862 249.373 191.388 245.972 193.085C242.571 194.782 238.798 195.595 235 195.45C221.7 195.28 218 187.88 217.2 185.72C215.165 185.739 213.136 185.95 211.14 186.35C204.87 187.77 189.14 203.54 189.14 203.54L199.86 222.14L207.54 216.08C209.243 219.18 210.665 222.427 211.79 225.78C213.41 230.84 212.79 258.34 212.79 258.34L273.45 256.92L267.18 218.3L276 223L284.31 200.3Z" fill="#263238" stroke="#263238" stroke-linecap="round" stroke-linejoin="round"/>
<path d="M245.931 238.813C255.957 236.426 262.149 226.365 259.763 216.339C257.376 206.314 247.314 200.121 237.289 202.508C227.263 204.894 221.071 214.956 223.457 224.982C225.844 235.007 235.906 241.2 245.931 238.813Z" stroke="white" stroke-miterlimit="10"/>
<path d="M253.01 212.2H230.88L241.79 222.71L253.01 212.2Z" fill="#9E7CE1"/>
<path d="M246.22 220.39L253.92 227.19V213.17L246.22 220.39Z" fill="#9E7CE1"/>
<path d="M237.44 220.37L229.64 212.85V226.87L237.44 220.37Z" fill="#9E7CE1"/>
<path d="M245.24 221.3L241.78 224.55L238.41 221.3L230.29 228.07H252.9L245.24 221.3Z" fill="#9E7CE1"/>
</svg>
