<svg width="500" height="500" viewBox="0 0 500 500" fill="none" xmlns="http://www.w3.org/2000/svg">
<path d="M462.58 133.69C462.58 133.69 368.27 32.78 257.42 21.35C146.57 9.92001 94.07 76.57 79.48 123.22C64.89 169.87 19.2 273.64 27 323.15C34.8 372.66 81.43 390.74 134.9 430.73C188.37 470.72 256.45 500.22 313.82 468.81C371.19 437.4 456.75 386 469.39 338.38C482.03 290.76 497.59 180.34 462.58 133.69Z" fill="#9E7CE1"/>
<path opacity="0.8" d="M462.58 133.69C462.58 133.69 368.27 32.78 257.42 21.35C146.57 9.92001 94.07 76.57 79.48 123.22C64.89 169.87 19.2 273.64 27 323.15C34.8 372.66 81.43 390.74 134.9 430.73C188.37 470.72 256.45 500.22 313.82 468.81C371.19 437.4 456.75 386 469.39 338.38C482.03 290.76 497.59 180.34 462.58 133.69Z" fill="white"/>
<path opacity="0.2" d="M403.78 40.91H115.84C110.196 40.91 105.62 45.4857 105.62 51.13V334.43C105.62 340.074 110.196 344.65 115.84 344.65H403.78C409.424 344.65 414 340.074 414 334.43V51.13C414 45.4857 409.424 40.91 403.78 40.91Z" fill="black"/>
<path d="M409.78 33.91H121.84C116.196 33.91 111.62 38.4857 111.62 44.13V327.43C111.62 333.074 116.196 337.65 121.84 337.65H409.78C415.424 337.65 420 333.074 420 327.43V44.13C420 38.4857 415.424 33.91 409.78 33.91Z" fill="white"/>
<path d="M409.78 338.15H121.84C118.998 338.147 116.273 337.017 114.263 335.007C112.253 332.997 111.123 330.272 111.12 327.43V44.13C111.123 41.2877 112.253 38.5626 114.263 36.5527C116.273 34.5429 118.998 33.4127 121.84 33.41H409.78C412.622 33.4127 415.347 34.5429 417.357 36.5527C419.367 38.5626 420.497 41.2877 420.5 44.13V327.43C420.497 330.272 419.367 332.997 417.357 335.007C415.347 337.017 412.622 338.147 409.78 338.15V338.15ZM121.84 34.41C119.263 34.4127 116.792 35.4376 114.97 37.2598C113.148 39.0821 112.123 41.5529 112.12 44.13V327.43C112.123 330.007 113.148 332.478 114.97 334.3C116.792 336.122 119.263 337.147 121.84 337.15H409.78C412.357 337.147 414.828 336.122 416.65 334.3C418.472 332.478 419.497 330.007 419.5 327.43V44.13C419.497 41.5529 418.472 39.0821 416.65 37.2598C414.828 35.4376 412.357 34.4127 409.78 34.41H121.84Z" fill="#263238"/>
<path d="M420 44.13V65.32H111.62V44.13C111.619 42.7875 111.882 41.458 112.395 40.2174C112.908 38.9769 113.661 37.8497 114.61 36.9004C115.56 35.9512 116.687 35.1984 117.927 34.6853C119.168 34.1721 120.498 33.9087 121.84 33.91H409.78C411.122 33.9087 412.452 34.1721 413.693 34.6853C414.933 35.1984 416.06 35.9512 417.01 36.9004C417.959 37.8497 418.712 38.9769 419.225 40.2174C419.738 41.458 420.001 42.7875 420 44.13Z" fill="#9E7CE1"/>
<path d="M420 65.82H111.62C111.487 65.82 111.36 65.7673 111.266 65.6736C111.173 65.5798 111.12 65.4526 111.12 65.32V44.13C111.123 41.2877 112.253 38.5626 114.263 36.5527C116.273 34.5429 118.998 33.4127 121.84 33.41H409.78C412.622 33.4127 415.347 34.5429 417.357 36.5527C419.367 38.5626 420.497 41.2877 420.5 44.13V65.32C420.5 65.4526 420.447 65.5798 420.354 65.6736C420.26 65.7673 420.133 65.82 420 65.82ZM112.12 64.82H419.5V44.13C419.497 41.5529 418.472 39.0821 416.65 37.2598C414.828 35.4376 412.357 34.4127 409.78 34.41H121.84C119.263 34.4127 116.792 35.4376 114.97 37.2598C113.148 39.0821 112.123 41.5529 112.12 44.13V64.82Z" fill="#263238"/>
<path d="M313.34 51.83H149.41V61.27H313.34V51.83Z" fill="white"/>
<path d="M313.33 61.78H149.41C149.277 61.78 149.15 61.7273 149.056 61.6336C148.963 61.5398 148.91 61.4126 148.91 61.28V51.83C148.91 51.6974 148.963 51.5702 149.056 51.4765C149.15 51.3827 149.277 51.33 149.41 51.33H313.33C313.463 51.33 313.59 51.3827 313.684 51.4765C313.777 51.5702 313.83 51.6974 313.83 51.83V61.28C313.83 61.4126 313.777 61.5398 313.684 61.6336C313.59 61.7273 313.463 61.78 313.33 61.78ZM149.91 60.78H312.83V52.33H149.91V60.78Z" fill="#263238"/>
<path d="M420 44.13V48.77H111.62V44.13C111.619 42.7875 111.882 41.458 112.395 40.2174C112.908 38.9769 113.661 37.8497 114.61 36.9004C115.56 35.9512 116.687 35.1984 117.927 34.6853C119.168 34.1721 120.498 33.9087 121.84 33.91H409.78C411.122 33.9087 412.452 34.1721 413.693 34.6853C414.933 35.1984 416.06 35.9512 417.01 36.9004C417.959 37.8497 418.712 38.9769 419.225 40.2174C419.738 41.458 420.001 42.7875 420 44.13Z" fill="#263238"/>
<path d="M420 49.27H111.62C111.487 49.27 111.36 49.2173 111.266 49.1236C111.173 49.0298 111.12 48.9026 111.12 48.77V44.13C111.123 41.2877 112.253 38.5626 114.263 36.5527C116.273 34.5429 118.998 33.4127 121.84 33.41H409.78C412.622 33.4127 415.347 34.5429 417.357 36.5527C419.367 38.5626 420.497 41.2877 420.5 44.13V48.77C420.5 48.9026 420.447 49.0298 420.354 49.1236C420.26 49.2173 420.133 49.27 420 49.27ZM112.12 48.27H419.5V44.13C419.497 41.5529 418.472 39.0821 416.65 37.2598C414.828 35.4376 412.357 34.4127 409.78 34.41H121.84C119.263 34.4127 116.792 35.4376 114.97 37.2598C113.148 39.0821 112.123 41.5529 112.12 44.13V48.27Z" fill="#263238"/>
<path d="M394 41.34C394 40.6043 393.782 39.885 393.373 39.2733C392.964 38.6615 392.383 38.1847 391.704 37.9032C391.024 37.6216 390.276 37.5479 389.554 37.6915C388.833 37.835 388.17 38.1893 387.65 38.7096C387.129 39.2298 386.775 39.8927 386.632 40.6143C386.488 41.3359 386.562 42.0838 386.843 42.7636C387.125 43.4433 387.602 44.0243 388.213 44.4331C388.825 44.8418 389.544 45.06 390.28 45.06C391.267 45.06 392.213 44.6681 392.91 43.9704C393.608 43.2728 394 42.3266 394 41.34V41.34Z" fill="white"/>
<path d="M390.27 45.56C389.435 45.56 388.62 45.3125 387.926 44.8488C387.232 44.3851 386.691 43.726 386.371 42.9549C386.052 42.1838 385.968 41.3353 386.131 40.5167C386.294 39.6981 386.696 38.9462 387.286 38.356C387.876 37.7658 388.628 37.3639 389.447 37.2011C390.265 37.0383 391.114 37.1218 391.885 37.4412C392.656 37.7606 393.315 38.3015 393.779 38.9955C394.243 39.6895 394.49 40.5054 394.49 41.34C394.487 42.4584 394.042 43.5302 393.251 44.3211C392.46 45.1119 391.388 45.5574 390.27 45.56V45.56ZM390.27 38.12C389.633 38.12 389.011 38.3088 388.481 38.6627C387.952 39.0165 387.539 39.5194 387.295 40.1078C387.051 40.6961 386.988 41.3436 387.112 41.9682C387.236 42.5928 387.543 43.1666 387.993 43.6169C388.443 44.0672 389.017 44.3739 389.642 44.4981C390.266 44.6224 390.914 44.5586 391.502 44.3149C392.091 44.0712 392.594 43.6585 392.947 43.1289C393.301 42.5994 393.49 41.9769 393.49 41.34C393.49 40.9171 393.407 40.4984 393.245 40.1078C393.083 39.7171 392.846 39.3621 392.547 39.0631C392.248 38.7641 391.893 38.5269 391.502 38.3651C391.112 38.2033 390.693 38.12 390.27 38.12V38.12Z" fill="#263238"/>
<path d="M404.13 41.34C404.13 40.6038 403.912 39.8842 403.502 39.2723C403.093 38.6603 402.512 38.1835 401.831 37.9022C401.151 37.621 400.402 37.5479 399.681 37.6922C398.959 37.8366 398.296 38.1919 397.776 38.7131C397.256 39.2344 396.903 39.8982 396.76 40.6204C396.618 41.3427 396.693 42.091 396.976 42.7705C397.259 43.4501 397.737 44.0304 398.351 44.4379C398.964 44.8455 399.684 45.062 400.42 45.06C401.405 45.0574 402.348 44.6643 403.044 43.9669C403.739 43.2696 404.13 42.3249 404.13 41.34V41.34Z" fill="white"/>
<path d="M400.42 45.56C399.585 45.562 398.768 45.3162 398.073 44.8537C397.377 44.3912 396.835 43.7328 396.514 42.9619C396.193 42.191 396.108 41.3421 396.27 40.5229C396.432 39.7036 396.833 38.9508 397.422 38.3596C398.012 37.7684 398.764 37.3655 399.583 37.2018C400.402 37.0382 401.251 37.1212 402.023 37.4403C402.794 37.7594 403.454 38.3003 403.918 38.9945C404.382 39.6887 404.63 40.505 404.63 41.34C404.627 42.4567 404.183 43.527 403.395 44.3176C402.606 45.1081 401.537 45.5547 400.42 45.56V45.56ZM400.42 38.12C399.783 38.118 399.159 38.3052 398.628 38.6578C398.097 39.0104 397.683 39.5126 397.438 40.1008C397.193 40.689 397.128 41.3368 397.251 41.9621C397.374 42.5873 397.68 43.162 398.13 43.6133C398.579 44.0647 399.153 44.3723 399.778 44.4974C400.403 44.6225 401.051 44.5593 401.64 44.3159C402.229 44.0724 402.732 43.6597 403.087 43.13C403.441 42.6002 403.63 41.9773 403.63 41.34C403.627 40.4886 403.289 39.6726 402.687 39.0696C402.086 38.4665 401.271 38.1253 400.42 38.12V38.12Z" fill="#263238"/>
<path d="M414.28 41.34C414.28 40.6043 414.062 39.885 413.653 39.2733C413.244 38.6615 412.663 38.1847 411.984 37.9032C411.304 37.6216 410.556 37.5479 409.834 37.6915C409.113 37.835 408.45 38.1893 407.93 38.7096C407.409 39.2298 407.055 39.8927 406.911 40.6143C406.768 41.3359 406.842 42.0838 407.123 42.7636C407.405 43.4433 407.882 44.0243 408.493 44.4331C409.105 44.8418 409.824 45.06 410.56 45.06C411.546 45.0574 412.49 44.6646 413.188 43.9675C413.885 43.2705 414.277 42.3258 414.28 41.34V41.34Z" fill="white"/>
<path d="M410.56 45.56C409.725 45.56 408.909 45.3125 408.215 44.8488C407.521 44.3851 406.981 43.726 406.661 42.9549C406.342 42.1838 406.258 41.3353 406.421 40.5167C406.584 39.6981 406.986 38.9462 407.576 38.356C408.166 37.7658 408.918 37.3639 409.737 37.2011C410.555 37.0383 411.404 37.1218 412.175 37.4412C412.946 37.7606 413.605 38.3015 414.069 38.9955C414.532 39.6895 414.78 40.5054 414.78 41.34C414.777 42.4584 414.332 43.5302 413.541 44.3211C412.75 45.1119 411.678 45.5574 410.56 45.56V45.56ZM410.56 38.12C409.923 38.12 409.301 38.3088 408.771 38.6627C408.242 39.0165 407.829 39.5194 407.585 40.1078C407.341 40.6961 407.278 41.3436 407.402 41.9682C407.526 42.5928 407.833 43.1666 408.283 43.6169C408.733 44.0672 409.307 44.3739 409.932 44.4981C410.556 44.6224 411.204 44.5586 411.792 44.3149C412.381 44.0712 412.883 43.6585 413.237 43.1289C413.591 42.5994 413.78 41.9769 413.78 41.34C413.78 40.9171 413.697 40.4984 413.535 40.1078C413.373 39.7171 413.136 39.3621 412.837 39.0631C412.538 38.7641 412.183 38.5269 411.792 38.3651C411.402 38.2033 410.983 38.12 410.56 38.12V38.12Z" fill="#263238"/>
<path d="M143.23 158.88H135.85L129.23 110.59H134.47L140.13 151.7L145.51 110.7H150.82L156.13 151.81L161.58 110.63H166.27L159.72 158.92H152.61L148 126.11L143.23 158.88Z" fill="#263238"/>
<path d="M278.25 115.75H242.72C242.588 115.747 242.462 115.694 242.369 115.601C242.276 115.508 242.223 115.382 242.22 115.25C242.22 115.117 242.273 114.99 242.366 114.896C242.46 114.803 242.587 114.75 242.72 114.75H278.25C278.383 114.75 278.51 114.803 278.604 114.896C278.697 114.99 278.75 115.117 278.75 115.25C278.75 115.383 278.697 115.51 278.604 115.604C278.51 115.697 278.383 115.75 278.25 115.75Z" fill="#263238"/>
<path d="M237.15 115.75H195.15C195.017 115.75 194.89 115.697 194.796 115.604C194.703 115.51 194.65 115.383 194.65 115.25C194.65 115.117 194.703 114.99 194.796 114.896C194.89 114.803 195.017 114.75 195.15 114.75H237.15C237.283 114.75 237.41 114.803 237.504 114.896C237.597 114.99 237.65 115.117 237.65 115.25C237.65 115.383 237.597 115.51 237.504 115.604C237.41 115.697 237.283 115.75 237.15 115.75Z" fill="#263238"/>
<path d="M190.41 115.75H175.72C175.587 115.75 175.46 115.697 175.366 115.604C175.273 115.51 175.22 115.383 175.22 115.25C175.22 115.117 175.273 114.99 175.366 114.896C175.46 114.803 175.587 114.75 175.72 114.75H190.41C190.543 114.75 190.67 114.803 190.764 114.896C190.857 114.99 190.91 115.117 190.91 115.25C190.91 115.383 190.857 115.51 190.764 115.604C190.67 115.697 190.543 115.75 190.41 115.75Z" fill="#263238"/>
<path d="M278.25 126.54H255.59C255.457 126.54 255.33 126.487 255.236 126.394C255.143 126.3 255.09 126.173 255.09 126.04C255.09 125.907 255.143 125.78 255.236 125.686C255.33 125.593 255.457 125.54 255.59 125.54H278.25C278.383 125.54 278.51 125.593 278.604 125.686C278.697 125.78 278.75 125.907 278.75 126.04C278.75 126.173 278.697 126.3 278.604 126.394C278.51 126.487 278.383 126.54 278.25 126.54Z" fill="#263238"/>
<path d="M249.58 126.54H204.13C203.997 126.54 203.87 126.487 203.776 126.394C203.683 126.3 203.63 126.173 203.63 126.04C203.63 125.907 203.683 125.78 203.776 125.686C203.87 125.593 203.997 125.54 204.13 125.54H249.58C249.713 125.54 249.84 125.593 249.934 125.686C250.027 125.78 250.08 125.907 250.08 126.04C250.08 126.173 250.027 126.3 249.934 126.394C249.84 126.487 249.713 126.54 249.58 126.54V126.54Z" fill="#263238"/>
<path d="M199 126.54H175.72C175.587 126.54 175.46 126.487 175.366 126.394C175.273 126.3 175.22 126.173 175.22 126.04C175.22 125.907 175.273 125.78 175.366 125.686C175.46 125.593 175.587 125.54 175.72 125.54H199C199.133 125.54 199.26 125.593 199.354 125.686C199.447 125.78 199.5 125.907 199.5 126.04C199.5 126.173 199.447 126.3 199.354 126.394C199.26 126.487 199.133 126.54 199 126.54Z" fill="#263238"/>
<path d="M278.25 137.33H202.85C202.717 137.33 202.59 137.277 202.496 137.184C202.403 137.09 202.35 136.963 202.35 136.83C202.35 136.697 202.403 136.57 202.496 136.476C202.59 136.383 202.717 136.33 202.85 136.33H278.25C278.383 136.33 278.51 136.383 278.604 136.476C278.697 136.57 278.75 136.697 278.75 136.83C278.75 136.963 278.697 137.09 278.604 137.184C278.51 137.277 278.383 137.33 278.25 137.33Z" fill="#263238"/>
<path d="M196 137.33H175.72C175.587 137.33 175.46 137.277 175.366 137.184C175.273 137.09 175.22 136.963 175.22 136.83C175.22 136.697 175.273 136.57 175.366 136.476C175.46 136.383 175.587 136.33 175.72 136.33H196C196.132 136.333 196.257 136.386 196.351 136.479C196.444 136.573 196.497 136.698 196.5 136.83C196.5 136.963 196.447 137.09 196.354 137.184C196.26 137.277 196.133 137.33 196 137.33Z" fill="#263238"/>
<path d="M278.25 148.13H225.15C225.017 148.13 224.89 148.077 224.796 147.984C224.703 147.89 224.65 147.763 224.65 147.63C224.65 147.497 224.703 147.37 224.796 147.276C224.89 147.183 225.017 147.13 225.15 147.13H278.25C278.383 147.13 278.51 147.183 278.604 147.276C278.697 147.37 278.75 147.497 278.75 147.63C278.75 147.763 278.697 147.89 278.604 147.984C278.51 148.077 278.383 148.13 278.25 148.13Z" fill="#263238"/>
<path d="M218.71 148.13H175.71C175.577 148.13 175.45 148.077 175.356 147.984C175.263 147.89 175.21 147.763 175.21 147.63C175.21 147.497 175.263 147.37 175.356 147.276C175.45 147.183 175.577 147.13 175.71 147.13H218.71C218.843 147.13 218.97 147.183 219.064 147.276C219.157 147.37 219.21 147.497 219.21 147.63C219.21 147.763 219.157 147.89 219.064 147.984C218.97 148.077 218.843 148.13 218.71 148.13Z" fill="#263238"/>
<path d="M278.25 158.92H265.45C265.317 158.92 265.19 158.867 265.096 158.774C265.003 158.68 264.95 158.553 264.95 158.42C264.95 158.287 265.003 158.16 265.096 158.066C265.19 157.973 265.317 157.92 265.45 157.92H278.25C278.383 157.92 278.51 157.973 278.603 158.066C278.697 158.16 278.75 158.287 278.75 158.42C278.75 158.553 278.697 158.68 278.603 158.774C278.51 158.867 278.383 158.92 278.25 158.92Z" fill="#263238"/>
<path d="M259.88 158.92H228.15C228.017 158.92 227.89 158.867 227.796 158.774C227.703 158.68 227.65 158.553 227.65 158.42C227.65 158.287 227.703 158.16 227.796 158.066C227.89 157.973 228.017 157.92 228.15 157.92H259.88C260.013 157.92 260.14 157.973 260.234 158.066C260.327 158.16 260.38 158.287 260.38 158.42C260.38 158.553 260.327 158.68 260.234 158.774C260.14 158.867 260.013 158.92 259.88 158.92Z" fill="#263238"/>
<path d="M223.86 158.92H198.56C198.427 158.92 198.3 158.867 198.206 158.774C198.113 158.68 198.06 158.553 198.06 158.42C198.06 158.287 198.113 158.16 198.206 158.066C198.3 157.973 198.427 157.92 198.56 157.92H223.86C223.993 157.92 224.12 157.973 224.213 158.066C224.307 158.16 224.36 158.287 224.36 158.42C224.36 158.553 224.307 158.68 224.213 158.774C224.12 158.867 223.993 158.92 223.86 158.92Z" fill="#263238"/>
<path d="M191.7 158.92H175.7C175.567 158.92 175.44 158.867 175.346 158.774C175.253 158.68 175.2 158.553 175.2 158.42C175.2 158.287 175.253 158.16 175.346 158.066C175.44 157.973 175.567 157.92 175.7 157.92H191.7C191.833 157.92 191.96 157.973 192.054 158.066C192.147 158.16 192.2 158.287 192.2 158.42C192.2 158.553 192.147 158.68 192.054 158.774C191.96 158.867 191.833 158.92 191.7 158.92Z" fill="#263238"/>
<path d="M405.08 170.39H374.36C374.227 170.39 374.1 170.337 374.006 170.244C373.913 170.15 373.86 170.023 373.86 169.89C373.86 169.757 373.913 169.63 374.006 169.536C374.1 169.443 374.227 169.39 374.36 169.39H405.08C405.213 169.39 405.34 169.443 405.434 169.536C405.527 169.63 405.58 169.757 405.58 169.89C405.58 169.956 405.567 170.021 405.542 170.081C405.517 170.142 405.48 170.197 405.434 170.244C405.387 170.29 405.332 170.327 405.271 170.352C405.211 170.377 405.146 170.39 405.08 170.39Z" fill="#263238"/>
<path d="M368.78 170.39H297.61C297.477 170.39 297.35 170.337 297.256 170.244C297.163 170.15 297.11 170.023 297.11 169.89C297.11 169.757 297.163 169.63 297.256 169.536C297.35 169.443 297.477 169.39 297.61 169.39H368.78C368.913 169.39 369.04 169.443 369.134 169.536C369.227 169.63 369.28 169.757 369.28 169.89C369.28 170.023 369.227 170.15 369.134 170.244C369.04 170.337 368.913 170.39 368.78 170.39Z" fill="#263238"/>
<path d="M293.32 170.39H232.86C232.728 170.387 232.602 170.334 232.509 170.241C232.416 170.148 232.363 170.022 232.36 169.89C232.36 169.757 232.413 169.63 232.506 169.536C232.6 169.443 232.727 169.39 232.86 169.39H293.32C293.453 169.39 293.58 169.443 293.674 169.536C293.767 169.63 293.82 169.757 293.82 169.89C293.82 170.023 293.767 170.15 293.674 170.244C293.58 170.337 293.453 170.39 293.32 170.39Z" fill="#263238"/>
<path d="M226.86 170.39H162.12C161.987 170.39 161.86 170.337 161.766 170.244C161.673 170.15 161.62 170.023 161.62 169.89C161.62 169.757 161.673 169.63 161.766 169.536C161.86 169.443 161.987 169.39 162.12 169.39H226.86C226.993 169.39 227.12 169.443 227.214 169.536C227.307 169.63 227.36 169.757 227.36 169.89C227.36 170.023 227.307 170.15 227.214 170.244C227.12 170.337 226.993 170.39 226.86 170.39Z" fill="#263238"/>
<path d="M155.68 170.39H129.84C129.708 170.387 129.582 170.334 129.489 170.241C129.396 170.148 129.343 170.022 129.34 169.89C129.34 169.757 129.393 169.63 129.486 169.536C129.58 169.443 129.707 169.39 129.84 169.39H155.68C155.813 169.39 155.94 169.443 156.034 169.536C156.127 169.63 156.18 169.757 156.18 169.89C156.18 170.023 156.127 170.15 156.034 170.244C155.94 170.337 155.813 170.39 155.68 170.39Z" fill="#263238"/>
<path d="M405.08 181.86H319.48C319.347 181.86 319.22 181.807 319.126 181.714C319.033 181.62 318.98 181.493 318.98 181.36C318.98 181.227 319.033 181.1 319.126 181.006C319.22 180.913 319.347 180.86 319.48 180.86H405.08C405.213 180.86 405.34 180.913 405.434 181.006C405.527 181.1 405.58 181.227 405.58 181.36C405.58 181.426 405.567 181.491 405.542 181.551C405.517 181.612 405.48 181.667 405.434 181.714C405.387 181.76 405.332 181.797 405.271 181.822C405.211 181.847 405.146 181.86 405.08 181.86Z" fill="#263238"/>
<path d="M315.19 181.86H305.75C305.618 181.857 305.493 181.804 305.399 181.711C305.306 181.617 305.253 181.492 305.25 181.36C305.25 181.227 305.303 181.1 305.396 181.006C305.49 180.913 305.617 180.86 305.75 180.86H315.19C315.323 180.86 315.45 180.913 315.544 181.006C315.637 181.1 315.69 181.227 315.69 181.36C315.687 181.492 315.634 181.617 315.541 181.711C315.447 181.804 315.322 181.857 315.19 181.86Z" fill="#263238"/>
<path d="M301 181.86H283.46C283.327 181.86 283.2 181.807 283.106 181.714C283.013 181.62 282.96 181.493 282.96 181.36C282.96 181.227 283.013 181.1 283.106 181.006C283.2 180.913 283.327 180.86 283.46 180.86H301C301.133 180.86 301.26 180.913 301.354 181.006C301.447 181.1 301.5 181.227 301.5 181.36C301.497 181.492 301.444 181.617 301.351 181.711C301.257 181.804 301.132 181.857 301 181.86V181.86Z" fill="#263238"/>
<path d="M278.74 181.86H217.86C217.727 181.86 217.6 181.807 217.506 181.714C217.413 181.62 217.36 181.493 217.36 181.36C217.36 181.227 217.413 181.1 217.506 181.006C217.6 180.913 217.727 180.86 217.86 180.86H278.74C278.873 180.86 279 180.913 279.094 181.006C279.187 181.1 279.24 181.227 279.24 181.36C279.24 181.493 279.187 181.62 279.094 181.714C279 181.807 278.873 181.86 278.74 181.86Z" fill="#263238"/>
<path d="M211.42 181.86H129.84C129.708 181.857 129.582 181.804 129.489 181.711C129.396 181.617 129.343 181.492 129.34 181.36C129.34 181.227 129.393 181.1 129.486 181.006C129.58 180.913 129.707 180.86 129.84 180.86H211.42C211.553 180.86 211.68 180.913 211.774 181.006C211.867 181.1 211.92 181.227 211.92 181.36C211.92 181.426 211.907 181.491 211.882 181.551C211.857 181.612 211.82 181.667 211.774 181.714C211.727 181.76 211.672 181.797 211.611 181.822C211.551 181.847 211.486 181.86 211.42 181.86Z" fill="#263238"/>
<path d="M405.08 193.32H385.08C384.947 193.32 384.82 193.267 384.726 193.174C384.633 193.08 384.58 192.953 384.58 192.82C384.58 192.687 384.633 192.56 384.726 192.466C384.82 192.373 384.947 192.32 385.08 192.32H405.08C405.213 192.32 405.34 192.373 405.434 192.466C405.527 192.56 405.58 192.687 405.58 192.82C405.58 192.953 405.527 193.08 405.434 193.174C405.34 193.267 405.213 193.32 405.08 193.32Z" fill="#263238"/>
<path d="M377.79 193.32H307C306.867 193.32 306.74 193.267 306.646 193.174C306.553 193.08 306.5 192.953 306.5 192.82C306.5 192.687 306.553 192.56 306.646 192.466C306.74 192.373 306.867 192.32 307 192.32H377.75C377.883 192.32 378.01 192.373 378.104 192.466C378.197 192.56 378.25 192.687 378.25 192.82C378.25 192.946 378.203 193.067 378.118 193.16C378.033 193.253 377.916 193.31 377.79 193.32Z" fill="#263238"/>
<path d="M301.9 193.32H207.57C207.437 193.32 207.31 193.267 207.216 193.174C207.123 193.08 207.07 192.953 207.07 192.82C207.07 192.687 207.123 192.56 207.216 192.466C207.31 192.373 207.437 192.32 207.57 192.32H301.9C302.032 192.323 302.157 192.376 302.251 192.469C302.344 192.563 302.397 192.688 302.4 192.82C302.4 192.953 302.347 193.08 302.253 193.174C302.16 193.267 302.033 193.32 301.9 193.32Z" fill="#263238"/>
<path d="M202 193.32H146.68C146.547 193.32 146.42 193.267 146.326 193.174C146.233 193.08 146.18 192.953 146.18 192.82C146.18 192.687 146.233 192.56 146.326 192.466C146.42 192.373 146.547 192.32 146.68 192.32H202C202.133 192.32 202.26 192.373 202.353 192.466C202.447 192.56 202.5 192.687 202.5 192.82C202.5 192.953 202.447 193.08 202.353 193.174C202.26 193.267 202.133 193.32 202 193.32Z" fill="#263238"/>
<path d="M141.1 193.32H129.84C129.707 193.32 129.58 193.267 129.486 193.174C129.393 193.08 129.34 192.953 129.34 192.82C129.343 192.688 129.396 192.563 129.489 192.469C129.582 192.376 129.708 192.323 129.84 192.32H141.1C141.233 192.32 141.36 192.373 141.454 192.466C141.547 192.56 141.6 192.687 141.6 192.82C141.6 192.953 141.547 193.08 141.454 193.174C141.36 193.267 141.233 193.32 141.1 193.32Z" fill="#263238"/>
<path d="M405.08 204.79H272.31C272.177 204.79 272.05 204.737 271.957 204.644C271.863 204.55 271.81 204.423 271.81 204.29C271.81 204.157 271.863 204.03 271.957 203.936C272.05 203.843 272.177 203.79 272.31 203.79H405.08C405.213 203.79 405.34 203.843 405.434 203.936C405.527 204.03 405.58 204.157 405.58 204.29C405.58 204.423 405.527 204.55 405.434 204.644C405.34 204.737 405.213 204.79 405.08 204.79Z" fill="#263238"/>
<path d="M268 204.79H153.54C153.407 204.79 153.28 204.737 153.186 204.644C153.093 204.55 153.04 204.423 153.04 204.29C153.04 204.157 153.093 204.03 153.186 203.936C153.28 203.843 153.407 203.79 153.54 203.79H268C268.133 203.79 268.26 203.843 268.354 203.936C268.447 204.03 268.5 204.157 268.5 204.29C268.5 204.423 268.447 204.55 268.354 204.644C268.26 204.737 268.133 204.79 268 204.79Z" fill="#263238"/>
<path d="M148.82 204.79H129.82C129.687 204.79 129.56 204.737 129.466 204.644C129.373 204.55 129.32 204.423 129.32 204.29C129.323 204.158 129.376 204.032 129.469 203.939C129.562 203.846 129.688 203.793 129.82 203.79H148.82C148.953 203.79 149.08 203.843 149.173 203.936C149.267 204.03 149.32 204.157 149.32 204.29C149.32 204.423 149.267 204.55 149.173 204.644C149.08 204.737 148.953 204.79 148.82 204.79Z" fill="#263238"/>
<path d="M405.08 216.26H378.65C378.517 216.26 378.39 216.207 378.296 216.114C378.203 216.02 378.15 215.893 378.15 215.76C378.15 215.627 378.203 215.5 378.296 215.406C378.39 215.313 378.517 215.26 378.65 215.26H405.08C405.213 215.26 405.34 215.313 405.434 215.406C405.527 215.5 405.58 215.627 405.58 215.76C405.58 215.893 405.527 216.02 405.434 216.114C405.34 216.207 405.213 216.26 405.08 216.26Z" fill="#263238"/>
<path d="M371.36 216.26H312.62C312.487 216.26 312.36 216.207 312.266 216.114C312.173 216.02 312.12 215.893 312.12 215.76C312.12 215.627 312.173 215.5 312.266 215.406C312.36 215.313 312.487 215.26 312.62 215.26H371.36C371.493 215.26 371.62 215.313 371.714 215.406C371.807 215.5 371.86 215.627 371.86 215.76C371.86 215.893 371.807 216.02 371.714 216.114C371.62 216.207 371.493 216.26 371.36 216.26Z" fill="#263238"/>
<path d="M306.18 216.26H250.87C250.737 216.26 250.61 216.207 250.516 216.114C250.423 216.02 250.37 215.893 250.37 215.76C250.37 215.627 250.423 215.5 250.516 215.406C250.61 215.313 250.737 215.26 250.87 215.26H306.18C306.313 215.26 306.44 215.313 306.534 215.406C306.627 215.5 306.68 215.627 306.68 215.76C306.68 215.893 306.627 216.02 306.534 216.114C306.44 216.207 306.313 216.26 306.18 216.26Z" fill="#263238"/>
<path d="M243.58 216.26H193.42C193.287 216.26 193.16 216.207 193.066 216.114C192.973 216.02 192.92 215.893 192.92 215.76C192.92 215.627 192.973 215.5 193.066 215.406C193.16 215.313 193.287 215.26 193.42 215.26H243.58C243.713 215.26 243.84 215.313 243.934 215.406C244.027 215.5 244.08 215.627 244.08 215.76C244.08 215.893 244.027 216.02 243.934 216.114C243.84 216.207 243.713 216.26 243.58 216.26V216.26Z" fill="#263238"/>
<path d="M186.56 216.26H129.84C129.707 216.26 129.58 216.207 129.486 216.114C129.393 216.02 129.34 215.893 129.34 215.76C129.34 215.627 129.393 215.5 129.486 215.406C129.58 215.313 129.707 215.26 129.84 215.26H186.56C186.693 215.26 186.82 215.313 186.914 215.406C187.007 215.5 187.06 215.627 187.06 215.76C187.06 215.893 187.007 216.02 186.914 216.114C186.82 216.207 186.693 216.26 186.56 216.26Z" fill="#263238"/>
<path d="M405.08 227.73H341.34C341.207 227.73 341.08 227.677 340.986 227.584C340.893 227.49 340.84 227.363 340.84 227.23C340.84 227.097 340.893 226.97 340.986 226.876C341.08 226.783 341.207 226.73 341.34 226.73H405.08C405.213 226.73 405.34 226.783 405.434 226.876C405.527 226.97 405.58 227.097 405.58 227.23C405.58 227.363 405.527 227.49 405.434 227.584C405.34 227.677 405.213 227.73 405.08 227.73Z" fill="#263238"/>
<path d="M333.2 227.73H281.74C281.607 227.73 281.48 227.677 281.386 227.584C281.293 227.49 281.24 227.363 281.24 227.23C281.24 227.097 281.293 226.97 281.386 226.876C281.48 226.783 281.607 226.73 281.74 226.73H333.2C333.333 226.73 333.46 226.783 333.554 226.876C333.647 226.97 333.7 227.097 333.7 227.23C333.7 227.363 333.647 227.49 333.554 227.584C333.46 227.677 333.333 227.73 333.2 227.73Z" fill="#263238"/>
<path d="M276.6 227.73H207.6C207.467 227.73 207.34 227.677 207.246 227.584C207.153 227.49 207.1 227.363 207.1 227.23C207.1 227.097 207.153 226.97 207.246 226.876C207.34 226.783 207.467 226.73 207.6 226.73H276.6C276.733 226.73 276.86 226.783 276.954 226.876C277.047 226.97 277.1 227.097 277.1 227.23C277.1 227.363 277.047 227.49 276.954 227.584C276.86 227.677 276.733 227.73 276.6 227.73Z" fill="#263238"/>
<path d="M203.28 227.73H193.42C193.287 227.73 193.16 227.677 193.066 227.584C192.973 227.49 192.92 227.363 192.92 227.23C192.92 227.097 192.973 226.97 193.066 226.876C193.16 226.783 193.287 226.73 193.42 226.73H203.28C203.413 226.73 203.54 226.783 203.634 226.876C203.727 226.97 203.78 227.097 203.78 227.23C203.78 227.363 203.727 227.49 203.634 227.584C203.54 227.677 203.413 227.73 203.28 227.73V227.73Z" fill="#263238"/>
<path d="M187.41 227.73H129.84C129.707 227.73 129.58 227.677 129.486 227.584C129.393 227.49 129.34 227.363 129.34 227.23C129.34 227.097 129.393 226.97 129.486 226.876C129.58 226.783 129.707 226.73 129.84 226.73H187.41C187.543 226.73 187.67 226.783 187.764 226.876C187.857 226.97 187.91 227.097 187.91 227.23C187.91 227.363 187.857 227.49 187.764 227.584C187.67 227.677 187.543 227.73 187.41 227.73Z" fill="#263238"/>
<path d="M405.08 239.2H397.94C397.808 239.197 397.682 239.144 397.589 239.051C397.496 238.958 397.443 238.832 397.44 238.7C397.44 238.567 397.493 238.44 397.586 238.346C397.68 238.253 397.807 238.2 397.94 238.2H405.08C405.213 238.2 405.34 238.253 405.434 238.346C405.527 238.44 405.58 238.567 405.58 238.7C405.58 238.833 405.527 238.96 405.434 239.054C405.34 239.147 405.213 239.2 405.08 239.2Z" fill="#263238"/>
<path d="M391.51 239.2H362.35C362.218 239.197 362.092 239.144 361.999 239.051C361.906 238.958 361.853 238.832 361.85 238.7C361.85 238.567 361.903 238.44 361.996 238.346C362.09 238.253 362.217 238.2 362.35 238.2H391.51C391.643 238.2 391.77 238.253 391.864 238.346C391.957 238.44 392.01 238.567 392.01 238.7C392.01 238.833 391.957 238.96 391.864 239.054C391.77 239.147 391.643 239.2 391.51 239.2Z" fill="#263238"/>
<path d="M357.21 239.2H349.06C348.927 239.2 348.8 239.147 348.707 239.054C348.613 238.96 348.56 238.833 348.56 238.7C348.56 238.567 348.613 238.44 348.707 238.346C348.8 238.253 348.927 238.2 349.06 238.2H357.21C357.343 238.2 357.47 238.253 357.564 238.346C357.657 238.44 357.71 238.567 357.71 238.7C357.707 238.832 357.654 238.958 357.561 239.051C357.468 239.144 357.342 239.197 357.21 239.2Z" fill="#263238"/>
<path d="M342.63 239.2H295C294.867 239.2 294.74 239.147 294.646 239.054C294.553 238.96 294.5 238.833 294.5 238.7C294.5 238.567 294.553 238.44 294.646 238.346C294.74 238.253 294.867 238.2 295 238.2H342.59C342.723 238.2 342.85 238.253 342.944 238.346C343.037 238.44 343.09 238.567 343.09 238.7C343.09 238.826 343.043 238.947 342.958 239.04C342.873 239.133 342.756 239.19 342.63 239.2Z" fill="#263238"/>
<path d="M287.75 239.2H254.3C254.168 239.197 254.043 239.144 253.949 239.051C253.856 238.958 253.803 238.832 253.8 238.7C253.8 238.567 253.853 238.44 253.946 238.346C254.04 238.253 254.167 238.2 254.3 238.2H287.75C287.883 238.2 288.01 238.253 288.104 238.346C288.197 238.44 288.25 238.567 288.25 238.7C288.247 238.832 288.194 238.958 288.101 239.051C288.008 239.144 287.882 239.197 287.75 239.2V239.2Z" fill="#263238"/>
<path d="M247.44 239.2H205.85C205.717 239.2 205.59 239.147 205.496 239.054C205.403 238.96 205.35 238.833 205.35 238.7C205.35 238.567 205.403 238.44 205.496 238.346C205.59 238.253 205.717 238.2 205.85 238.2H247.44C247.573 238.2 247.7 238.253 247.794 238.346C247.887 238.44 247.94 238.567 247.94 238.7C247.94 238.833 247.887 238.96 247.794 239.054C247.7 239.147 247.573 239.2 247.44 239.2Z" fill="#263238"/>
<path d="M199.85 239.2H178C177.867 239.2 177.74 239.147 177.646 239.054C177.553 238.96 177.5 238.833 177.5 238.7C177.5 238.567 177.553 238.44 177.646 238.346C177.74 238.253 177.867 238.2 178 238.2H199.87C200.003 238.2 200.13 238.253 200.224 238.346C200.317 238.44 200.37 238.567 200.37 238.7C200.369 238.767 200.354 238.833 200.327 238.894C200.301 238.956 200.262 239.011 200.214 239.058C200.165 239.104 200.108 239.141 200.046 239.165C199.984 239.189 199.917 239.201 199.85 239.2Z" fill="#263238"/>
<path d="M172.41 239.2H165.55C165.417 239.2 165.29 239.147 165.196 239.054C165.103 238.96 165.05 238.833 165.05 238.7C165.05 238.567 165.103 238.44 165.196 238.346C165.29 238.253 165.417 238.2 165.55 238.2H172.41C172.543 238.2 172.67 238.253 172.764 238.346C172.857 238.44 172.91 238.567 172.91 238.7C172.907 238.832 172.854 238.958 172.761 239.051C172.668 239.144 172.542 239.197 172.41 239.2V239.2Z" fill="#263238"/>
<path d="M158.68 239.2H129.84C129.708 239.197 129.582 239.144 129.489 239.051C129.396 238.958 129.343 238.832 129.34 238.7C129.34 238.567 129.393 238.44 129.486 238.346C129.58 238.253 129.707 238.2 129.84 238.2H158.68C158.813 238.2 158.94 238.253 159.034 238.346C159.127 238.44 159.18 238.567 159.18 238.7C159.18 238.833 159.127 238.96 159.034 239.054C158.94 239.147 158.813 239.2 158.68 239.2Z" fill="#263238"/>
<path d="M404.4 78.14H287.7V159.09H404.4V78.14Z" fill="white"/>
<path d="M404.4 159.59H287.7C287.567 159.59 287.44 159.537 287.346 159.444C287.253 159.35 287.2 159.223 287.2 159.09V78.14C287.203 78.0082 287.256 77.8825 287.349 77.7893C287.442 77.6961 287.568 77.6426 287.7 77.64H404.4C404.533 77.64 404.66 77.6927 404.753 77.7865C404.847 77.8802 404.9 78.0074 404.9 78.14V159.14C404.887 159.264 404.829 159.378 404.737 159.462C404.644 159.545 404.524 159.591 404.4 159.59ZM288.2 158.59H403.9V78.64H288.2V158.59Z" fill="#263238"/>
<path d="M404.4 109.25V159.09H287.7L330.2 113.22L355.83 132.79L385.51 94.33L404.4 109.25Z" fill="#9E7CE1"/>
<path d="M404.4 159.59H287.7C287.604 159.591 287.509 159.563 287.429 159.509C287.349 159.456 287.286 159.379 287.25 159.29C287.21 159.201 287.197 159.102 287.213 159.006C287.229 158.91 287.273 158.821 287.34 158.75L329.83 112.88C329.923 112.799 330.042 112.755 330.165 112.755C330.288 112.755 330.407 112.799 330.5 112.88L355.74 132.14L385.12 94C385.158 93.9461 385.207 93.9012 385.264 93.8684C385.321 93.8356 385.385 93.8156 385.45 93.81C385.515 93.801 385.582 93.8052 385.645 93.8223C385.709 93.8395 385.768 93.8693 385.82 93.91L404.71 108.83C404.77 108.876 404.818 108.935 404.851 109.003C404.884 109.07 404.9 109.145 404.9 109.22V159.06C404.904 159.128 404.894 159.196 404.871 159.261C404.848 159.325 404.811 159.383 404.765 159.433C404.718 159.483 404.661 159.522 404.599 159.549C404.536 159.576 404.468 159.59 404.4 159.59ZM288.85 158.59H403.85V109.49L385.6 95L356.23 133.05C356.149 133.155 356.03 133.223 355.899 133.24C355.767 133.256 355.635 133.221 355.53 133.14L330.26 113.9L288.85 158.59Z" fill="#263238"/>
<path d="M307.94 111.19C313.899 111.19 318.73 106.359 318.73 100.4C318.73 94.4409 313.899 89.61 307.94 89.61C301.981 89.61 297.15 94.4409 297.15 100.4C297.15 106.359 301.981 111.19 307.94 111.19Z" fill="#9E7CE1"/>
<path d="M307.94 111.7C305.705 111.702 303.519 111.041 301.659 109.8C299.8 108.56 298.35 106.796 297.493 104.731C296.636 102.667 296.411 100.394 296.846 98.2016C297.281 96.009 298.356 93.9946 299.936 92.4132C301.516 90.8319 303.53 89.7547 305.722 89.3179C307.914 88.881 310.187 89.1042 312.252 89.9592C314.317 90.8142 316.083 92.2625 317.325 94.121C318.567 95.9795 319.23 98.1647 319.23 100.4C319.227 103.394 318.037 106.266 315.921 108.384C313.805 110.502 310.934 111.695 307.94 111.7ZM307.94 90.11C305.902 90.108 303.909 90.7107 302.214 91.8417C300.519 92.9727 299.197 94.5813 298.416 96.4637C297.635 98.3462 297.43 100.418 297.827 102.417C298.225 104.416 299.206 106.252 300.647 107.693C302.088 109.134 303.924 110.115 305.923 110.513C307.922 110.91 309.994 110.705 311.876 109.924C313.759 109.143 315.367 107.822 316.498 106.126C317.629 104.431 318.232 102.438 318.23 100.4C318.225 97.6726 317.139 95.0583 315.21 93.1297C313.282 91.2011 310.667 90.1153 307.94 90.11V90.11Z" fill="#263238"/>
<path d="M212.6 262.41H133.95C131.559 262.41 129.62 264.349 129.62 266.74V287.8C129.62 290.191 131.559 292.13 133.95 292.13H212.6C214.991 292.13 216.93 290.191 216.93 287.8V266.74C216.93 264.349 214.991 262.41 212.6 262.41Z" fill="#9E7CE1"/>
<path d="M212.6 292.63H134C132.72 292.627 131.493 292.118 130.588 291.212C129.682 290.307 129.173 289.08 129.17 287.8V266.74C129.173 265.46 129.682 264.233 130.588 263.328C131.493 262.422 132.72 261.913 134 261.91H212.6C213.881 261.91 215.11 262.419 216.015 263.325C216.921 264.231 217.43 265.459 217.43 266.74V287.8C217.43 289.081 216.921 290.31 216.015 291.215C215.11 292.121 213.881 292.63 212.6 292.63V292.63ZM134 262.91C132.985 262.913 132.012 263.317 131.295 264.035C130.577 264.752 130.173 265.725 130.17 266.74V287.8C130.173 288.815 130.577 289.788 131.295 290.505C132.012 291.223 132.985 291.627 134 291.63H212.6C213.615 291.627 214.588 291.223 215.305 290.505C216.023 289.788 216.427 288.815 216.43 287.8V266.74C216.427 265.725 216.023 264.752 215.305 264.035C214.588 263.317 213.615 262.913 212.6 262.91H134Z" fill="#263238"/>
<path d="M150.33 269.65C152.6 269.65 153.57 270.99 153.57 273.18V274.92C153.57 277.21 152.5 278.41 150.2 278.41H148.78V284.12H147.17V269.65H150.33ZM150.2 277C151.4 277 151.98 276.44 151.98 275V273.1C151.98 271.78 151.51 271.1 150.33 271.1H148.78V277H150.2Z" fill="#263238"/>
<path d="M156.42 280.71C156.42 282.01 156.94 282.79 158.12 282.79C159.3 282.79 159.79 282.01 159.79 280.71V269.65H161.3V280.65C161.3 282.84 160.3 284.31 158.06 284.31C155.82 284.31 154.83 282.84 154.83 280.65V269.65H156.42V280.71Z" fill="#263238"/>
<path d="M166.13 269.65C168.39 269.65 169.27 270.73 169.27 272.85V273.54C169.27 275.07 168.84 276.02 167.58 276.41C168.98 276.8 169.52 277.92 169.52 279.51V280.73C169.52 282.9 168.47 284.12 166.22 284.12H162.89V269.65H166.13ZM165.74 275.79C167.02 275.79 167.68 275.37 167.68 273.87V273C167.68 271.72 167.25 271.1 166.09 271.1H164.5V275.77L165.74 275.79ZM166.22 282.65C167.39 282.65 167.93 282.03 167.93 280.65V279.4C167.93 277.79 167.29 277.26 165.93 277.26H164.5V282.65H166.22Z" fill="#263238"/>
<path d="M171 284.12V269.65H172.61V282.65H176.74V284.12H171Z" fill="#263238"/>
<path d="M179.56 269.65V284.12H178V269.65H179.56Z" fill="#263238"/>
<path d="M187.47 273.12V273.52H185.94V273C185.94 271.7 185.45 270.93 184.29 270.93C183.13 270.93 182.64 271.7 182.64 272.93C182.64 276.17 187.49 276.48 187.49 280.55C187.49 282.74 186.44 284.17 184.23 284.17C182.02 284.17 180.98 282.74 180.98 280.55V279.73H182.49V280.64C182.49 281.94 183.03 282.7 184.19 282.7C185.35 282.7 185.88 281.94 185.88 280.64C185.88 277.41 181.05 277.1 181.05 273.03C181.05 270.8 182.05 269.42 184.25 269.42C186.45 269.42 187.47 270.93 187.47 273.12Z" fill="#263238"/>
<path d="M190.51 277.61V284.12H188.9V269.65H190.51V276.16H194.06V269.65H195.68V284.12H194.06V277.61H190.51Z" fill="#263238"/>
<path d="M141.89 314.2L141.33 292.68C141.319 292.494 141.256 292.315 141.149 292.162C141.042 292.01 140.894 291.891 140.722 291.818C140.551 291.745 140.362 291.722 140.178 291.75C139.994 291.779 139.821 291.859 139.68 291.98L123.9 306.62C123.783 306.733 123.695 306.873 123.644 307.028C123.593 307.183 123.581 307.348 123.609 307.509C123.636 307.67 123.703 307.821 123.802 307.951C123.902 308.08 124.032 308.182 124.18 308.25L130.64 310.97L127.2 319.14L130.63 320.59L134.07 312.41L140.53 315.13C140.681 315.188 140.844 315.209 141.005 315.19C141.166 315.172 141.321 315.114 141.454 315.023C141.588 314.931 141.698 314.808 141.774 314.665C141.85 314.522 141.889 314.362 141.89 314.2Z" fill="#263238"/>
<path d="M130.63 321.08C130.564 321.09 130.496 321.09 130.43 321.08L127 319.6C126.939 319.576 126.883 319.539 126.837 319.493C126.791 319.447 126.754 319.391 126.73 319.33C126.68 319.208 126.68 319.072 126.73 318.95L129.98 311.24L123.98 308.71C123.75 308.614 123.548 308.463 123.392 308.268C123.237 308.074 123.133 307.843 123.09 307.598C123.047 307.353 123.067 307.101 123.147 306.865C123.227 306.629 123.366 306.418 123.55 306.25L139.33 291.61C139.539 291.415 139.8 291.284 140.081 291.234C140.362 291.184 140.652 291.217 140.915 291.328C141.179 291.439 141.404 291.624 141.565 291.86C141.725 292.096 141.814 292.374 141.82 292.66L142.38 314.19C142.385 314.437 142.328 314.682 142.214 314.902C142.101 315.122 141.934 315.31 141.73 315.45C141.526 315.59 141.289 315.677 141.043 315.701C140.796 315.726 140.548 315.687 140.32 315.59L134.32 313.07L131.08 320.78C131.042 320.868 130.979 320.943 130.899 320.996C130.819 321.049 130.726 321.078 130.63 321.08ZM127.85 318.88L130.36 319.93L133.61 312.22C133.634 312.159 133.67 312.103 133.716 312.056C133.762 312.01 133.817 311.973 133.878 311.947C133.938 311.922 134.003 311.909 134.069 311.91C134.135 311.91 134.2 311.924 134.26 311.95L140.72 314.67C140.795 314.701 140.876 314.713 140.956 314.704C141.037 314.695 141.114 314.666 141.18 314.62C141.249 314.577 141.304 314.516 141.341 314.444C141.378 314.372 141.395 314.291 141.39 314.21V314.21L140.83 292.69C140.83 292.597 140.803 292.507 140.751 292.43C140.7 292.354 140.626 292.294 140.54 292.26C140.454 292.221 140.359 292.209 140.266 292.225C140.173 292.241 140.088 292.285 140.02 292.35L124.24 307C124.177 307.053 124.13 307.122 124.104 307.199C124.077 307.277 124.073 307.36 124.09 307.44C124.104 307.52 124.138 307.594 124.189 307.657C124.239 307.72 124.305 307.769 124.38 307.8L130.84 310.52C130.96 310.573 131.054 310.67 131.103 310.792C131.151 310.913 131.15 311.049 131.1 311.17L127.85 318.88Z" fill="#263238"/>
<path d="M140.78 312L140.23 290.48C140.219 290.293 140.155 290.113 140.047 289.96C139.938 289.807 139.789 289.688 139.616 289.616C139.443 289.544 139.253 289.522 139.068 289.553C138.883 289.584 138.711 289.666 138.57 289.79L122.79 304.43C122.675 304.544 122.59 304.684 122.541 304.839C122.492 304.993 122.482 305.157 122.51 305.316C122.539 305.475 122.605 305.625 122.705 305.753C122.804 305.881 122.933 305.983 123.08 306.05L129.53 308.77L126.09 316.95L129.52 318.39L132.96 310.22L139.42 312.94C139.572 312.999 139.736 313.019 139.898 313C140.06 312.981 140.215 312.922 140.349 312.83C140.483 312.737 140.592 312.613 140.667 312.468C140.743 312.324 140.781 312.163 140.78 312Z" fill="white"/>
<path d="M129.52 318.85C129.454 318.864 129.386 318.864 129.32 318.85L125.9 317.41C125.839 317.385 125.783 317.348 125.736 317.301C125.689 317.254 125.652 317.198 125.627 317.137C125.602 317.075 125.589 317.009 125.589 316.943C125.59 316.877 125.604 316.811 125.63 316.75L128.88 309.04L122.88 306.51C122.652 306.416 122.452 306.265 122.299 306.073C122.145 305.881 122.042 305.653 122 305.41C121.956 305.165 121.973 304.913 122.052 304.677C122.131 304.441 122.268 304.229 122.45 304.06L138.23 289.42C138.44 289.226 138.701 289.097 138.983 289.047C139.264 288.998 139.554 289.03 139.818 289.141C140.081 289.252 140.307 289.436 140.469 289.672C140.631 289.907 140.721 290.184 140.73 290.47L141.28 311.99C141.289 312.237 141.235 312.482 141.123 312.703C141.011 312.923 140.845 313.111 140.64 313.25C140.434 313.391 140.197 313.479 139.949 313.505C139.701 313.531 139.451 313.495 139.22 313.4L133.22 310.87L130 318.54C129.976 318.601 129.939 318.657 129.893 318.703C129.847 318.749 129.791 318.786 129.73 318.81C129.665 318.841 129.592 318.855 129.52 318.85V318.85ZM126.75 316.64L129.25 317.7L132.5 310C132.552 309.878 132.648 309.782 132.77 309.73C132.892 309.68 133.028 309.68 133.15 309.73L139.61 312.45C139.684 312.482 139.764 312.495 139.844 312.487C139.924 312.48 140.001 312.453 140.068 312.408C140.134 312.363 140.189 312.302 140.226 312.231C140.263 312.16 140.282 312.08 140.28 312V312L139.73 290.47C139.728 290.377 139.699 290.286 139.646 290.209C139.592 290.133 139.517 290.074 139.43 290.04C139.344 290.004 139.249 289.993 139.157 290.009C139.065 290.025 138.979 290.067 138.91 290.13L123.13 304.77C123.071 304.825 123.026 304.894 123 304.971C122.973 305.048 122.967 305.13 122.98 305.21C122.993 305.29 123.027 305.365 123.078 305.428C123.129 305.491 123.195 305.54 123.27 305.57L129.73 308.29C129.852 308.342 129.948 308.438 130 308.56C130.05 308.685 130.05 308.825 130 308.95L126.75 316.64Z" fill="#263238"/>
<path d="M327.53 221.42C327.53 221.42 305.82 242.76 305.82 252.33C305.82 261.9 318.7 264.84 319.44 267.78C320.18 270.72 305.82 312.31 304 317.83C302.18 323.35 334.55 353.89 366.56 349.83C398.57 345.77 409.24 327.39 409.24 327.39C409.24 327.39 398.94 299.79 396.73 287.28C394.52 274.77 400.05 260.41 396.73 246.06C393.41 231.71 384.57 208.91 375 204.86C365.43 200.81 336.73 211.85 327.53 221.42Z" fill="#263238"/>
<path d="M341.52 303.11C341.52 303.11 329.01 307.52 319.44 309.73C309.87 311.94 300.3 313.73 299.2 314.88C298.1 316.03 246.2 361.25 243.27 365.3C240.34 369.35 244.37 381.12 252.84 382.59C261.31 384.06 264.24 380.02 264.24 380.02C264.24 380.02 269.76 380.02 271.97 377.07C273.596 375.028 275.448 373.176 277.49 371.55L301.04 360.55C301.04 360.55 296.99 381.16 298.83 385.55C300.67 389.94 303.62 402.84 303.62 405.42C303.62 408 302.14 424.18 302.14 424.18H388.25C388.25 424.18 414.38 335.87 414.38 332.18C414.38 328.49 411.43 323.35 409.59 321.88C407.75 320.41 372.43 303.11 369.48 302.37C366.53 301.63 341.52 303.11 341.52 303.11Z" fill="#9E7CE1"/>
<path d="M388.25 424.67H302.14C302.072 424.67 302.005 424.656 301.943 424.629C301.881 424.601 301.825 424.561 301.78 424.51C301.73 424.461 301.693 424.401 301.67 424.335C301.648 424.269 301.641 424.199 301.65 424.13C301.65 423.97 303.12 407.93 303.12 405.41C303.12 402.89 300.26 390.26 298.37 385.73C296.71 381.73 299.58 365.57 300.37 361.38L277.75 372C275.763 373.592 273.958 375.4 272.37 377.39C270.28 380.17 265.61 380.49 264.48 380.53C263.74 381.37 260.43 384.44 252.75 383.1C248.55 382.37 244.89 379.1 242.95 374.3C241.47 370.63 241.43 366.99 242.86 365.02C245.16 361.87 276.23 334.5 291.16 321.35C295.48 317.55 298.6 314.8 298.85 314.55C299.74 313.66 304.35 312.6 312.43 310.81C314.65 310.32 316.99 309.81 319.33 309.27C328.76 307.09 341.23 302.7 341.33 302.66C341.376 302.651 341.424 302.651 341.47 302.66C342.47 302.6 366.6 301.19 369.58 301.94C372.38 302.64 407.78 319.85 409.89 321.54C411.84 323.1 414.89 328.4 414.89 332.23C414.89 336.06 389.81 420.76 388.74 424.36C388.702 424.457 388.634 424.539 388.546 424.595C388.458 424.651 388.354 424.677 388.25 424.67V424.67ZM302.69 423.67H387.88C396.93 393.05 413.88 335.02 413.88 332.18C413.88 328.74 411.09 323.72 409.28 322.27C407.47 320.82 371.92 303.5 369.36 302.86C367.1 302.29 350.27 303.1 341.62 303.6C340.62 303.96 328.68 308.11 319.55 310.22C317.21 310.76 314.87 311.28 312.65 311.77C306.57 313.12 300.28 314.51 299.55 315.24C299.3 315.49 296.86 317.64 291.82 322.08C276.91 335.21 245.9 362.53 243.67 365.59C242.46 367.26 242.54 370.59 243.88 373.9C245.69 378.36 249.07 381.43 252.88 382.1C260.88 383.5 263.77 379.76 263.8 379.72C263.845 379.657 263.906 379.605 263.975 379.571C264.045 379.536 264.122 379.518 264.2 379.52C264.26 379.52 269.5 379.52 271.53 376.77C273.178 374.69 275.06 372.808 277.14 371.16C277.17 371.134 277.203 371.114 277.24 371.1L300.79 360.1C300.874 360.06 300.967 360.044 301.059 360.055C301.151 360.065 301.238 360.102 301.31 360.16C301.384 360.216 301.441 360.291 301.472 360.378C301.504 360.465 301.51 360.56 301.49 360.65C301.49 360.85 297.49 381.16 299.25 385.38C301.01 389.6 304.08 402.74 304.08 405.45C304.12 407.74 303 420.78 302.69 423.67Z" fill="#263238"/>
<path d="M397.61 377.48C397.484 377.481 397.363 377.434 397.27 377.35L383.47 365.13C383.423 365.083 383.386 365.028 383.361 364.967C383.335 364.906 383.322 364.841 383.322 364.775C383.322 364.709 383.335 364.644 383.361 364.583C383.386 364.522 383.423 364.466 383.47 364.42C383.515 364.372 383.569 364.334 383.629 364.308C383.69 364.282 383.754 364.268 383.82 364.268C383.886 364.268 383.951 364.282 384.011 364.308C384.071 364.334 384.125 364.372 384.17 364.42L396.25 375.11L388.91 358.69C388.865 358.571 388.867 358.439 388.916 358.322C388.965 358.204 389.056 358.109 389.172 358.057C389.288 358.005 389.42 357.999 389.54 358.04C389.661 358.082 389.761 358.167 389.82 358.28L398.1 376.81C398.147 376.915 398.157 377.032 398.128 377.143C398.099 377.254 398.033 377.352 397.94 377.42C397.842 377.481 397.724 377.502 397.61 377.48V377.48Z" fill="#263238"/>
<path d="M339.63 420.07H339.49C339.426 420.052 339.366 420.021 339.314 419.979C339.262 419.937 339.219 419.885 339.187 419.827C339.155 419.768 339.136 419.703 339.129 419.637C339.123 419.571 339.13 419.504 339.15 419.44C339.15 419.44 339.52 418.23 339.94 416.68C339.956 416.616 339.985 416.557 340.025 416.505C340.064 416.452 340.114 416.409 340.171 416.376C340.228 416.343 340.291 416.322 340.356 416.315C340.421 416.307 340.487 416.312 340.55 416.33C340.614 416.345 340.675 416.373 340.728 416.412C340.781 416.452 340.825 416.501 340.858 416.559C340.891 416.616 340.911 416.679 340.919 416.745C340.926 416.811 340.92 416.877 340.9 416.94C340.48 418.5 340.11 419.73 340.11 419.73C340.078 419.831 340.013 419.919 339.927 419.98C339.84 420.041 339.736 420.073 339.63 420.07V420.07Z" fill="#263238"/>
<path d="M341.07 414.76H341C340.872 414.729 340.761 414.649 340.691 414.536C340.622 414.424 340.6 414.289 340.63 414.16C341.31 411.3 341.21 410.75 341.18 410.67C340.78 409.47 338.39 394.35 338.39 387.24C338.39 382.18 342.92 359.04 345.62 345.69C345.647 345.557 345.725 345.441 345.837 345.366C345.95 345.291 346.087 345.263 346.22 345.29C346.353 345.317 346.469 345.395 346.544 345.507C346.619 345.62 346.647 345.757 346.62 345.89C343.93 359.2 339.41 382.27 339.41 387.24C339.41 394.24 341.76 409.17 342.15 410.35C342.27 410.7 342.31 411.48 341.62 414.35C341.6 414.477 341.532 414.591 341.429 414.667C341.326 414.744 341.197 414.777 341.07 414.76V414.76Z" fill="#263238"/>
<path d="M347 341.63H346.9C346.836 341.617 346.774 341.591 346.72 341.554C346.666 341.518 346.619 341.471 346.583 341.416C346.547 341.361 346.521 341.3 346.509 341.235C346.497 341.171 346.497 341.104 346.51 341.04C347.07 338.32 347.42 336.66 347.42 336.66C347.433 336.594 347.459 336.532 347.496 336.476C347.534 336.421 347.581 336.373 347.637 336.336C347.693 336.299 347.755 336.273 347.821 336.26C347.887 336.247 347.954 336.247 348.02 336.26C348.086 336.273 348.148 336.299 348.204 336.336C348.259 336.374 348.307 336.421 348.344 336.477C348.381 336.533 348.407 336.595 348.42 336.661C348.433 336.727 348.433 336.794 348.42 336.86L347.52 341.24C347.494 341.356 347.427 341.46 347.332 341.531C347.237 341.603 347.119 341.638 347 341.63Z" fill="#263238"/>
<path d="M284.75 340.55C284.75 340.55 276.95 347.35 271.66 349.86C266.37 352.37 247 359.94 241.2 364.47C235.4 369 232.63 374.54 234.4 381.59C236.17 388.64 241.95 392.42 248.5 391.41C255.05 390.4 259.83 383.6 267.13 377.81C274.43 372.02 291.8 357.17 294.57 353.39C297.34 349.61 299.11 348.1 299.11 345.58C299.11 343.06 292.06 336.77 284.75 340.55Z" fill="white"/>
<path d="M246.39 392.07C240.39 392.07 235.51 388.12 233.91 381.71C232.2 374.86 234.48 369.09 240.91 364.07C245.23 360.69 257.09 355.62 264.91 352.27C267.68 351.09 270.07 350.07 271.45 349.41C276.61 346.95 284.35 340.24 284.45 340.17L284.54 340.1C286.269 339.217 288.198 338.802 290.137 338.897C292.076 338.992 293.956 339.593 295.59 340.64C297.93 342.07 299.59 344.14 299.59 345.58C299.59 347.7 298.49 349.1 296.69 351.42C296.17 352.08 295.59 352.82 294.96 353.69C292.08 357.6 274.2 372.83 267.42 378.2C265.16 380 263.16 381.87 261.23 383.68C256.93 387.68 253.23 391.19 248.55 391.9C247.836 392.014 247.113 392.071 246.39 392.07V392.07ZM285 341C284.28 341.61 277 347.9 271.84 350.35C270.44 351.01 268.04 352.03 265.26 353.22C257.47 356.55 245.69 361.59 241.46 364.89C235.4 369.64 233.23 375.07 234.84 381.5C236.5 388.14 241.94 391.93 248.38 390.95C252.74 390.27 256.38 386.89 260.53 382.95C262.48 381.12 264.53 379.24 266.78 377.42C274.56 371.25 291.46 356.73 294.13 353.09C294.77 352.22 295.35 351.47 295.88 350.8C297.61 348.58 298.57 347.35 298.57 345.58C298.57 344.66 297.21 342.83 295.01 341.5C293.526 340.561 291.825 340.022 290.071 339.934C288.317 339.847 286.57 340.214 285 341Z" fill="#263238"/>
<path d="M241.2 364.47C235.4 369 232.63 374.54 234.4 381.59C236.17 388.64 241.95 392.42 248.5 391.41C252.02 390.87 255.04 388.64 258.21 385.8C252.72 385.33 245.21 383.57 242.71 377.56C240.39 371.93 242.06 366.38 243.9 362.67C242.964 363.214 242.062 363.815 241.2 364.47Z" fill="#9E7CE1"/>
<path d="M246.39 392.07C240.39 392.07 235.51 388.12 233.91 381.71C232.2 374.86 234.48 369.09 240.91 364.07C241.793 363.406 242.715 362.795 243.67 362.24C243.763 362.187 243.87 362.164 243.976 362.177C244.082 362.189 244.181 362.234 244.26 362.307C244.338 362.38 244.391 362.475 244.411 362.58C244.431 362.685 244.416 362.794 244.37 362.89C242.59 366.48 240.94 371.89 243.19 377.37C245.52 383.06 252.68 384.83 258.27 385.3C258.368 385.309 258.461 385.346 258.539 385.406C258.617 385.466 258.676 385.547 258.71 385.64C258.74 385.733 258.741 385.833 258.715 385.927C258.688 386.022 258.634 386.106 258.56 386.17C255.17 389.17 252.17 391.35 248.56 391.9C247.842 392.014 247.117 392.071 246.39 392.07ZM241.5 364.86C235.44 369.61 233.27 375.04 234.88 381.47C236.54 388.11 241.98 391.9 248.42 390.92C251.42 390.45 254.1 388.7 257.02 386.18C251.35 385.54 244.61 383.51 242.24 377.75C240.16 372.67 241.24 367.67 242.76 363.97C242.28 364.29 241.86 364.58 241.5 364.86Z" fill="#263238"/>
<path d="M298.85 327.71C298.85 327.71 294.85 324.18 293.57 319.9C292.29 315.62 289.03 318.39 289.03 321.16C289.03 323.93 291.8 328.16 292.31 328.97C292.82 329.78 292.56 334.76 292.81 338.79C293.06 342.82 293.31 350.37 296.34 349.61C299.37 348.85 300.11 342.31 300.34 338.28C300.57 334.25 298.85 327.71 298.85 327.71Z" fill="white"/>
<path d="M295.93 350.16C295.515 350.163 295.111 350.029 294.78 349.78C293.03 348.49 292.63 344.22 292.36 339.58L292.31 338.82C292.21 337.24 292.19 335.48 292.17 333.94C292.236 332.368 292.142 330.793 291.89 329.24C291.33 328.4 288.53 324.06 288.53 321.16C288.53 319.27 289.83 317.42 291.31 317.16C291.89 317.08 293.31 317.16 294.05 319.71C295.25 323.8 299.14 327.25 299.18 327.28C299.257 327.346 299.313 327.433 299.34 327.53C299.41 327.8 301.12 334.2 300.86 338.26C300.41 345.57 298.97 349.42 296.46 350.05C296.288 350.106 296.11 350.143 295.93 350.16ZM291.59 318.16H291.46C290.58 318.28 289.53 319.63 289.53 321.16C289.53 323.83 292.4 328.16 292.72 328.69C293.04 329.22 293.13 330.87 293.17 333.93C293.17 335.46 293.17 337.2 293.31 338.75L293.36 339.52C293.54 342.64 293.85 347.86 295.36 348.98C295.477 349.069 295.613 349.128 295.757 349.154C295.901 349.181 296.05 349.172 296.19 349.13C297.57 348.78 299.32 346.62 299.85 338.25C300.07 334.67 298.64 328.95 298.39 327.98C297.69 327.35 294.25 324.05 293.07 320.04C292.88 319.34 292.41 318.19 291.59 318.19V318.16Z" fill="#263238"/>
<path d="M292.31 329C292.31 329 279.47 325.72 279.21 327.74C278.95 329.76 278.21 333.74 280.98 335.29C283.75 336.84 292.81 335.29 293.57 334.54C294.33 333.79 296.59 329.47 292.31 329Z" fill="white"/>
<path d="M285 336.4C283.559 336.487 282.116 336.248 280.78 335.7C277.9 334.13 278.42 330.2 278.7 328.08L278.76 327.64C278.78 327.498 278.831 327.362 278.909 327.241C278.986 327.12 279.089 327.018 279.21 326.94C281.07 325.67 290.48 327.94 292.44 328.47C294.29 328.7 294.98 329.61 295.23 330.33C295.82 332.03 294.56 334.26 293.96 334.86C293.36 335.46 288.73 336.4 285 336.4ZM281 327.54C280.29 327.54 279.82 327.62 279.69 327.79L279.64 328.21C279.38 330.21 278.93 333.58 281.21 334.82C283.8 336.24 292.43 334.77 293.21 334.15C293.59 333.76 294.67 331.92 294.21 330.66C293.98 329.99 293.31 329.59 292.21 329.46H292.14C288.501 328.444 284.769 327.8 281 327.54Z" fill="#263238"/>
<path d="M281 335.26C280.721 336.183 280.643 337.156 280.773 338.112C280.902 339.067 281.235 339.984 281.75 340.8C283.52 343.57 293.33 341.8 294.85 341.05C296.37 340.3 296.61 336.27 294.59 335.76C292.57 335.25 281 335.26 281 335.26Z" fill="white"/>
<path d="M286.85 342.79C284.39 342.79 282.14 342.37 281.31 341.07C280.747 340.189 280.384 339.195 280.246 338.159C280.108 337.122 280.198 336.068 280.51 335.07C280.545 334.973 280.609 334.89 280.693 334.831C280.777 334.772 280.877 334.74 280.98 334.74C281.45 334.74 292.64 334.74 294.69 335.26C295.217 335.43 295.676 335.765 296 336.215C296.324 336.664 296.496 337.206 296.49 337.76C296.64 339.14 296.19 340.91 295.05 341.48C292.404 342.352 289.636 342.794 286.85 342.79V342.79ZM281.36 335.79C281.172 336.598 281.144 337.435 281.28 338.254C281.416 339.072 281.711 339.856 282.15 340.56C283.64 342.89 293.01 341.43 294.6 340.63C295.22 340.33 295.6 339.08 295.5 337.92C295.45 337.49 295.26 336.48 294.45 336.28C293 335.88 285.45 335.77 281.36 335.76V335.79Z" fill="#263238"/>
<path d="M281.73 340.8C281.73 340.8 282.49 346.59 284.25 348.1C286.01 349.61 293.06 347.35 294.57 346.84C296.08 346.33 295.33 342.31 295.33 342.31L294.07 342.06L281.73 340.8Z" fill="white"/>
<path d="M286.37 349.11C285.509 349.185 284.647 348.963 283.93 348.48C282.07 346.89 281.32 341.48 281.24 340.87C281.227 340.795 281.232 340.718 281.254 340.645C281.276 340.572 281.315 340.505 281.367 340.45C281.42 340.394 281.484 340.352 281.556 340.326C281.628 340.3 281.704 340.291 281.78 340.3L294.12 341.56L295.43 341.82C295.527 341.84 295.617 341.889 295.686 341.96C295.756 342.032 295.802 342.122 295.82 342.22C295.96 342.96 296.56 346.71 294.73 347.32C292.04 348.302 289.226 348.905 286.37 349.11ZM282.32 341.36C282.62 343.23 283.4 346.71 284.58 347.72C285.58 348.57 289.42 348.03 294.42 346.37C295.08 346.15 295.12 344.22 294.89 342.73L293.97 342.55L282.32 341.36Z" fill="#263238"/>
<path d="M285.26 349.11C285.26 349.11 284.5 352.63 287.78 352.89C291.06 353.15 296.08 351.12 296.34 349.61C296.6 348.1 295.58 346.61 294.57 346.84C293.56 347.07 286.77 349.36 285.26 349.11Z" fill="white"/>
<path d="M288.32 353.41C288.127 353.421 287.933 353.421 287.74 353.41C287.278 353.402 286.823 353.292 286.408 353.088C285.993 352.884 285.629 352.591 285.34 352.23C284.748 351.276 284.544 350.13 284.77 349.03C284.797 348.905 284.871 348.795 284.978 348.724C285.084 348.653 285.214 348.626 285.34 348.65C286.42 348.83 291.08 347.4 293.07 346.8C293.73 346.59 294.23 346.44 294.45 346.39C294.714 346.331 294.988 346.34 295.247 346.417C295.507 346.494 295.742 346.636 295.93 346.83C296.3 347.205 296.576 347.662 296.732 348.165C296.889 348.668 296.922 349.201 296.83 349.72C296.52 351.55 291.59 353.41 288.32 353.41ZM285.7 349.62C285.608 350.318 285.763 351.026 286.14 351.62C286.345 351.864 286.6 352.062 286.889 352.198C287.177 352.334 287.491 352.407 287.81 352.41C291 352.64 295.66 350.63 295.81 349.55C295.877 349.195 295.859 348.828 295.758 348.481C295.657 348.134 295.477 347.815 295.23 347.55C295.158 347.474 295.068 347.416 294.969 347.381C294.87 347.346 294.764 347.336 294.66 347.35C294.45 347.4 293.97 347.55 293.33 347.74C290.848 348.595 288.295 349.224 285.7 349.62V349.62Z" fill="#263238"/>
<path d="M294.83 328.09C294.57 340.55 298 355 298 355C298 356.73 302.44 358.14 307.92 358.14C313.4 358.14 317.84 356.73 317.84 355C320.2 345.55 321.01 328.06 321.01 328.06L294.83 328.09Z" fill="white"/>
<path d="M307.92 358.67C302.92 358.67 297.59 357.42 297.5 355.09C297.28 354.09 294.08 340.09 294.33 328.09C294.33 327.957 294.383 327.83 294.476 327.736C294.57 327.643 294.697 327.59 294.83 327.59H321C321.068 327.59 321.135 327.604 321.197 327.631C321.259 327.659 321.315 327.699 321.36 327.75C321.409 327.798 321.447 327.856 321.471 327.92C321.495 327.983 321.505 328.052 321.5 328.12C321.5 328.29 320.67 345.71 318.33 355.12C318.23 357.42 312.92 358.67 307.92 358.67ZM295.32 328.58C295.17 340.73 298.45 354.77 298.49 354.91C298.53 355.05 298.49 354.99 298.49 355.03C298.49 356.13 302.07 357.67 307.91 357.67C313.75 357.67 317.33 356.13 317.33 355.03C317.325 354.99 317.325 354.95 317.33 354.91C319.43 346.53 320.33 331.56 320.46 328.58H295.32Z" fill="#263238"/>
<path d="M321 328.09C321 329.19 319.66 330.17 317.49 330.92C311.225 332.68 304.595 332.68 298.33 330.92C296.16 330.17 294.82 329.19 294.82 328.09C294.82 325.79 300.68 323.93 307.91 323.93C315.14 323.93 321 325.79 321 328.09Z" fill="white"/>
<path d="M307.92 332.74C304.623 332.801 301.336 332.346 298.18 331.39C295.66 330.52 294.33 329.39 294.33 328.09C294.33 325.09 301.33 323.43 307.92 323.43C314.51 323.43 321.51 325.06 321.51 328.09C321.51 329.38 320.18 330.52 317.66 331.39C314.504 332.346 311.217 332.801 307.92 332.74ZM307.92 324.43C300.5 324.43 295.33 326.36 295.33 328.09C295.33 328.89 296.49 329.75 298.5 330.45C304.662 332.172 311.178 332.172 317.34 330.45C319.34 329.75 320.51 328.89 320.51 328.09C320.51 326.36 315.34 324.43 307.92 324.43Z" fill="#263238"/>
<path d="M317.5 330.92C311.235 332.68 304.605 332.68 298.34 330.92C304.604 329.147 311.236 329.147 317.5 330.92V330.92Z" fill="white"/>
<path d="M307.92 332.74C304.623 332.801 301.336 332.346 298.18 331.39C298.081 331.357 297.996 331.294 297.935 331.209C297.874 331.125 297.841 331.024 297.84 330.92C297.842 330.816 297.876 330.716 297.937 330.632C297.997 330.548 298.082 330.485 298.18 330.45C304.547 328.637 311.293 328.637 317.66 330.45C317.758 330.485 317.843 330.548 317.903 330.632C317.964 330.716 317.998 330.816 318 330.92C317.999 331.024 317.966 331.125 317.905 331.209C317.844 331.294 317.758 331.357 317.66 331.39C314.504 332.346 311.217 332.801 307.92 332.74ZM300.16 330.92C305.276 332.013 310.564 332.013 315.68 330.92C310.566 329.813 305.274 329.813 300.16 330.92Z" fill="#263238"/>
<path d="M340.49 364.37C340.365 364.368 340.245 364.32 340.152 364.235C340.06 364.151 340.002 364.035 339.99 363.91L336.28 321C336.273 320.935 336.279 320.869 336.298 320.806C336.318 320.743 336.349 320.685 336.391 320.635C336.433 320.585 336.485 320.543 336.543 320.513C336.601 320.483 336.665 320.465 336.73 320.46C336.795 320.453 336.861 320.459 336.924 320.478C336.987 320.497 337.045 320.529 337.095 320.571C337.146 320.613 337.187 320.664 337.217 320.723C337.247 320.781 337.265 320.845 337.27 320.91L341 363.82C341.011 363.954 340.969 364.087 340.883 364.189C340.797 364.292 340.674 364.357 340.54 364.37H340.49Z" fill="#263238"/>
<path d="M345.56 365.38C345.484 365.383 345.408 365.365 345.34 365.33C345.281 365.302 345.228 365.263 345.185 365.215C345.141 365.166 345.108 365.11 345.087 365.048C345.065 364.987 345.056 364.922 345.06 364.857C345.064 364.792 345.081 364.728 345.11 364.67L364 325.15C364.025 325.086 364.063 325.028 364.112 324.979C364.16 324.931 364.218 324.893 364.282 324.868C364.346 324.842 364.414 324.831 364.483 324.833C364.552 324.835 364.619 324.852 364.681 324.882C364.743 324.911 364.798 324.953 364.843 325.005C364.888 325.057 364.922 325.118 364.942 325.183C364.963 325.249 364.97 325.318 364.963 325.386C364.955 325.454 364.934 325.52 364.9 325.58L346 365.1C345.96 365.183 345.897 365.252 345.819 365.302C345.742 365.351 345.652 365.378 345.56 365.38Z" fill="#263238"/>
<path d="M351.777 365.259L332.546 363.404L329.781 392.061L349.012 393.916L351.777 365.259Z" fill="white"/>
<path d="M349.05 394.39H349L329.76 392.53C329.629 392.517 329.508 392.454 329.424 392.352C329.34 392.251 329.299 392.121 329.31 391.99L332.08 363.33C332.091 363.199 332.152 363.077 332.25 362.99C332.356 362.911 332.488 362.872 332.62 362.88L351.86 364.74C351.991 364.753 352.112 364.816 352.196 364.918C352.28 365.019 352.321 365.149 352.31 365.28L349.54 393.94C349.535 394.006 349.517 394.07 349.486 394.129C349.455 394.187 349.412 394.239 349.36 394.28C349.272 394.35 349.163 394.389 349.05 394.39V394.39ZM330.36 391.59L348.6 393.34L351.26 365.68L333 363.93L330.36 391.59Z" fill="#263238"/>
<path d="M345.513 371.386L337.413 370.576L336.206 382.646L344.306 383.456L345.513 371.386Z" fill="white"/>
<path d="M344.26 380.8H344.21L336.15 380.02C336.019 380.007 335.898 379.943 335.814 379.842C335.73 379.741 335.689 379.611 335.7 379.48L336.86 367.48C336.877 367.349 336.944 367.23 337.046 367.146C337.148 367.063 337.278 367.021 337.41 367.03L345.47 367.81C345.602 367.824 345.724 367.889 345.81 367.99C345.891 368.096 345.93 368.227 345.92 368.36L344.76 380.36C344.745 380.482 344.686 380.594 344.594 380.675C344.502 380.756 344.383 380.801 344.26 380.8V380.8ZM336.75 379.08L343.81 379.76L344.87 368.76L337.81 368.08L336.75 379.08Z" fill="#263238"/>
<path d="M344.94 386.05H344.89L334.36 385C334.229 384.985 334.109 384.919 334.027 384.816C333.944 384.713 333.906 384.581 333.92 384.45C333.925 384.385 333.943 384.321 333.973 384.263C334.003 384.204 334.045 384.153 334.095 384.111C334.145 384.069 334.204 384.037 334.266 384.018C334.329 383.999 334.395 383.993 334.46 384L345 385.05C345.066 385.053 345.13 385.069 345.19 385.098C345.249 385.126 345.302 385.165 345.346 385.214C345.39 385.263 345.424 385.32 345.447 385.382C345.469 385.444 345.478 385.509 345.475 385.575C345.472 385.641 345.456 385.705 345.427 385.764C345.399 385.824 345.36 385.877 345.311 385.921C345.262 385.965 345.205 385.999 345.143 386.022C345.081 386.044 345.016 386.053 344.95 386.05H344.94Z" fill="#263238"/>
<path d="M344.71 389.37H344.65L334.12 388.29C333.987 388.275 333.866 388.209 333.783 388.105C333.699 388.001 333.66 387.868 333.675 387.735C333.69 387.602 333.756 387.481 333.86 387.398C333.964 387.314 334.097 387.275 334.23 387.29L344.75 388.37C344.816 388.376 344.88 388.395 344.938 388.427C344.996 388.458 345.048 388.5 345.09 388.551C345.132 388.602 345.163 388.661 345.182 388.725C345.201 388.788 345.207 388.854 345.2 388.92C345.188 389.042 345.131 389.155 345.041 389.238C344.95 389.321 344.833 389.368 344.71 389.37V389.37Z" fill="#263238"/>
<path d="M345.2 292.81C345.2 292.81 336.37 299.06 336.37 300.17C336.37 301.28 333.05 317.83 331.58 322.24C330.11 326.65 327.53 327.76 329.74 327.76C331.95 327.76 335.26 321.14 337.84 319.3C339.128 318.346 340.481 317.484 341.89 316.72L359.55 317.46C359.55 317.46 367.64 328.46 369.12 329.24C370.6 330.02 371.32 327.76 371.32 326.29C371.32 324.82 373.9 313.04 374.64 306.05C375.38 299.06 372.43 292.44 368.75 290.23C365.07 288.02 345.2 292.81 345.2 292.81Z" fill="white"/>
<path d="M369.68 329.88C369.404 329.879 369.133 329.81 368.89 329.68C367.43 328.95 360.89 320.18 359.29 317.95L342 317.23C340.658 317.972 339.365 318.8 338.13 319.71C336.819 320.889 335.666 322.234 334.7 323.71C332.86 326.18 331.26 328.31 329.7 328.31C329.2 328.31 328.65 328.31 328.43 327.85C328.21 327.39 328.49 326.93 329 326.18C329.879 324.935 330.576 323.572 331.07 322.13C332.49 317.88 335.83 301.26 335.83 300.22C335.83 299.18 340.74 295.37 344.83 292.45C344.879 292.41 344.938 292.382 345 292.37C347.05 291.88 365.18 287.6 368.92 289.85C372.66 292.1 375.84 298.72 375.05 306.16C374.62 310.29 373.53 316.16 372.73 320.45C372.2 323.31 371.73 325.78 371.73 326.34C371.73 327.56 371.31 329.13 370.37 329.7C370.158 329.816 369.921 329.878 369.68 329.88V329.88ZM341.89 316.22L359.55 316.96C359.624 316.964 359.696 316.984 359.762 317.018C359.828 317.053 359.885 317.101 359.93 317.16C363.03 321.39 368.33 328.29 369.32 328.79C369.409 328.848 369.514 328.879 369.62 328.879C369.727 328.879 369.831 328.848 369.92 328.79C370.227 328.452 370.464 328.056 370.615 327.624C370.766 327.193 370.829 326.736 370.8 326.28C370.8 325.66 371.17 323.67 371.8 320.21C372.59 315.94 373.68 310.09 374.11 305.99C374.85 298.99 371.82 292.66 368.46 290.65C365.6 288.93 350.92 291.93 345.38 293.26C341.38 296.11 337.08 299.48 336.83 300.26C336.83 301.42 333.47 318.1 332.03 322.44C331.513 323.971 330.771 325.417 329.83 326.73L329.46 327.3H329.71C330.71 327.3 332.4 325.07 333.87 323.1C334.896 321.554 336.124 320.152 337.52 318.93C338.825 317.962 340.199 317.089 341.63 316.32C341.704 316.261 341.795 316.226 341.89 316.22V316.22Z" fill="#263238"/>
<path d="M370.22 287.28C369.882 292.66 369.275 298.021 368.4 303.34C367.82 306.53 367.08 309.34 366.17 310.84C363.23 315.62 351.45 331.44 348.51 331.44C345.57 331.44 341.15 317.44 340.78 311.94C340.41 306.44 340.78 295.01 340.78 295.01C345.62 295.39 353.09 293.41 359.3 291.35C365.37 289.35 370.22 287.28 370.22 287.28Z" fill="white"/>
<path d="M348.51 331.94C345.04 331.94 340.63 317.26 340.29 311.94C339.91 306.46 340.29 295.08 340.29 294.94C340.298 294.802 340.359 294.673 340.46 294.58C340.51 294.535 340.568 294.5 340.632 294.478C340.695 294.456 340.763 294.446 340.83 294.45C345.78 294.83 353.52 292.69 359.15 290.81H359.2C365.15 288.81 369.99 286.81 370.03 286.81C370.11 286.778 370.196 286.766 370.281 286.775C370.366 286.783 370.448 286.813 370.52 286.86C370.589 286.91 370.644 286.976 370.681 287.053C370.718 287.13 370.735 287.215 370.73 287.3C370.73 287.39 370.18 296.36 368.9 303.41C368.23 307.11 367.46 309.7 366.61 311.09C364.43 314.62 352 331.94 348.51 331.94ZM341.27 295.54C341.2 297.82 340.96 307.13 341.27 311.91C341.68 318.13 346.27 330.91 348.5 330.91C350.97 330.91 362.23 316.25 365.74 310.55C366.837 308.235 367.563 305.761 367.89 303.22C368.95 297.44 369.49 290.37 369.66 288.02C368.06 288.68 364.09 290.26 359.45 291.79C353.89 293.67 346.36 295.76 341.27 295.54Z" fill="#263238"/>
<path d="M351.63 308.53C359.84 302.61 370.22 287.28 370.22 287.28C370.22 287.28 365.37 289.35 359.31 291.35C353.1 293.41 345.63 295.35 340.79 295.01C340.79 295.01 340.5 304.06 340.7 309.94C343.11 312.15 346 312.64 351.63 308.53Z" fill="#263238"/>
<path d="M344.58 312.11C342.989 312.086 341.471 311.44 340.35 310.31C340.301 310.266 340.261 310.212 340.233 310.152C340.206 310.091 340.191 310.026 340.19 309.96C339.99 304.13 340.28 295.09 340.28 294.96C340.288 294.822 340.349 294.693 340.45 294.6C340.499 294.553 340.557 294.517 340.621 294.495C340.685 294.472 340.753 294.464 340.82 294.47C345.77 294.85 353.51 292.71 359.14 290.83H359.19C365.14 288.83 369.98 286.83 370.02 286.83C370.12 286.787 370.232 286.778 370.338 286.803C370.444 286.828 370.54 286.887 370.61 286.97C370.675 287.057 370.71 287.162 370.71 287.27C370.71 287.378 370.675 287.483 370.61 287.57C370.19 288.2 360.09 303.04 351.9 308.95C349 311.06 346.63 312.11 344.58 312.11ZM341.18 309.71C343.36 311.6 345.96 312.01 351.34 308.13C357.94 303.36 366.07 292.29 368.84 288.39C366.92 289.16 363.43 290.52 359.46 291.82C353.94 293.65 346.41 295.74 341.32 295.52C341.21 297.51 341 304.72 341.18 309.71V309.71Z" fill="#263238"/>
<path d="M324.22 250.49C324.22 250.49 327.17 274.04 329.74 280.66C332.31 287.28 343.74 304.21 348.88 304.21C354.02 304.21 370.96 289.13 373.53 284.71C376.1 280.29 379.42 270.36 379.42 270.36C379.42 270.36 385.67 261.9 384.57 256.36C383.47 250.82 379.05 257.83 379.05 257.83C379.05 257.83 370.59 247.16 368.05 243.83C365.51 240.5 366.7 241 366.7 241L374.64 227.68C374.64 227.68 372.8 226.58 371.32 229.89C369.84 233.2 363.6 240.2 363.6 240.2C363.6 240.2 335.63 244.23 324.22 250.49Z" fill="white"/>
<path d="M348.88 304.71C343.25 304.71 331.82 287.38 329.28 280.84C326.74 274.3 323.85 251.51 323.73 250.55C323.716 250.451 323.732 250.35 323.777 250.261C323.821 250.171 323.892 250.098 323.98 250.05C334.98 244.05 360.71 240.05 363.34 239.72C364.21 238.72 369.55 232.63 370.87 229.72C371.058 229.15 371.363 228.626 371.766 228.182C372.169 227.737 372.661 227.383 373.21 227.14C373.485 227.047 373.777 227.012 374.066 227.038C374.355 227.064 374.636 227.15 374.89 227.29C374.947 227.322 374.998 227.365 375.038 227.417C375.078 227.47 375.107 227.529 375.122 227.593C375.138 227.657 375.141 227.723 375.13 227.788C375.12 227.853 375.096 227.915 375.06 227.97L367.13 241.29C367.087 241.353 367.033 241.407 366.97 241.45C367.366 242.219 367.85 242.941 368.41 243.6C370.62 246.44 377.26 254.83 379.02 257.04C379.86 255.83 381.69 253.52 383.31 253.82C384.17 253.98 384.76 254.82 385.06 256.32C386.16 261.79 380.5 269.77 379.87 270.63C379.54 271.63 376.45 280.75 373.96 285C371.28 289.57 354.2 304.71 348.88 304.71ZM324.76 250.77C325.13 253.68 327.85 274.42 330.21 280.48C332.97 287.59 344.21 303.71 348.88 303.71C353.81 303.71 370.54 288.84 373.1 284.46C375.66 280.08 378.91 270.3 378.94 270.2C378.961 270.15 378.988 270.103 379.02 270.06C379.08 269.98 385.13 261.71 384.08 256.47C383.88 255.47 383.54 254.84 383.08 254.76C382.13 254.59 380.38 256.62 379.43 258.12C379.388 258.186 379.33 258.242 379.263 258.282C379.195 258.322 379.119 258.345 379.04 258.35C378.959 258.358 378.878 258.345 378.804 258.311C378.731 258.278 378.667 258.226 378.62 258.16C378.53 258.05 370.12 247.45 367.62 244.16C365.85 241.89 365.7 241.16 366.02 240.74C366.065 240.671 366.124 240.613 366.193 240.568C366.261 240.523 366.339 240.493 366.42 240.48L373.86 228C373.734 228.003 373.61 228.023 373.49 228.06C372.679 228.475 372.064 229.194 371.78 230.06C370.29 233.41 364.23 240.21 363.97 240.5C363.891 240.585 363.785 240.642 363.67 240.66C363.39 240.72 336.15 244.72 324.76 250.77V250.77Z" fill="#263238"/>
<path d="M333.76 272.38C330.45 272.38 327.18 271.81 325.71 270.38C323.03 267.71 322.28 257.97 322.25 257.56C322.239 257.433 322.277 257.307 322.358 257.208C322.438 257.109 322.553 257.045 322.68 257.03C338.82 254.82 345.84 257.67 346.13 257.79C346.225 257.833 346.305 257.903 346.358 257.993C346.412 258.082 346.437 258.186 346.43 258.29C346.35 259.45 345.56 269.69 341.7 271.23C339.136 272.055 336.452 272.444 333.76 272.38V272.38ZM323.29 257.91C323.47 259.91 324.29 267.53 326.42 269.64C328.75 271.97 337.67 271.72 341.33 270.26C344 269.2 345.14 261.78 345.41 258.56C343.86 258 336.89 256.12 323.29 257.91V257.91Z" fill="#263238"/>
<path d="M364.73 272.38C362.035 272.431 359.351 272.029 356.79 271.19C352.93 269.65 352.14 259.41 352.06 258.25C352.053 258.146 352.078 258.042 352.132 257.953C352.185 257.864 352.265 257.793 352.36 257.75C352.65 257.63 359.67 254.75 375.81 256.99C375.937 257.005 376.052 257.069 376.132 257.168C376.213 257.267 376.251 257.393 376.24 257.52C376.24 257.93 375.46 267.67 372.78 270.34C371.31 271.81 368 272.38 364.73 272.38ZM353.08 258.56C353.35 261.78 354.49 269.2 357.16 270.26C360.82 271.73 369.74 271.97 372.07 269.64C374.18 267.53 375.02 259.89 375.2 257.91C361.57 256.12 354.62 258 353.08 258.56V258.56Z" fill="#263238"/>
<path d="M352.56 258.72C352.439 258.719 352.323 258.677 352.23 258.6C349.95 256.6 346.23 258.6 346.17 258.66C346.053 258.724 345.916 258.738 345.789 258.701C345.661 258.663 345.554 258.577 345.49 258.46C345.426 258.343 345.412 258.206 345.449 258.079C345.487 257.951 345.573 257.844 345.69 257.78C345.87 257.68 350.08 255.43 352.88 257.84C352.957 257.906 353.013 257.994 353.039 258.093C353.065 258.191 353.06 258.295 353.025 258.391C352.99 258.487 352.927 258.569 352.844 258.628C352.761 258.687 352.662 258.719 352.56 258.72Z" fill="#263238"/>
<path d="M352.56 261.66H345.93C345.797 261.66 345.67 261.607 345.577 261.514C345.483 261.42 345.43 261.293 345.43 261.16C345.43 261.027 345.483 260.9 345.577 260.806C345.67 260.713 345.797 260.66 345.93 260.66H352.56C352.693 260.66 352.82 260.713 352.914 260.806C353.007 260.9 353.06 261.027 353.06 261.16C353.06 261.293 353.007 261.42 352.914 261.514C352.82 261.607 352.693 261.66 352.56 261.66Z" fill="#263238"/>
<path d="M338.21 264.1C338.21 265.32 337.63 266.31 336.92 266.31C336.21 266.31 335.63 265.31 335.63 264.1C335.63 262.89 336.21 261.9 336.92 261.9C337.63 261.9 338.21 262.88 338.21 264.1Z" fill="#263238"/>
<path d="M363.41 264.47C363.41 265.69 362.84 266.68 362.12 266.68C361.4 266.68 360.84 265.68 360.84 264.47C360.84 263.26 361.41 262.26 362.12 262.26C362.83 262.26 363.41 263.25 363.41 264.47Z" fill="#263238"/>
<path d="M331.21 255.77C331.11 255.77 331.012 255.739 330.93 255.682C330.847 255.625 330.785 255.544 330.75 255.45C330.704 255.328 330.707 255.193 330.76 255.073C330.812 254.953 330.909 254.859 331.03 254.81C331.31 254.7 337.9 252.18 342.45 254.07C342.573 254.122 342.671 254.22 342.722 254.344C342.772 254.468 342.772 254.607 342.72 254.73C342.668 254.853 342.57 254.951 342.446 255.002C342.322 255.052 342.183 255.052 342.06 255C337.88 253.25 331.46 255.71 331.39 255.74C331.332 255.761 331.271 255.771 331.21 255.77V255.77Z" fill="#263238"/>
<path d="M358.45 254.67C358.354 254.669 358.26 254.641 358.179 254.59C358.098 254.539 358.033 254.466 357.99 254.38C357.935 254.261 357.93 254.124 357.975 254.001C358.02 253.877 358.111 253.776 358.23 253.72C358.5 253.59 364.76 250.72 370.43 253.35C370.497 253.372 370.559 253.408 370.611 253.456C370.663 253.504 370.704 253.562 370.732 253.627C370.76 253.691 370.774 253.761 370.773 253.832C370.772 253.903 370.756 253.972 370.726 254.036C370.696 254.1 370.653 254.157 370.6 254.203C370.546 254.249 370.484 254.284 370.416 254.304C370.348 254.324 370.277 254.33 370.207 254.32C370.137 254.311 370.07 254.287 370.01 254.25C364.77 251.81 358.72 254.59 358.66 254.62C358.594 254.651 358.523 254.668 358.45 254.67V254.67Z" fill="#263238"/>
<path d="M350.15 279.93C347.96 279.93 345.47 279.03 344.78 278C343.98 276.79 345.09 272.86 345.46 271.68C345.499 271.555 345.586 271.45 345.702 271.388C345.818 271.326 345.954 271.313 346.08 271.35C346.206 271.391 346.311 271.48 346.373 271.598C346.435 271.716 346.448 271.853 346.41 271.98C345.74 274.17 345.24 276.88 345.61 277.44C346.16 278.27 349.61 279.44 351.66 278.72C351.722 278.698 351.787 278.689 351.853 278.693C351.918 278.696 351.982 278.713 352.04 278.742C352.099 278.771 352.152 278.811 352.194 278.861C352.237 278.91 352.27 278.968 352.29 279.03C352.332 279.156 352.323 279.293 352.265 279.413C352.207 279.532 352.105 279.625 351.98 279.67C351.388 279.853 350.77 279.941 350.15 279.93Z" fill="#263238"/>
<path d="M348.37 286.73C346.17 286.787 344.018 286.081 342.28 284.73C342.188 284.635 342.136 284.508 342.136 284.375C342.136 284.242 342.188 284.115 342.28 284.02C342.327 283.973 342.382 283.936 342.443 283.911C342.504 283.885 342.569 283.872 342.635 283.872C342.701 283.872 342.766 283.885 342.827 283.911C342.888 283.936 342.944 283.973 342.99 284.02C343.2 284.21 348.35 288.79 357.08 282.5C357.134 282.462 357.195 282.435 357.259 282.42C357.323 282.406 357.39 282.404 357.455 282.415C357.52 282.426 357.582 282.45 357.638 282.485C357.694 282.52 357.742 282.566 357.78 282.62C357.818 282.674 357.845 282.735 357.86 282.799C357.874 282.863 357.876 282.93 357.865 282.995C357.854 283.06 357.83 283.122 357.795 283.178C357.76 283.234 357.714 283.282 357.66 283.32C354 285.92 350.83 286.73 348.37 286.73Z" fill="#263238"/>
<path d="M375.74 258C375.63 257.999 375.524 257.963 375.438 257.896C375.351 257.829 375.288 257.736 375.26 257.63C375.242 257.567 375.237 257.501 375.245 257.436C375.252 257.371 375.273 257.308 375.306 257.251C375.339 257.194 375.382 257.144 375.435 257.105C375.487 257.065 375.546 257.036 375.61 257.02L379.66 255.91C379.793 255.876 379.933 255.895 380.052 255.965C380.17 256.034 380.255 256.147 380.29 256.28C380.324 256.413 380.305 256.553 380.235 256.672C380.166 256.79 380.053 256.876 379.92 256.91L375.87 258.01L375.74 258Z" fill="#263238"/>
<path d="M404.07 320C404.07 320 419.9 326.25 422.47 327C425.04 327.75 427.99 332.15 427.99 333.62C427.99 335.09 423.21 396.54 423.21 407.62C423.21 418.7 421.74 423.81 420.63 425.62C419.52 427.43 395.24 431.88 390.46 432.62C385.68 433.36 365.07 436.62 365.07 436.62L361.39 423.01C361.39 423.01 384.57 412.71 386.78 410.87C388.99 409.03 394.87 402.4 394.87 402.4L391.56 397.99L392.67 394.67L394.87 390.67L396.42 357.24" fill="#9E7CE1"/>
<path d="M365.07 437.18C364.958 437.183 364.849 437.149 364.76 437.081C364.671 437.014 364.607 436.918 364.58 436.81L360.91 423.2C360.878 423.086 360.887 422.963 360.936 422.855C360.986 422.747 361.072 422.66 361.18 422.61C369.18 419.06 384.75 411.96 386.46 410.54C388.34 408.97 393.05 403.75 394.23 402.43L391.16 398.35C391.113 398.284 391.082 398.208 391.07 398.128C391.057 398.048 391.064 397.967 391.09 397.89L392.19 394.58L394.38 390.58L395.92 357.27C395.928 357.136 395.988 357.011 396.087 356.922C396.186 356.832 396.316 356.785 396.45 356.79C396.515 356.793 396.579 356.808 396.639 356.836C396.698 356.863 396.751 356.903 396.794 356.951C396.838 357 396.872 357.056 396.893 357.118C396.915 357.18 396.924 357.245 396.92 357.31L395.37 390.74C395.37 390.817 395.349 390.893 395.31 390.96L393.1 394.96L392.1 397.96L395.25 402.16C395.326 402.247 395.368 402.359 395.368 402.475C395.368 402.591 395.326 402.703 395.25 402.79C395.01 403.07 389.31 409.47 387.1 411.31C384.89 413.15 365.1 421.94 361.98 423.31L365.43 436.08C368.43 435.59 386.04 432.77 390.38 432.08C397.57 430.98 419.07 426.82 420.21 425.32C420.79 424.32 422.71 420.17 422.71 407.55C422.71 399.45 425.27 364.36 426.65 345.5C427.14 338.8 427.49 333.97 427.49 333.59C427.49 332.31 424.63 328.1 422.33 327.45C419.76 326.71 404.54 320.7 403.89 320.45C403.829 320.426 403.773 320.39 403.726 320.344C403.679 320.298 403.641 320.243 403.615 320.183C403.589 320.123 403.575 320.058 403.574 319.992C403.574 319.926 403.586 319.861 403.61 319.8C403.661 319.678 403.757 319.581 403.879 319.529C404 319.477 404.137 319.474 404.26 319.52C404.42 319.58 420.09 325.78 422.61 326.52C425.48 327.34 428.49 331.96 428.49 333.62C428.49 334.01 428.22 337.79 427.65 345.62C426.27 364.46 423.71 399.54 423.71 407.62C423.71 420.15 421.86 424.62 421.06 425.91C419.64 428.28 390.82 433.1 390.53 433.14C385.81 433.87 365.35 437.14 365.15 437.19L365.07 437.18Z" fill="#263238"/>
<path d="M365.07 436.68C365.07 436.68 385.67 433.37 390.46 432.68C392.55 432.35 398.37 431.33 404.35 430.12C403.01 403.19 386.78 410.97 386.78 410.97C384.57 412.81 361.39 423.11 361.39 423.11L365.07 436.68Z" fill="white"/>
<path d="M365.07 437.18C364.958 437.183 364.849 437.149 364.76 437.081C364.671 437.014 364.607 436.918 364.58 436.81L360.91 423.2C360.878 423.086 360.887 422.963 360.936 422.855C360.986 422.747 361.072 422.66 361.18 422.61C369.18 419.06 384.75 411.96 386.46 410.54L386.56 410.47C386.79 410.37 392.17 407.85 397.14 410.81C401.76 413.56 404.35 420.04 404.85 430.06C404.855 430.179 404.817 430.295 404.744 430.389C404.671 430.482 404.566 430.546 404.45 430.57C398.5 431.77 392.63 432.81 390.53 433.13C385.81 433.86 365.35 437.13 365.15 437.18H365.07ZM362 423.35L365.45 436.12C368.45 435.63 386.06 432.81 390.4 432.12C392.4 431.81 398.06 430.82 403.85 429.66C403.32 420.25 400.9 414.19 396.65 411.66C392.4 409.13 387.6 411.1 387.06 411.33C384.67 413.21 365.11 422 362 423.35Z" fill="#263238"/>
<path d="M415.48 414.37C415.371 414.368 415.266 414.331 415.179 414.264C415.093 414.197 415.03 414.105 415 414C410.06 400.23 398.39 402.09 397.89 402.18C397.757 402.203 397.621 402.171 397.512 402.094C397.402 402.016 397.328 401.898 397.305 401.765C397.282 401.632 397.314 401.496 397.391 401.387C397.469 401.277 397.587 401.203 397.72 401.18C397.85 401.18 410.72 399.07 415.94 413.65C415.985 413.775 415.979 413.912 415.923 414.032C415.866 414.152 415.765 414.245 415.64 414.29C415.592 414.326 415.538 414.353 415.48 414.37V414.37Z" fill="#263238"/>
<path d="M370.49 424.33C370.49 424.33 372.34 429.47 371.73 432.76C371.12 436.05 366.58 438.93 363.29 437.29C360 435.65 370.49 424.33 370.49 424.33Z" fill="white"/>
<path d="M365.38 438.26C364.579 438.271 363.786 438.089 363.07 437.73C362.839 437.62 362.638 437.454 362.484 437.249C362.331 437.043 362.23 436.803 362.19 436.55C361.6 433.3 369.25 424.93 370.12 423.99C370.178 423.926 370.252 423.878 370.335 423.852C370.417 423.825 370.505 423.821 370.59 423.84C370.675 423.855 370.754 423.893 370.819 423.949C370.884 424.006 370.933 424.078 370.96 424.16C371.04 424.37 372.85 429.47 372.22 432.85C371.963 433.867 371.483 434.814 370.816 435.624C370.148 436.433 369.31 437.084 368.36 437.53C367.436 437.999 366.416 438.249 365.38 438.26V438.26ZM370.28 425.26C367.03 428.86 362.81 434.35 363.17 436.33C363.182 436.431 363.22 436.527 363.279 436.609C363.339 436.691 363.418 436.757 363.51 436.8C364.211 437.103 364.972 437.242 365.734 437.206C366.497 437.169 367.241 436.959 367.91 436.59C368.728 436.215 369.451 435.661 370.026 434.968C370.6 434.276 371.012 433.463 371.23 432.59C371.68 430.3 370.76 426.84 370.28 425.3V425.26Z" fill="#263238"/>
<path d="M347 424.12C344.57 425.449 342.023 426.55 339.39 427.41C336.3 428.24 334.24 428.41 335.48 430.09C336.72 431.77 341.03 431.94 342.88 431.32C344.354 430.786 345.797 430.169 347.2 429.47L350.08 423.09L347 424.12Z" fill="white"/>
<path d="M340.43 432.14C338.43 432.14 336.07 431.65 335.12 430.39C334.928 430.192 334.791 429.949 334.721 429.683C334.65 429.416 334.65 429.136 334.72 428.87C335.03 428.01 336.25 427.7 338.1 427.24L339.3 426.93C341.894 426.079 344.405 424.991 346.8 423.68H346.88L349.97 422.68C350.062 422.65 350.161 422.648 350.254 422.673C350.347 422.698 350.431 422.75 350.496 422.822C350.56 422.894 350.603 422.983 350.618 423.078C350.633 423.174 350.619 423.272 350.58 423.36L347.7 429.74C347.651 429.843 347.57 429.927 347.47 429.98C346.043 430.688 344.577 431.316 343.08 431.86C342.215 432.082 341.322 432.176 340.43 432.14V432.14ZM347.24 424.58C344.789 425.924 342.218 427.036 339.56 427.9L338.34 428.21C337.15 428.51 335.79 428.85 335.66 429.21C335.66 429.29 335.66 429.49 335.92 429.8C336.92 431.18 340.92 431.47 342.77 430.86C344.166 430.356 345.531 429.771 346.86 429.11L349.2 423.94L347.24 424.58Z" fill="#263238"/>
<path d="M367.82 422.27C367.82 422.27 354.4 416.08 352.19 417.18C349.98 418.28 345.57 425.64 345.19 428.18C344.81 430.72 339.67 440.32 340.77 441.8C341.87 443.28 344.08 441.06 344.82 439.96C345.56 438.86 347.76 433.7 347.76 433.7C347.76 433.7 359.34 439.16 362.66 438.42C365.98 437.68 369.66 427.01 370.38 425.17C371.1 423.33 367.82 422.27 367.82 422.27Z" fill="white"/>
<path d="M341.71 442.83C341.448 442.83 341.19 442.767 340.958 442.645C340.727 442.523 340.528 442.346 340.38 442.13C339.59 441.13 340.76 438.13 342.76 433.37C343.559 431.69 344.208 429.944 344.7 428.15C345.09 425.41 349.65 417.89 351.96 416.73C354.27 415.57 365.67 420.73 367.96 421.8C368.29 421.92 370.19 422.61 370.78 423.89C370.884 424.128 370.937 424.385 370.937 424.645C370.937 424.905 370.884 425.162 370.78 425.4C370.7 425.59 370.59 425.87 370.46 426.23C368.35 431.82 365.56 438.31 362.69 438.95C359.61 439.63 350.19 435.44 347.95 434.41C347.38 435.72 345.79 439.33 345.17 440.27C344.73 440.92 343.17 442.78 341.69 442.83H341.71ZM353 417.53C352.802 417.519 352.603 417.553 352.42 417.63C350.42 418.63 346.05 425.85 345.7 428.29C345.209 430.173 344.539 432.004 343.7 433.76C342.65 436.25 340.7 440.87 341.2 441.54C341.265 441.628 341.349 441.7 341.446 441.751C341.543 441.801 341.651 441.828 341.76 441.83C342.59 441.83 343.87 440.56 344.43 439.72C345.502 437.711 346.47 435.648 347.33 433.54C347.39 433.417 347.493 433.321 347.62 433.27C347.682 433.243 347.748 433.229 347.815 433.229C347.882 433.229 347.949 433.243 348.01 433.27C351.18 434.77 360.01 438.52 362.58 437.95C364.37 437.55 366.74 433.48 369.58 425.86C369.72 425.49 369.83 425.2 369.91 425.01C369.962 424.899 369.989 424.778 369.989 424.655C369.989 424.532 369.962 424.411 369.91 424.3C369.35 423.544 368.561 422.99 367.66 422.72H367.61C363 420.58 355.42 417.53 353 417.53Z" fill="#263238"/>
<path d="M347.77 434.24C347.707 434.254 347.643 434.254 347.58 434.24C347.46 434.187 347.365 434.09 347.315 433.969C347.265 433.848 347.263 433.712 347.31 433.59C347.89 432.19 353.05 419.91 354.94 418.23C355.033 418.138 355.159 418.087 355.29 418.087C355.421 418.087 355.547 418.138 355.64 418.23C355.687 418.276 355.724 418.332 355.749 418.393C355.775 418.454 355.788 418.519 355.788 418.585C355.788 418.651 355.775 418.716 355.749 418.777C355.724 418.838 355.687 418.893 355.64 418.94C354.19 420.23 349.83 430.2 348.28 433.94C348.237 434.037 348.164 434.118 348.073 434.171C347.982 434.225 347.876 434.249 347.77 434.24Z" fill="#263238"/>
<path d="M353.42 436.35C353.357 436.36 353.293 436.36 353.23 436.35C353.169 436.326 353.113 436.29 353.066 436.244C353.019 436.198 352.981 436.143 352.955 436.083C352.929 436.023 352.915 435.958 352.914 435.892C352.914 435.826 352.926 435.761 352.95 435.7C353.16 435.17 358.14 422.65 359.81 420.56C359.892 420.455 360.013 420.387 360.145 420.372C360.277 420.356 360.41 420.393 360.515 420.475C360.62 420.557 360.688 420.678 360.704 420.81C360.719 420.942 360.682 421.075 360.6 421.18C359.33 422.76 355.6 431.61 353.88 436.07C353.839 436.157 353.774 436.229 353.692 436.279C353.61 436.329 353.516 436.353 353.42 436.35V436.35Z" fill="#263238"/>
<path d="M358.76 438.2C358.698 438.214 358.633 438.214 358.57 438.2C358.51 438.174 358.455 438.136 358.409 438.089C358.363 438.041 358.327 437.985 358.303 437.924C358.279 437.863 358.267 437.797 358.268 437.731C358.269 437.665 358.284 437.6 358.31 437.54C358.92 436.12 364.31 423.64 365.41 422.54C365.504 422.448 365.629 422.397 365.76 422.397C365.891 422.397 366.017 422.448 366.11 422.54C366.157 422.587 366.194 422.642 366.22 422.703C366.245 422.764 366.258 422.829 366.258 422.895C366.258 422.961 366.245 423.026 366.22 423.087C366.194 423.148 366.157 423.204 366.11 423.25C365.41 423.95 361.52 432.61 359.22 437.91C359.181 437.998 359.116 438.073 359.034 438.125C358.952 438.176 358.857 438.203 358.76 438.2V438.2Z" fill="#263238"/>
<path d="M307.32 329.52C307.212 329.518 307.108 329.483 307.021 329.418C306.935 329.353 306.872 329.263 306.84 329.16C306.629 328.418 306.682 327.627 306.99 326.92C307.01 326.853 307.044 326.792 307.09 326.739C307.136 326.686 307.192 326.643 307.255 326.614C307.318 326.584 307.386 326.568 307.456 326.566C307.526 326.564 307.595 326.577 307.659 326.604C307.724 326.63 307.782 326.67 307.83 326.72C307.878 326.771 307.915 326.831 307.939 326.896C307.962 326.962 307.972 327.032 307.967 327.101C307.962 327.171 307.943 327.238 307.91 327.3C307.685 327.8 307.646 328.364 307.8 328.89C307.82 328.952 307.827 329.018 307.82 329.083C307.813 329.148 307.793 329.211 307.762 329.268C307.73 329.325 307.687 329.375 307.635 329.415C307.583 329.455 307.523 329.484 307.46 329.5C307.415 329.516 307.368 329.523 307.32 329.52V329.52Z" fill="#263238"/>
<path d="M308 326.61C307.904 326.612 307.81 326.584 307.73 326.53C307.619 326.458 307.541 326.345 307.512 326.216C307.484 326.087 307.509 325.951 307.58 325.84L307.94 325.3C308.431 324.657 308.812 323.937 309.07 323.17C309.406 321.47 309.406 319.72 309.07 318.02C309.046 317.889 309.075 317.754 309.15 317.644C309.225 317.533 309.339 317.457 309.47 317.43C309.598 317.406 309.731 317.434 309.839 317.507C309.948 317.58 310.023 317.692 310.05 317.82C310.424 319.678 310.424 321.592 310.05 323.45C309.767 324.318 309.341 325.132 308.79 325.86L308.44 326.38C308.395 326.455 308.33 326.516 308.252 326.556C308.174 326.597 308.087 326.615 308 326.61V326.61Z" fill="#263238"/>
<path d="M303.52 328.57C303.42 328.57 303.322 328.541 303.238 328.486C303.155 328.431 303.089 328.352 303.05 328.26C302.18 326.08 303.05 325 303.93 323.96C304.56 323.304 305.014 322.499 305.25 321.62C305.562 319.583 305.456 317.505 304.94 315.51C304.906 315.377 304.925 315.237 304.995 315.118C305.064 315 305.177 314.915 305.31 314.88C305.443 314.846 305.584 314.865 305.702 314.935C305.82 315.004 305.906 315.117 305.94 315.25C306.507 317.396 306.62 319.638 306.27 321.83C306.005 322.869 305.478 323.822 304.74 324.6C303.92 325.6 303.37 326.26 304.02 327.88C304.044 327.941 304.057 328.006 304.056 328.072C304.055 328.138 304.041 328.203 304.015 328.263C303.989 328.323 303.951 328.378 303.904 328.424C303.857 328.47 303.801 328.506 303.74 328.53C303.672 328.565 303.596 328.578 303.52 328.57V328.57Z" fill="#263238"/>
<path d="M336.6 463.5L365.71 444.91H254.6L229.48 463.5H336.6Z" fill="white"/>
<path d="M336.6 464H229.48C229.376 463.998 229.275 463.963 229.192 463.901C229.108 463.839 229.046 463.753 229.014 463.653C228.982 463.554 228.982 463.448 229.013 463.349C229.045 463.249 229.107 463.162 229.19 463.1L254.31 444.51C254.392 444.444 254.495 444.408 254.6 444.41H365.71C365.818 444.41 365.923 444.445 366.01 444.51C366.097 444.575 366.16 444.666 366.19 444.77C366.22 444.873 366.216 444.984 366.178 445.085C366.14 445.186 366.071 445.272 365.98 445.33L336.87 463.93C336.788 463.977 336.695 464.001 336.6 464V464ZM231 463H336.45L364 445.41H254.77L231 463Z" fill="#263238"/>
<path d="M333.74 458.56L348.64 448.63L257.71 448.01L240.64 459.19L333.74 458.56Z" fill="white"/>
<path d="M240.64 459.69C240.532 459.69 240.427 459.655 240.34 459.59C240.253 459.525 240.19 459.434 240.16 459.33C240.13 459.226 240.134 459.116 240.172 459.015C240.21 458.914 240.279 458.828 240.37 458.77L257.43 447.59C257.519 447.55 257.613 447.523 257.71 447.51L348.64 448.13C348.747 448.133 348.851 448.169 348.937 448.234C349.023 448.298 349.087 448.388 349.12 448.49C349.149 448.593 349.146 448.702 349.11 448.802C349.074 448.903 349.008 448.989 348.92 449.05L334 459C333.92 459.054 333.826 459.085 333.73 459.09L240.62 459.71L240.64 459.69ZM257.86 448.51L242.33 458.67L333.59 458.07L347 449.12L257.86 448.51Z" fill="#263238"/>
<path d="M336.6 463.5H229.48L219.91 389.67H327.02L336.6 463.5Z" fill="white"/>
<path d="M336.6 464H229.48C229.36 464.001 229.243 463.958 229.153 463.878C229.063 463.799 229.005 463.689 228.99 463.57L219.42 389.73C219.409 389.66 219.414 389.589 219.434 389.521C219.455 389.453 219.491 389.391 219.54 389.34C219.585 389.286 219.642 389.243 219.706 389.214C219.77 389.184 219.84 389.169 219.91 389.17H327C327.121 389.169 327.239 389.212 327.331 389.291C327.423 389.37 327.483 389.48 327.5 389.6L337.07 463.44C337.081 463.51 337.076 463.581 337.056 463.649C337.035 463.717 336.999 463.779 336.95 463.83C336.907 463.881 336.853 463.923 336.793 463.952C336.733 463.981 336.667 463.998 336.6 464ZM229.92 463H336L326.55 390.17H220.48L229.92 463Z" fill="#263238"/>
<path d="M328.63 402C296.02 400.1 288.74 421.86 261.46 443.14C247.74 453.84 236.91 458.52 229.08 460.4L229.48 463.48H336.6L328.63 402Z" fill="white"/>
<path d="M336.6 464H229.48C229.36 464.001 229.243 463.958 229.153 463.878C229.063 463.799 229.005 463.689 228.99 463.57L228.59 460.48C228.574 460.358 228.604 460.234 228.675 460.132C228.745 460.031 228.85 459.959 228.97 459.93C238.73 457.59 249.55 451.81 261.15 442.77C268.2 437.102 274.88 430.99 281.15 424.47C294.7 410.89 305.4 400.17 328.61 401.47C328.727 401.478 328.838 401.526 328.923 401.606C329.009 401.687 329.064 401.794 329.08 401.91L337.08 463.39C337.091 463.46 337.086 463.531 337.066 463.599C337.045 463.667 337.009 463.729 336.96 463.78C336.921 463.842 336.868 463.894 336.805 463.932C336.743 463.97 336.673 463.993 336.6 464ZM229.92 463H336L328.15 402.5C305.7 401.31 295.68 411.34 281.87 425.17C275.561 431.728 268.833 437.871 261.73 443.56C250.2 452.56 239.39 458.35 229.61 460.8L229.92 463Z" fill="#263238"/>
</svg>
