<svg width="500" height="500" viewBox="0 0 500 500" fill="none" xmlns="http://www.w3.org/2000/svg">
<path d="M386.27 184.61C345.55 120.68 358.73 49.5 296.54 26C232.31 1.72 194.02 66.8 121.54 103.69C73.81 127.97 42.18 104.13 27.72 151.38C1.86004 235.88 23.97 372.59 109.35 438.15C208.73 514.45 464.85 483.15 481.66 347.29C489.91 280.3 424 243.86 386.27 184.61Z" fill="#9E7CE1"/>
<path opacity="0.8" d="M386.27 184.61C345.55 120.68 358.73 49.5 296.54 26C232.31 1.72 194.02 66.8 121.54 103.69C73.81 127.97 42.18 104.13 27.72 151.38C1.86004 235.88 23.97 372.59 109.35 438.15C208.73 514.45 464.85 483.15 481.66 347.29C489.91 280.3 424 243.86 386.27 184.61Z" fill="white"/>
<path d="M228.87 200.17L229.37 202.95" stroke="#263238" stroke-linecap="round" stroke-linejoin="round"/>
<path d="M210.52 180.81C214.356 180.15 218.298 181.036 221.483 183.273C224.669 185.51 226.839 188.917 227.52 192.75L228.34 197.41" stroke="#263238" stroke-linecap="round" stroke-linejoin="round"/>
<path d="M164.23 188.98L207.14 181.41" stroke="#263238" stroke-linecap="round" stroke-linejoin="round"/>
<path d="M158.26 190.03L161.11 189.52" stroke="#263238" stroke-linecap="round" stroke-linejoin="round"/>
<path d="M134.08 204.39L126.89 205.66C125.222 205.953 123.628 206.573 122.199 207.482C120.771 208.392 119.535 209.575 118.564 210.962C117.592 212.35 116.904 213.915 116.538 215.569C116.172 217.222 116.135 218.932 116.43 220.6L146.43 390.51C147.019 393.875 148.918 396.869 151.711 398.836C154.504 400.802 157.964 401.581 161.33 401L168.52 399.73L134.08 204.39Z" fill="#999999" stroke="#263238" stroke-linecap="round" stroke-linejoin="round"/>
<path d="M241.74 386.8L164.12 400.48C162.924 400.691 161.699 400.665 160.513 400.403C159.327 400.14 158.205 399.646 157.21 398.95C156.216 398.253 155.368 397.368 154.716 396.343C154.064 395.319 153.62 394.176 153.41 392.98L122.18 215.88C121.968 214.684 121.995 213.457 122.257 212.271C122.519 211.085 123.013 209.962 123.709 208.966C124.406 207.971 125.292 207.122 126.316 206.469C127.341 205.816 128.484 205.371 129.68 205.16L145.54 202.36L207.3 191.48C209.716 191.059 212.2 191.615 214.207 193.025C216.213 194.435 217.578 196.584 218 199L227 249.76L249.27 376.08C249.481 377.278 249.454 378.507 249.19 379.695C248.925 380.883 248.429 382.007 247.73 383.003C247.03 383.999 246.141 384.847 245.113 385.498C244.085 386.15 242.939 386.592 241.74 386.8Z" fill="#263238" stroke="#263238" stroke-linecap="round" stroke-linejoin="round"/>
<path d="M204.66 197.53L188.38 200.4L188.67 204.53C188.762 205.856 188.361 207.17 187.543 208.219C186.725 209.267 185.549 209.976 184.24 210.21L157.75 214.88C156.441 215.109 155.093 214.846 153.967 214.14C152.841 213.435 152.015 212.338 151.65 211.06L150.51 207.06L134.23 209.93C132.297 210.274 130.58 211.37 129.455 212.979C128.33 214.588 127.89 216.577 128.23 218.51L158.23 388.42C158.574 390.351 159.669 392.066 161.275 393.191C162.882 394.315 164.868 394.757 166.8 394.42L237.19 382C239.123 381.656 240.84 380.56 241.965 378.951C243.09 377.342 243.53 375.353 243.19 373.42L213.19 203.51C212.844 201.59 211.753 199.885 210.156 198.765C208.558 197.645 206.583 197.201 204.66 197.53V197.53Z" fill="#9E7CE1"/>
<path opacity="0.3" d="M178.75 406.58H142.18L185.9 179.04H222.47L178.75 406.58Z" fill="white"/>
<path d="M204.66 197.53L188.38 200.4L188.67 204.53C188.762 205.856 188.361 207.17 187.543 208.219C186.725 209.267 185.549 209.976 184.24 210.21L157.75 214.88C156.441 215.109 155.093 214.846 153.967 214.14C152.841 213.435 152.015 212.338 151.65 211.06L150.51 207.06L134.23 209.93C132.297 210.274 130.58 211.37 129.455 212.979C128.33 214.588 127.89 216.577 128.23 218.51L158.23 388.42C158.574 390.351 159.669 392.066 161.275 393.191C162.882 394.315 164.868 394.757 166.8 394.42L237.19 382C239.123 381.656 240.84 380.56 241.965 378.951C243.09 377.342 243.53 375.353 243.19 373.42L213.19 203.51C212.844 201.59 211.753 199.885 210.156 198.765C208.558 197.645 206.583 197.201 204.66 197.53V197.53Z" stroke="#263238" stroke-linecap="round" stroke-linejoin="round"/>
<path d="M164.19 208.05C164.265 208.471 164.213 208.904 164.041 209.296C163.869 209.687 163.585 210.019 163.225 210.248C162.865 210.478 162.444 210.596 162.017 210.587C161.59 210.578 161.175 210.442 160.825 210.197C160.475 209.952 160.205 209.608 160.05 209.21C159.895 208.812 159.862 208.376 159.955 207.959C160.047 207.542 160.262 207.162 160.571 206.866C160.88 206.571 161.269 206.374 161.69 206.3C162.253 206.204 162.832 206.334 163.3 206.661C163.768 206.989 164.088 207.488 164.19 208.05V208.05Z" fill="#9E7CE1" stroke="#263238" stroke-linecap="round" stroke-linejoin="round"/>
<path d="M178.82 204.34L168 206.25C167.856 206.275 167.719 206.328 167.595 206.406C167.472 206.484 167.365 206.586 167.281 206.705C167.197 206.824 167.138 206.959 167.106 207.101C167.074 207.244 167.07 207.391 167.095 207.535C167.12 207.679 167.173 207.816 167.251 207.94C167.329 208.063 167.431 208.17 167.55 208.254C167.669 208.338 167.804 208.397 167.946 208.429C168.089 208.461 168.236 208.465 168.38 208.44L179.21 206.53C179.5 206.478 179.758 206.313 179.927 206.071C180.096 205.829 180.162 205.53 180.11 205.24C180.058 204.95 179.893 204.692 179.651 204.523C179.409 204.354 179.11 204.288 178.82 204.34V204.34Z" fill="#9E7CE1" stroke="#263238" stroke-linecap="round" stroke-linejoin="round"/>
<path d="M212.06 379.71L189.59 383.71C189.437 383.724 189.289 383.77 189.155 383.844C189.021 383.918 188.904 384.019 188.811 384.141C188.718 384.263 188.651 384.402 188.614 384.551C188.578 384.7 188.573 384.855 188.599 385.006C188.625 385.157 188.683 385.301 188.767 385.428C188.852 385.556 188.962 385.665 189.091 385.748C189.22 385.831 189.364 385.887 189.516 385.911C189.667 385.935 189.822 385.928 189.97 385.89L212.45 381.89C212.594 381.864 212.731 381.811 212.854 381.732C212.977 381.653 213.084 381.551 213.167 381.431C213.251 381.312 213.31 381.176 213.341 381.034C213.373 380.891 213.376 380.744 213.35 380.6C213.324 380.456 213.271 380.319 213.192 380.196C213.113 380.073 213.011 379.966 212.891 379.883C212.772 379.799 212.636 379.74 212.494 379.709C212.351 379.677 212.204 379.674 212.06 379.7V379.71Z" fill="white"/>
<path d="M204.91 227.8L144.34 238.48C143.608 238.611 142.857 238.596 142.13 238.436C141.404 238.276 140.716 237.974 140.107 237.547C139.497 237.121 138.978 236.578 138.579 235.951C138.179 235.323 137.908 234.623 137.78 233.89C137.651 233.158 137.666 232.407 137.827 231.681C137.988 230.955 138.29 230.268 138.716 229.659C139.142 229.05 139.684 228.531 140.311 228.131C140.938 227.731 141.638 227.459 142.37 227.33L202.94 216.65C203.672 216.52 204.423 216.536 205.149 216.697C205.875 216.858 206.562 217.16 207.171 217.586C207.78 218.012 208.299 218.554 208.699 219.181C209.099 219.808 209.371 220.508 209.5 221.24V221.24C209.63 221.972 209.614 222.723 209.453 223.449C209.292 224.175 208.99 224.862 208.564 225.471C208.138 226.08 207.596 226.599 206.969 226.999C206.342 227.399 205.642 227.671 204.91 227.8V227.8Z" fill="white" stroke="#263238" stroke-linecap="round" stroke-linejoin="round"/>
<path opacity="0.2" d="M217.88 301.37L157.31 312.05C155.832 312.309 154.311 311.971 153.081 311.111C151.852 310.25 151.013 308.937 150.75 307.46V307.46C150.491 305.98 150.83 304.458 151.693 303.228C152.555 301.998 153.871 301.161 155.35 300.9L215.91 290.22C216.642 290.089 217.393 290.104 218.12 290.264C218.846 290.424 219.534 290.726 220.143 291.153C220.753 291.579 221.272 292.122 221.671 292.749C222.071 293.377 222.342 294.077 222.47 294.81V294.81C222.601 295.542 222.586 296.293 222.426 297.02C222.266 297.746 221.964 298.434 221.537 299.043C221.111 299.653 220.568 300.172 219.941 300.571C219.313 300.971 218.613 301.242 217.88 301.37Z" fill="#263238"/>
<path opacity="0.2" d="M206.51 321.65L160.44 329.77C159.708 329.901 158.957 329.886 158.23 329.726C157.504 329.566 156.816 329.264 156.207 328.837C155.597 328.411 155.078 327.868 154.679 327.241C154.279 326.613 154.008 325.913 153.88 325.18C153.749 324.448 153.764 323.697 153.924 322.97C154.084 322.244 154.386 321.556 154.813 320.947C155.239 320.337 155.782 319.818 156.409 319.419C157.037 319.019 157.737 318.748 158.47 318.62L204.54 310.49C206.02 310.231 207.542 310.57 208.772 311.433C210.002 312.295 210.839 313.611 211.1 315.09V315.09C211.231 315.822 211.216 316.573 211.056 317.3C210.896 318.026 210.594 318.714 210.168 319.323C209.741 319.933 209.198 320.452 208.571 320.851C207.943 321.251 207.243 321.522 206.51 321.65V321.65Z" fill="#263238"/>
<path opacity="0.2" d="M211.64 233.382L139.916 246.029L148.605 295.309L220.329 282.662L211.64 233.382Z" fill="black"/>
<path opacity="0.5" d="M207.41 330.67L157.54 339.47C157.247 339.52 156.947 339.452 156.703 339.282C156.46 339.111 156.294 338.852 156.24 338.56V338.56C156.188 338.266 156.254 337.963 156.424 337.717C156.595 337.471 156.856 337.304 157.15 337.25L207 328.46C207.293 328.41 207.593 328.478 207.837 328.648C208.08 328.819 208.246 329.078 208.3 329.37V329.37C208.35 329.66 208.285 329.958 208.119 330.201C207.953 330.443 207.698 330.612 207.41 330.67V330.67Z" fill="#263238"/>
<path opacity="0.5" d="M219.74 337.68L159.11 348.37C158.965 348.396 158.816 348.393 158.672 348.361C158.528 348.329 158.392 348.269 158.271 348.185C158.15 348.1 158.047 347.993 157.968 347.868C157.889 347.744 157.835 347.605 157.81 347.46V347.46C157.784 347.315 157.787 347.166 157.819 347.022C157.851 346.878 157.911 346.742 157.995 346.621C158.08 346.5 158.187 346.397 158.312 346.318C158.436 346.239 158.575 346.185 158.72 346.16L219.35 335.47C219.495 335.444 219.644 335.447 219.788 335.479C219.932 335.511 220.068 335.571 220.189 335.655C220.31 335.74 220.413 335.847 220.492 335.972C220.571 336.096 220.625 336.235 220.65 336.38V336.38C220.676 336.525 220.673 336.674 220.641 336.818C220.609 336.962 220.55 337.098 220.465 337.219C220.38 337.34 220.273 337.443 220.148 337.522C220.024 337.601 219.885 337.655 219.74 337.68Z" fill="#263238"/>
<path opacity="0.5" d="M205.49 349.38L160.68 357.28C160.535 357.306 160.386 357.303 160.242 357.271C160.098 357.239 159.962 357.179 159.841 357.095C159.72 357.01 159.617 356.903 159.538 356.778C159.459 356.654 159.405 356.515 159.38 356.37C159.354 356.225 159.357 356.076 159.389 355.932C159.421 355.788 159.481 355.652 159.565 355.531C159.65 355.41 159.757 355.307 159.882 355.228C160.006 355.149 160.145 355.095 160.29 355.07L205.1 347.17C205.393 347.12 205.693 347.188 205.937 347.358C206.18 347.529 206.346 347.788 206.4 348.08V348.08C206.426 348.225 206.423 348.374 206.391 348.518C206.359 348.662 206.3 348.798 206.215 348.919C206.13 349.04 206.023 349.143 205.899 349.222C205.774 349.301 205.635 349.355 205.49 349.38V349.38Z" fill="#263238"/>
<path opacity="0.5" d="M213 357.24L162.23 366.19C161.936 366.239 161.634 366.17 161.39 365.998C161.147 365.826 160.981 365.564 160.93 365.27V365.27C160.88 364.977 160.948 364.677 161.118 364.433C161.289 364.19 161.548 364.024 161.84 363.97L212.6 354.97C212.894 354.918 213.197 354.984 213.443 355.154C213.689 355.325 213.856 355.586 213.91 355.88V355.88C213.941 356.029 213.941 356.183 213.912 356.332C213.883 356.482 213.824 356.624 213.739 356.75C213.655 356.877 213.546 356.985 213.419 357.069C213.292 357.153 213.15 357.211 213 357.24V357.24Z" fill="#263238"/>
<path opacity="0.5" d="M218.75 365.41L163.82 375.09C163.675 375.116 163.526 375.113 163.382 375.081C163.238 375.049 163.102 374.989 162.981 374.905C162.86 374.82 162.757 374.713 162.678 374.588C162.599 374.464 162.545 374.325 162.52 374.18V374.18C162.494 374.035 162.497 373.886 162.529 373.742C162.561 373.598 162.62 373.462 162.705 373.341C162.79 373.22 162.897 373.117 163.022 373.038C163.146 372.959 163.285 372.905 163.43 372.88L218.36 363.19C218.654 363.143 218.954 363.213 219.197 363.385C219.44 363.557 219.606 363.817 219.66 364.11V364.11C219.71 364.403 219.642 364.703 219.472 364.947C219.301 365.19 219.042 365.356 218.75 365.41Z" fill="#263238"/>
<path d="M201.54 224.37C200.911 224.48 200.264 224.367 199.71 224.05L199.44 225.32L198.44 226.76C198.336 226.877 198.194 226.954 198.04 226.98C197.851 227.009 197.657 226.962 197.502 226.85C197.347 226.738 197.242 226.569 197.21 226.38C197.179 226.227 197.201 226.069 197.27 225.93L198.27 224.49L199.37 223.79C198.882 223.378 198.553 222.809 198.44 222.18C198.318 221.481 198.479 220.762 198.887 220.182C199.294 219.602 199.916 219.207 200.615 219.085C201.314 218.963 202.033 219.124 202.613 219.532C203.193 219.939 203.588 220.561 203.71 221.26C203.774 221.605 203.77 221.96 203.696 222.303C203.622 222.646 203.481 222.972 203.28 223.26C202.87 223.846 202.244 224.245 201.54 224.37V224.37ZM201.36 223.37C201.739 223.306 202.085 223.113 202.337 222.824C202.59 222.534 202.734 222.165 202.745 221.781C202.756 221.397 202.634 221.02 202.398 220.716C202.163 220.412 201.829 220.2 201.454 220.114C201.079 220.029 200.687 220.076 200.343 220.248C199.999 220.421 199.726 220.707 199.569 221.058C199.413 221.409 199.383 221.804 199.486 222.174C199.588 222.545 199.816 222.869 200.13 223.09C200.489 223.338 200.93 223.435 201.36 223.36V223.37Z" fill="#9E7CE1"/>
<path opacity="0.2" d="M181.2 267.35L193.9 250.76L161.14 256.55C159.584 256.812 157.988 256.451 156.697 255.546C155.406 254.64 154.523 253.262 154.24 251.71L145.54 202.36L207.3 191.48C209.716 191.059 212.2 191.615 214.207 193.025C216.213 194.435 217.578 196.584 218 199L227 249.76L181.2 267.35Z" fill="black"/>
<path d="M391.55 199.17L259 222.54L181.2 267.35L202.82 232.45L170.06 238.23C168.505 238.492 166.908 238.131 165.617 237.226C164.326 236.32 163.443 234.942 163.16 233.39L135.16 74.48C134.895 72.923 135.254 71.3243 136.16 70.0307C137.067 68.7371 138.446 67.8529 140 67.57L361.48 28.57C363.035 28.3047 364.633 28.6628 365.926 29.5669C367.22 30.4709 368.105 31.848 368.39 33.4L396.39 192.32C396.638 193.868 396.27 195.451 395.366 196.731C394.461 198.011 393.092 198.887 391.55 199.17V199.17Z" fill="#999999" stroke="#263238" stroke-linecap="round" stroke-linejoin="round"/>
<path opacity="0.6" d="M386 193.12C386.902 192.959 387.704 192.448 388.232 191.699C388.76 190.951 388.971 190.024 388.82 189.12L362.31 38.94C362.146 38.0392 361.635 37.2388 360.887 36.7113C360.139 36.1838 359.213 35.9715 358.31 36.12L145.56 73.63C144.657 73.7913 143.854 74.3013 143.325 75.0498C142.795 75.7983 142.582 76.7252 142.73 77.63L169.21 227.78C169.374 228.681 169.885 229.481 170.633 230.009C171.381 230.536 172.307 230.749 173.21 230.6L386 193.12Z" fill="white"/>
<path d="M388.78 189.09L362.31 38.94C362.146 38.0392 361.635 37.2388 360.887 36.7113C360.139 36.1838 359.213 35.9715 358.31 36.12L145.56 73.63C144.657 73.7913 143.854 74.3013 143.325 75.0498C142.795 75.7983 142.582 76.7252 142.73 77.63L169.21 227.78C169.374 228.681 169.885 229.481 170.633 230.009C171.381 230.536 172.307 230.749 173.21 230.6L386 193.12C386.901 192.95 387.698 192.431 388.218 191.677C388.739 190.922 388.941 189.992 388.78 189.09V189.09Z" fill="#9E7CE1"/>
<path d="M388.78 189.09L362.31 38.94C362.146 38.0392 361.635 37.2388 360.887 36.7113C360.139 36.1838 359.213 35.9715 358.31 36.12L145.56 73.63C144.657 73.7913 143.854 74.3013 143.325 75.0498C142.795 75.7983 142.582 76.7252 142.73 77.63L169.21 227.78C169.374 228.681 169.885 229.481 170.633 230.009C171.381 230.536 172.307 230.749 173.21 230.6L386 193.12C386.901 192.95 387.698 192.431 388.218 191.677C388.739 190.922 388.941 189.992 388.78 189.09V189.09Z" stroke="#263238" stroke-linecap="round" stroke-linejoin="round"/>
<path d="M376.61 32.59C376.988 34.7484 376.718 36.9704 375.834 38.9753C374.949 40.9801 373.49 42.6777 371.641 43.8533C369.792 45.029 367.635 45.6299 365.445 45.5801C363.254 45.5304 361.127 44.8322 359.333 43.5738C357.539 42.3154 356.159 40.5533 355.366 38.5104C354.574 36.4675 354.405 34.2354 354.881 32.0965C355.357 29.9575 356.456 28.0077 358.04 26.4936C359.624 24.9794 361.622 23.969 363.78 23.59C365.213 23.3369 366.683 23.3691 368.104 23.6846C369.525 24.0001 370.87 24.5929 372.062 25.4288C373.253 26.2648 374.269 27.3276 375.049 28.5564C375.829 29.7852 376.36 31.1559 376.61 32.59V32.59Z" fill="#9E7CE1" stroke="#263238" stroke-linecap="round" stroke-linejoin="round"/>
<path d="M360.4 30.8L371 38.23" stroke="#263238" stroke-width="1.5" stroke-linecap="round" stroke-linejoin="round"/>
<path d="M369.41 29.21L361.99 39.82" stroke="#263238" stroke-width="1.5" stroke-linecap="round" stroke-linejoin="round"/>
<g opacity="0.2">
<path opacity="0.2" d="M250.05 78.94L263.33 66.71L274.28 81.06L291.9 77.11L294.2 95.01L311.44 100.39L304.48 117.06L316.72 130.33L302.36 141.28L306.32 158.9L288.41 161.2L283.03 178.44L266.37 171.48L253.09 183.72L242.14 169.36L224.53 173.32L222.22 155.41L204.99 150.03L211.94 133.37L199.71 120.09L214.06 109.14L210.1 91.53L228.01 89.22L233.39 71.99L250.05 78.94Z" fill="black"/>
</g>
<path d="M253.05 72.94L266.33 60.71L277.28 75.06L294.9 71.11L297.2 89.01L314.44 94.39L307.48 111.06L319.72 124.33L305.36 135.28L309.32 152.9L291.41 155.2L286.03 172.44L269.37 165.48L256.09 177.72L245.14 163.36L227.53 167.32L225.22 149.41L207.99 144.03L214.94 127.37L202.71 114.09L217.06 103.14L213.1 85.53L231.01 83.22L236.39 65.99L253.05 72.94Z" fill="white" stroke="#263238" stroke-linecap="round" stroke-linejoin="round"/>
<path d="M305.394 178.483L243.183 189.452C241.041 189.83 239.61 191.874 239.988 194.016L241.62 203.274C241.998 205.417 244.041 206.848 246.184 206.47L308.394 195.5C310.537 195.122 311.968 193.079 311.59 190.936L309.958 181.679C309.58 179.536 307.537 178.105 305.394 178.483Z" fill="#263238"/>
<path d="M305.394 178.483L243.183 189.452C241.041 189.83 239.61 191.874 239.988 194.016L241.62 203.274C241.998 205.417 244.041 206.848 246.184 206.47L308.394 195.5C310.537 195.122 311.968 193.079 311.59 190.936L309.958 181.679C309.58 179.536 307.537 178.105 305.394 178.483Z" stroke="#263238" stroke-linecap="round" stroke-linejoin="round"/>
<path d="M259.89 197.15L259.26 193.58C259.215 193.374 259.211 193.162 259.25 192.955C259.289 192.748 259.37 192.551 259.487 192.376C259.604 192.201 259.755 192.052 259.932 191.937C260.108 191.822 260.306 191.744 260.513 191.708C260.72 191.671 260.933 191.677 261.138 191.725C261.343 191.773 261.536 191.862 261.706 191.986C261.876 192.111 262.018 192.268 262.126 192.449C262.233 192.63 262.302 192.831 262.33 193.04L262.46 193.74L261.46 193.92L261.32 193.15C261.25 192.71 261.01 192.57 260.69 192.62C260.37 192.67 260.2 192.89 260.28 193.33L260.93 197.04C261.01 197.48 261.25 197.61 261.56 197.56C261.87 197.51 262.06 197.29 261.98 196.86L261.8 195.86L262.8 195.69L262.96 196.63C263.005 196.836 263.009 197.048 262.97 197.255C262.931 197.462 262.85 197.659 262.733 197.834C262.616 198.008 262.465 198.158 262.288 198.273C262.112 198.388 261.914 198.466 261.707 198.502C261.5 198.539 261.287 198.533 261.082 198.485C260.877 198.437 260.684 198.348 260.514 198.224C260.344 198.099 260.202 197.942 260.094 197.761C259.987 197.58 259.918 197.379 259.89 197.17V197.15Z" fill="#9E7CE1"/>
<path d="M262.69 191.39L263.69 191.21L264.69 196.9L266.41 196.6L266.58 197.6L263.82 198.08L262.69 191.39Z" fill="#9E7CE1"/>
<path d="M266 190.82L267 190.63L268.17 197.28L267.17 197.46L266 190.82Z" fill="#9E7CE1"/>
<path d="M268.6 195.61L268 192C267.943 191.789 267.93 191.569 267.963 191.353C267.996 191.138 268.073 190.931 268.19 190.747C268.307 190.563 268.462 190.405 268.643 190.284C268.825 190.163 269.029 190.081 269.244 190.043C269.459 190.005 269.68 190.013 269.891 190.065C270.103 190.117 270.302 190.213 270.475 190.346C270.647 190.48 270.79 190.648 270.895 190.839C270.999 191.031 271.062 191.242 271.08 191.46L271.2 192.16L270.2 192.34L270.06 191.57C269.98 191.13 269.74 190.99 269.43 191.04C269.12 191.09 268.94 191.32 269.02 191.75L269.67 195.46C269.75 195.9 269.99 196.04 270.3 195.98C270.61 195.92 270.79 195.72 270.71 195.28L270.54 194.28L271.54 194.11L271.71 195.05C271.767 195.261 271.78 195.481 271.747 195.697C271.714 195.912 271.637 196.119 271.52 196.303C271.402 196.487 271.248 196.645 271.067 196.766C270.885 196.887 270.681 196.969 270.466 197.007C270.251 197.045 270.03 197.037 269.819 196.985C269.607 196.933 269.408 196.837 269.235 196.703C269.063 196.57 268.92 196.402 268.815 196.211C268.711 196.019 268.648 195.807 268.63 195.59L268.6 195.61Z" fill="#9E7CE1"/>
<path d="M271.4 189.85L272.45 189.67L272.94 192.47L273.77 189.47L274.82 189.28L274 191.94L276 195.94L274.91 196.13L273.5 193.33L273.23 194.25L273.61 196.36L272.56 196.55L271.4 189.85Z" fill="#9E7CE1"/>
<path d="M276.85 188.89L277.85 188.71L278.33 191.42L279.45 191.22L278.97 188.51L279.97 188.33L281.14 194.97L280.14 195.16L279.61 192.16L278.49 192.35L279.02 195.35L278.02 195.54L276.85 188.89Z" fill="#9E7CE1"/>
<path d="M280.83 188.19L283.68 187.69L283.84 188.64L282 189L282.31 190.75L283.74 190.5L283.91 191.45L282.48 191.7L282.84 193.7L284.64 193.38L284.81 194.38L281.96 194.89L280.83 188.19Z" fill="#9E7CE1"/>
<path d="M284.27 187.59L285.82 187.31C286.024 187.237 286.242 187.213 286.457 187.241C286.671 187.269 286.876 187.348 287.054 187.472C287.232 187.595 287.378 187.759 287.48 187.95C287.582 188.141 287.637 188.354 287.64 188.57L287.71 188.98C287.796 189.235 287.799 189.511 287.719 189.768C287.638 190.026 287.477 190.25 287.26 190.41V190.41C287.81 190.47 288.07 190.94 288.2 191.69L288.41 192.85C288.432 193.129 288.518 193.399 288.66 193.64L287.6 193.83C287.463 193.584 287.381 193.311 287.36 193.03L287.15 191.81C287.04 191.2 286.82 191.03 286.35 191.11L285.99 191.18L286.49 194.02L285.44 194.21L284.27 187.59ZM286.2 190.18C286.59 190.11 286.79 189.9 286.7 189.37L286.61 188.86C286.53 188.38 286.33 188.2 285.96 188.27L285.48 188.35L285.82 190.25L286.2 190.18Z" fill="#9E7CE1"/>
<path d="M288.1 186.91L290.94 186.41L291.11 187.41L289.31 187.73L289.62 189.48L291.05 189.23L291.22 190.18L289.78 190.43L290.14 192.43L291.95 192.11L292.11 193.11L289.27 193.61L288.1 186.91Z" fill="#9E7CE1"/>
<path d="M240.78 77.92C242.73 79.38 244 81.81 244.61 85.19L245.61 90.62C246.21 94.0133 245.85 96.7267 244.53 98.76C243.21 100.793 240.917 102.107 237.65 102.7L234.55 103.25L237.35 118.96L230.78 120.13L223.33 78.33L233 76.6C236.23 76 238.84 76.46 240.78 77.92ZM233.45 97.28L236.56 96.73C237.01 96.683 237.445 96.5399 237.834 96.3105C238.224 96.081 238.56 95.7705 238.82 95.4C239.287 94.4023 239.379 93.2701 239.08 92.21L238 85.94C237.916 84.8418 237.436 83.8114 236.65 83.04C236.281 82.7804 235.86 82.6047 235.416 82.5252C234.972 82.4458 234.516 82.4645 234.08 82.58L230.97 83.13L233.45 97.28Z" fill="#263238"/>
<path d="M248.54 76.17C249.93 74.03 252.23 72.68 255.46 72.1C258.69 71.52 261.31 72 263.35 73.53C265.39 75.06 266.71 77.53 267.3 80.83L271.18 102.57C271.78 105.91 271.38 108.65 270 110.79C268.62 112.93 266.31 114.28 263.08 114.86C259.85 115.44 257.22 114.96 255.19 113.43C253.16 111.9 251.83 109.43 251.19 106.13L247.32 84.39C246.76 81.05 247.16 78.31 248.54 76.17ZM262 108.89C264.27 108.48 265.15 106.89 264.67 104.16L260.67 81.59C260.177 78.8433 258.797 77.67 256.53 78.07C254.26 78.48 253.37 80.07 253.86 82.8L257.86 105.37C258.367 108.123 259.747 109.297 262 108.89Z" fill="#263238"/>
<path d="M287.24 69.64C289.187 71.1 290.46 73.52 291.06 76.9L292.06 82.34C292.673 85.72 292.317 88.4333 290.99 90.48C289.67 92.48 287.37 93.83 284.11 94.41L281 95L283.8 110.7L277.23 111.87L269.75 70L279.43 68.28C282.69 67.74 285.3 68.18 287.24 69.64ZM279.91 89L283.02 88.44C283.468 88.3947 283.901 88.2533 284.289 88.0255C284.677 87.7977 285.012 87.4889 285.27 87.12C285.739 86.1233 285.835 84.9913 285.54 83.93L284.42 77.66C284.329 76.5636 283.85 75.5356 283.07 74.76C282.7 74.4985 282.278 74.3209 281.832 74.2397C281.386 74.1586 280.928 74.1757 280.49 74.29L277.39 74.85L279.91 89Z" fill="#263238"/>
<path d="M255.34 152.14C255.82 154.85 257.2 156 259.46 155.59C261.72 155.18 262.63 153.59 262.14 150.92L256.39 118.68L262.6 117.57L268.28 149.4C268.88 152.78 268.507 155.527 267.16 157.64C265.813 159.753 263.547 161.087 260.36 161.64C257.18 162.207 254.59 161.737 252.59 160.23C250.59 158.71 249.3 156.23 248.69 152.88L243 121.06L249.57 119.89L255.34 152.14Z" fill="#9E7CE1" stroke="#263238" stroke-linecap="round" stroke-linejoin="round"/>
<path d="M284.57 116.37C286.51 117.83 287.79 120.25 288.39 123.63L289.39 129.07C289.99 132.45 289.64 135.16 288.32 137.21C287 139.26 284.7 140.56 281.44 141.14L278.33 141.7L281.14 157.4L274.57 158.57L267.11 116.77L276.79 115.05C280 114.47 282.63 114.91 284.57 116.37ZM277.24 135.72L280.34 135.17C280.791 135.127 281.227 134.986 281.618 134.756C282.008 134.526 282.343 134.213 282.6 133.84C283.065 132.846 283.161 131.718 282.87 130.66L281.75 124.38C281.657 123.284 281.179 122.257 280.4 121.48C280.028 121.223 279.605 121.048 279.16 120.969C278.715 120.89 278.258 120.907 277.82 121.02L274.72 121.57L277.24 135.72Z" fill="#9E7CE1" stroke="#263238" stroke-linecap="round" stroke-linejoin="round"/>
<path d="M432.83 427.59C412.16 443.59 386.4 455.91 358.19 464.42C355.45 461.42 352.99 458.8 351.08 457.04C346.54 452.87 331.08 442.69 331.08 442.69C331.08 442.69 320.39 446.69 301.7 438.69C283.01 430.69 260.27 419 255.6 405.3C250.93 391.6 244.91 386.3 242.6 378.25C241.73 375.25 241.35 371.85 240.07 368.42C237.94 362.67 235.12 356.85 236.59 352.88C238.93 346.53 252.59 346.53 258.59 355.54C264.59 364.55 273.28 384.92 277.29 383.26C281.3 381.6 275.95 366.31 275.62 348.4L272 330.17L261 296.45L258.67 289.78C258.67 289.78 249.67 274.09 251.32 263.78C251.32 263.78 253.16 253.78 261.32 258.78C268.73 263.31 269.32 265.47 281.32 287.17C293.32 308.87 295 323.83 299 322.82C303 321.81 302.88 318.13 300.78 312.42C298.68 306.71 294.95 295.83 303.64 292.8C312.33 289.77 319 291.09 321.51 299.28C324.02 307.47 326.3 314 327.83 314C327.83 314 323.07 305.64 323.07 299.7C323.07 297.1 323.64 293.8 331.83 293.99C340.02 294.18 342.49 298.75 345.16 303.71C347.83 308.67 350.5 312.66 350.5 312.66C350.5 312.66 359.06 309.04 364.4 313.8C369.74 318.56 379.01 334.3 382.3 339.89C390.92 354.54 393.02 373.3 393.52 382.22C393.715 385.662 395.134 388.922 397.52 391.41C403.7 397.9 416.93 411.69 432.83 427.59Z" fill="white"/>
<path opacity="0.5" d="M372.75 464.52C366.75 457.89 361.55 452.33 359.26 450.28C352 443.77 335.26 437.76 332.26 432.5C329.26 427.24 330 413.22 327.5 406.71C325 400.2 266.65 400.2 261.14 397.45C255.63 394.7 250.63 370.15 246.87 373.64C243.11 377.13 245.38 384.64 245.38 384.64L244.38 390.41L250.17 418.7L276.96 450.25L305.91 464.49L372.75 464.52Z" fill="#9E7CE1"/>
<path d="M240.89 364.39C241.517 362.881 242.478 361.534 243.7 360.45C247.7 356.54 249.26 355.6 246.78 350.63" stroke="#263238" stroke-linecap="round" stroke-linejoin="round"/>
<path d="M250 367.35C250.57 366.78 251.18 366.21 251.86 365.65" stroke="#263238" stroke-linecap="round" stroke-linejoin="round"/>
<path d="M244.3 376.23C245.301 373.488 246.795 370.953 248.71 368.75" stroke="#263238" stroke-linecap="round" stroke-linejoin="round"/>
<path d="M253.09 265.74C253.207 266.061 253.386 266.355 253.619 266.606C253.851 266.856 254.131 267.057 254.443 267.197C254.754 267.337 255.091 267.413 255.432 267.42C255.773 267.427 256.113 267.366 256.43 267.24C258.93 266.4 265.94 265.4 264.11 262.73" stroke="#263238" stroke-linecap="round" stroke-linejoin="round"/>
<path d="M271.86 290.86C274.101 289.585 276.571 288.762 279.13 288.44" stroke="#263238" stroke-linecap="round" stroke-linejoin="round"/>
<path d="M267.61 293.78C268.134 293.325 268.682 292.898 269.25 292.5" stroke="#263238" stroke-linecap="round" stroke-linejoin="round"/>
<path d="M336.92 319.65C341.31 318.49 344.63 316.77 352.5 319.36" stroke="#263238" stroke-linecap="round" stroke-linejoin="round"/>
<path d="M288.07 333.35C290.07 331.27 293.28 329.52 298.16 330.09C308.93 331.34 311.43 322.83 317.94 320.32C324.45 317.81 326.94 321.07 333.47 320.32" stroke="#263238" stroke-linecap="round" stroke-linejoin="round"/>
<path d="M284.89 338.85C285.186 337.828 285.609 336.847 286.15 335.93" stroke="#263238" stroke-linecap="round" stroke-linejoin="round"/>
<path d="M377.87 313C377.2 312.201 376.478 311.446 375.71 310.74" stroke="#263238" stroke-linecap="round" stroke-linejoin="round"/>
<path d="M400.12 352C398.538 346.73 396.354 341.66 393.61 336.89C391.01 332.47 384.67 321.72 379.49 315.05" stroke="#263238" stroke-linecap="round" stroke-linejoin="round"/>
<path d="M404.57 375.6C404.038 369.192 402.988 362.838 401.43 356.6" stroke="#263238" stroke-linecap="round" stroke-linejoin="round"/>
<path d="M404.82 379.16C404.82 378.68 404.77 378.16 404.73 377.64" stroke="#263238" stroke-linecap="round" stroke-linejoin="round"/>
<path d="M307.24 319.25C308.6 316.3 308.1 312.84 307.24 309.71C306.38 306.58 305.11 303.5 305 300.25C304.89 297 306.26 293.42 309.22 292.1C312.41 290.68 316.28 292.42 318.47 295.1C320.66 297.78 321.61 301.29 322.69 304.61C323.77 307.93 325.11 311.36 327.82 313.61C326.82 309.68 325.82 305.61 326.7 301.61C327.58 297.61 331.1 293.98 335.14 294.32C334.43 289.71 329.92 286.76 325.66 284.84C317.87 281.32 308.15 279.41 301.17 284.35C295.33 288.48 293.17 296.25 293.31 303.4C293.38 308.4 294.03 316.21 297.1 320.4C299.82 324.18 305 324.19 307.24 319.25Z" fill="#9E7CE1"/>
<path opacity="0.5" d="M307.24 319.25C308.6 316.3 308.1 312.84 307.24 309.71C306.38 306.58 305.11 303.5 305 300.25C304.89 297 306.26 293.42 309.22 292.1C312.41 290.68 316.28 292.42 318.47 295.1C320.66 297.78 321.61 301.29 322.69 304.61C323.77 307.93 325.11 311.36 327.82 313.61C326.82 309.68 325.82 305.61 326.7 301.61C327.58 297.61 331.1 293.98 335.14 294.32C334.43 289.71 329.92 286.76 325.66 284.84C317.87 281.32 308.15 279.41 301.17 284.35C295.33 288.48 293.17 296.25 293.31 303.4C293.38 308.4 294.03 316.21 297.1 320.4C299.82 324.18 305 324.19 307.24 319.25Z" fill="white"/>
<path d="M249.9 263.25C255.627 273.15 261.36 283.043 267.1 292.93C264.9 297.26 265.64 302.56 267.52 307.04C269.4 311.52 272.33 315.47 274.61 319.75C280.677 331.273 281.983 344.715 278.25 357.19C278.05 357.85 277.72 358.61 277.04 358.72C276.14 358.85 275.6 357.78 275.35 356.91C266.737 326.797 258.123 296.687 249.51 266.58L249.9 263.25Z" fill="#9E7CE1"/>
<g opacity="0.5">
<path opacity="0.5" d="M249.9 263.25C255.627 273.15 261.36 283.043 267.1 292.93C264.9 297.26 265.64 302.56 267.52 307.04C269.4 311.52 272.33 315.47 274.61 319.75C280.677 331.273 281.983 344.715 278.25 357.19C278.05 357.85 277.72 358.61 277.04 358.72C276.14 358.85 275.6 357.78 275.35 356.91C266.737 326.797 258.123 296.687 249.51 266.58L249.9 263.25Z" fill="white"/>
</g>
<path d="M358.19 464.42C355.45 461.42 352.99 458.8 351.08 457.04C346.54 452.87 331.08 442.69 331.08 442.69C331.08 442.69 320.39 446.69 301.7 438.69C283.01 430.69 260.27 419 255.6 405.3C250.93 391.6 244.91 386.3 242.6 378.25C241.73 375.25 241.35 371.85 240.07 368.42C237.94 362.67 235.12 356.85 236.59 352.88C238.93 346.53 252.59 346.53 258.59 355.54C264.59 364.55 273.28 384.92 277.29 383.26C281.3 381.6 275.95 366.31 275.62 348.4L272 330.17L261 296.45L258.67 289.78C258.67 289.78 249.67 274.09 251.32 263.78C251.32 263.78 253.16 253.78 261.32 258.78C268.73 263.31 269.32 265.47 281.32 287.17C293.32 308.87 295 323.83 299 322.82C303 321.81 302.88 318.13 300.78 312.42C298.68 306.71 294.95 295.83 303.64 292.8C312.33 289.77 319 291.09 321.51 299.28C324.02 307.47 326.3 314 327.83 314C327.83 314 323.07 305.64 323.07 299.7C323.07 297.1 323.64 293.8 331.83 293.99C340.02 294.18 342.49 298.75 345.16 303.71C347.83 308.67 350.5 312.66 350.5 312.66C350.5 312.66 359.06 309.04 364.4 313.8C369.74 318.56 379.01 334.3 382.3 339.89C390.92 354.54 393.02 373.3 393.52 382.22C393.715 385.662 395.134 388.922 397.52 391.41C403.73 397.95 416.96 411.74 432.86 427.64" stroke="#263238" stroke-miterlimit="10"/>
<path d="M240.89 364.39C241.517 362.881 242.478 361.534 243.7 360.45C247.7 356.54 249.26 355.6 246.78 350.63" stroke="#263238" stroke-linecap="round" stroke-linejoin="round"/>
<path d="M250 367.35C250.57 366.78 251.18 366.21 251.86 365.65" stroke="#263238" stroke-linecap="round" stroke-linejoin="round"/>
<path d="M244.3 376.23C245.301 373.488 246.795 370.953 248.71 368.75" stroke="#263238" stroke-linecap="round" stroke-linejoin="round"/>
<path d="M253.09 265.74C253.207 266.061 253.386 266.355 253.619 266.606C253.851 266.856 254.131 267.057 254.443 267.197C254.754 267.337 255.091 267.413 255.432 267.42C255.773 267.427 256.113 267.366 256.43 267.24C258.93 266.4 265.94 265.4 264.11 262.73" stroke="#263238" stroke-linecap="round" stroke-linejoin="round"/>
<path d="M271.86 290.86C274.101 289.585 276.571 288.762 279.13 288.44" stroke="#263238" stroke-linecap="round" stroke-linejoin="round"/>
<path d="M267.61 293.78C268.134 293.325 268.682 292.898 269.25 292.5" stroke="#263238" stroke-linecap="round" stroke-linejoin="round"/>
<path d="M337 319.85C341.41 318.73 344.74 317.05 352.58 319.72" stroke="#263238" stroke-linecap="round" stroke-linejoin="round"/>
<path d="M288 333C290.05 330.94 293.25 329.23 298.13 329.85C308.88 331.22 311.47 322.73 318.01 320.3C324.55 317.87 327.01 321.14 333.53 320.46" stroke="#263238" stroke-linecap="round" stroke-linejoin="round"/>
<path d="M284.78 338.49C285.084 337.469 285.518 336.491 286.07 335.58" stroke="#263238" stroke-linecap="round" stroke-linejoin="round"/>
<path d="M347.05 307C348.38 309.58 352.59 315.4 352.59 315.4" stroke="#263238" stroke-linecap="round" stroke-linejoin="round"/>
<path d="M377.87 313C377.2 312.201 376.478 311.446 375.71 310.74" stroke="#263238" stroke-linecap="round" stroke-linejoin="round"/>
<path d="M400.12 352C398.538 346.73 396.354 341.66 393.61 336.89C391.01 332.47 384.67 321.72 379.49 315.05" stroke="#263238" stroke-linecap="round" stroke-linejoin="round"/>
<path d="M404.57 375.6C404.038 369.192 402.988 362.838 401.43 356.6" stroke="#263238" stroke-linecap="round" stroke-linejoin="round"/>
<path d="M404.82 379.16C404.82 378.68 404.77 378.16 404.73 377.64" stroke="#263238" stroke-linecap="round" stroke-linejoin="round"/>
</svg>
