<svg xmlns="http://www.w3.org/2000/svg" width="143" height="116" fill="none" xmlns:v="https://vecta.io/nano"><path d="M20.651 72.077v-8.219l36.063-51.234H23.854V3.53h45.047v8.219L33.417 62.702h37.406v9.375H20.651z" fill="#000"/><path d="M112.678 58.733c3.094 0 6.117-.707 9.078-2.125 2.969-1.414 5.969-3.801 9-7.156l9.485 9c-3.805 4.898-8.141 8.602-13.016 11.109-4.867 2.512-9.875 3.766-15.031 3.766-4.637 0-8.985-.949-13.047-2.844-4.062-1.906-7.594-4.469-10.594-7.687-2.992-3.219-5.34-6.969-7.047-11.25-1.711-4.289-2.562-8.852-2.562-13.687s.883-9.375 2.656-13.625c1.77-4.258 4.172-8 7.203-11.219 3.031-3.227 6.609-5.773 10.734-7.641s8.504-2.797 13.141-2.797c4.32 0 8.43.809 12.328 2.422 3.895 1.605 7.711 4.277 11.453 8.016l-8.5 10.344c-2.711-2.52-5.273-4.211-7.687-5.078-2.418-.875-4.949-1.312-7.594-1.312a17.43 17.43 0 0 0-7.484 1.656c-2.356 1.094-4.403 2.578-6.141 4.453-1.742 1.867-3.109 4.07-4.109 6.609s-1.5 5.266-1.5 8.172c0 2.898.5 5.605 1.5 8.125 1 2.512 2.367 4.719 4.109 6.625a19.19 19.19 0 0 0 6.141 4.484c2.351 1.094 4.847 1.641 7.484 1.641z" fill="#9e7ce1"/><path d="M5.226 5.098l-.582 91.485" stroke="#000" stroke-width="6.011" stroke-linecap="round"/><g fill="#000"><path d="M34.414 91.116l-.867 1.008c-.258.461-.461.691-.863 1.125l-1.27 1.324c-.43.434-.371.375-.66.461 0-.059.199-.344.258-.43-.027-.059-.086 0-.258.172l-1.039.981c-1.008.691-1.699 1.41-2.91 1.957-.574.289-1.383.492-1.727.547-.09.086 0-.145-.117-.113s.059.145-.172.145c-.23.027-.863 0-.953-.059-.086 0-.777-.23-.832-.434-.434-.402-.492-1.871-.492-2.363l.348-1.844c.316-1.152.805-2.246 1.352-3.34.203-.406 0-.176-.086.055 0-.027-.23.434-.23.434-.027-.027.059-.23.086-.23l1.27-2.332c.086-.203.289-.461.434-.664.113-.117.199-.461.285-.547 1.039-1.441 2.105-2.566 3.547-3.66.258-.23.285-.258.547-.348.258.895-.172 1.934-.402 2.77l-.695 1.93c-.055.258-.516 1.094-.402 1.211.059.113.145.23.23.316-.027.144.492.144.547.027.031-.027.059-.086.059-.086.059-.086.172-.086.172-.258l.606-1.414c.086-.375.23-.805.348-1.152l.43-1.41c.117-.492.262-.894.203-1.414.059-.547-.344-.719-.719-.949-.406-.262-1.098-.031-1.5.086-.52.086-.574.086-1.469.922-.863.719-1.758 1.902-2.336 2.766-.633.895-1.094 1.699-1.613 2.652 0 .055-.113.145-.113.231.027.086-.086.172-.086.258-.031.027-.289.519-.316.605-.059.117-.145.258-.145.375.027 0 0 .059-.059.086-.086.059-.059.117-.086.117s-.031.027-.031.027c-.461 1.18-.922 2.477-1.066 3.719-.055.461-.086 1.871.176 2.418.172.262.258.633.461.922.172.375 1.324 1.211 1.813 1.238 1.645.406 3.547-.43 4.871-1.41.258-.172.895-.606.98-.836.027.027 1.152-.98 1.266-1.211 0-.086.117-.199.691-.805l.262-.316c0-.117.258-.348.289-.465 0-.027.113-.113.113-.141-.058-.059.289-.23.317-.375l.406-.547c.113-.117.199-.348.285-.461.145-.32.867-1.039.922-1.27 0-.027 0-.027-.055 0zm-3.891-7.234c.059-.027.027.031 0 .059-.031 0-.031-.059 0-.059zm-.086.434c.027-.027 0-.145.027-.203.059-.027.059-.027.059.031.027.059-.086.375-.117.231 0-.031 0-.059.031-.059zm-.059.289c.027.027.027.027 0 .058 0 .027 0-.09 0-.058zm-6.887 7.058c-.027.027-.027.027-.059 0 0-.027.059-.058.059 0zm.059-.605c-.086.203-.176.145-.059 0 0-.027.027-.086.059-.113.027-.086.055.055 0 .113zm.172-.402c-.027.113-.117.231-.145.172.027-.027.059-.027.059-.086 0-.086.199-.344.086-.086zm.113.231c-.027.059-.027-.059 0-.059v.059zm.23-.949c-.055.086-.113.141-.113.113 0-.059.289-.434.113-.113zm.176-.32c-.031.031-.031.059-.031.09 0 .055-.086.113-.086.027.086-.23.375-.547.117-.117zm.145-.66c0 .027-.031.027-.059.027-.031-.027-.059.059-.031.117.031.027.031.027 0 .055-.027.059-.086.031-.086.086s-.055.031-.055.09c.027.055-.031.027-.031.086s-.059.027-.059.055c0 .059-.086.145-.086.176.031.027.031.027 0 .027-.055 0-.113.086-.086.117.031.055-.113.086-.086.144.027 0 .027.027 0 0-.027 0-.059.113-.027.141 0 0 0 .031-.031.031s0 .113-.055.113c-.031 0-.059.176-.09.176-.027.027-.027.086-.086.113-.027.059-.055.086-.027.086.027.031-.117.375-.172.402v.09c0 .086-.031-.09-.059.086-.027.113-.059.086-.117.145s-.027-.031.031-.203c.402-.836.488-1.125.949-1.902 0-.027.031-.113.117-.23l.316-.574c.027 0 .144.027.113.055 0 .031-.145 0-.145.059 0 .027 0 .059.031.027.027 0 .027.031.027.09 0 .027-.086.027-.086.055.027.031 0 .086-.059.086s.059.145-.027.117c-.027 0-.027.027-.027.059zm-1.211 2.449c0 .027-.031.027-.059.027s.086-.145.059-.027zm1.211-2.191c0-.086.086-.086.113-.172.027-.145.059-.086.117-.203 0-.059.055-.113.055-.059-.027.059-.199.551-.285.434zm.316-.863c0-.031.086-.086.086-.031 0 .031-.086.09-.086.031zm.055.317c-.086.027.031-.172.031-.059 0 .031-.031.031-.031.059zm.117-.231c-.059 0 0-.117.027-.059 0 .031 0 .059-.027.059zm.605-1.039c-.117.176-.117.145-.027 0 .055-.113.199-.23.027 0zm.461-.719c-.027 0-.027-.086 0-.086s.059.086 0 .086zm.059-.258c-.117.141-.117.141-.117.199 0 0 0 .031-.027.031s.113.113 0 .086c-.031 0-.031-.059-.059-.086 0-.144-.086-.059-.113.113 0 .059-.09.086-.059.144 0 .027-.031.059-.031.059-.027.027-.055.027-.027.055s-.027.145-.086.117c-.027 0-.027 0 0 .027.059.031-.117.117-.172.262-.145.23-.176.258-.203.258-.117 0 .027.231-.059.144-.059-.027-.059-.027-.059.027 0 .09-.086.031-.055.117.055.086-.117.086-.086.145.027.027-.23.199-.176.23 0 .059 0 .059-.027.027-.086-.086.23-.375.203-.43.027-.145.199-.289.258-.406.059-.145.289-.461.375-.606 0-.027.316-.488.402-.574.086-.059.289-.086.117.059zm-.289-.23c0-.059.086-.031.086-.09 0 0 .027-.027.027 0 .031.031-.113.176-.113.09zm1.238-.981c-.059 0-.059-.059-.027-.059.055 0 .055.059.027.059zm.203-.406c.086-.086.113-.055.055.031-.055.059-.172.086-.055-.031zm-.23.203c.113-.113.055.027.113.059.031 0 .031.027 0 .027-.059.031-.027-.027-.086 0-.059 0-.059-.059-.027-.086zm-.059.144c-.059.027.059.172-.059.086-.113-.113.172-.172.059-.086zm-.027-.777c.055-.031.027.027 0 .059-.031 0-.031-.059 0-.059zm-.031.289c.031 0 .059.027 0 .027s-.059-.027 0-.027zm-.027.746c-.059 0-.031.09-.059.09s-.027-.203.027-.144c.031.027.031.027.031.055zm-.059-.141c.086 0 0 .055-.027.027 0-.027.027-.027.027-.027zm-.027-.348v.059c0 .055-.031-.086 0-.059zm-.059.75c-.059.059-.086.086-.059 0 .031-.117 0-.145-.113 0-.086.113-.086.145-.086.199.027.059-.031.176-.117.117-.059-.027-.086 0-.027.027.055.059-.086.262-.203.262-.113.027.027-.117.059-.086v-.031c-.031-.059.086-.199.145-.23.027-.113.055-.113.172-.289.086-.113.172-.199.203-.231 0 0 .027-.027.027-.055 0-.059.059 0 .027.055-.027.09.031.176-.027.262zm-.027-.895c.086 0 .055.086 0 .027-.059-.027-.031-.055 0-.027zm-.117.027c0-.055.144.09.086.09-.027 0-.027.027-.059.027-.027.027.031-.117-.027-.086 0 0-.027-.031 0-.031zm-.086.262c.059 0 .113-.117.203-.059h0c-.031 0-.059.027-.059.027.027.031-.117.203-.117.145s.145-.055 0-.086c-.027 0-.055 0-.027-.027zm0 .172c.027.059-.086.172-.117.117 0-.031.117-.117.117-.117zm-.258-.027c.055-.031.055 0 .055.027.059.086-.172.031-.055-.027zm.113.199c.059 0 .059 0 0 .059-.027.031-.172.316-.172.231.027-.086.059-.231.172-.289zm-.23.031c.059.027.086.027 0 .027-.059 0-.059-.027 0-.027zm.027.199c-.027.09-.086-.086-.027-.027.027 0 .027.027.027.027zm-.141-.027c.027 0 .055.027.055.027 0 .059-.145 0-.055-.027zm-.031.258c0-.027.086 0 .086-.055-.027-.031.086-.031.086-.031-.027.059-.141.316-.23.262-.055 0-.113-.031 0-.031.031.031.031 0 .031-.027-.031-.086.027-.059.027-.117zm-.086-.199c0-.059.027-.059.059-.031s-.086.117-.059.031zm0 .113c.059 0 .059.059 0 .059-.027 0-.059-.059 0-.059zm-.059.086s.031 0 .059.031c0 .027-.172.027-.059-.031zm-.055.09c.055 0 .027.086 0 .086 0 0-.059-.086 0-.086zm-.117.199v.059c0 .059-.027-.117 0-.059zm-.402.492c.027 0 .059-.031.027-.09-.027-.141.059 0 .086.059s-.086 0-.055.086c.055.145-.145-.027-.059-.055zm0 .141c.059 0 0 .031-.031.058 0 .031 0 0 0-.027-.027 0 0-.031.031-.031zm-.637.836c.031-.086.031-.316.176-.113.027.059.027.086.027.086-.086-.027-.316.317-.203.027zm-.141.23c.055-.113.141-.055.086 0-.031.059-.059.23-.117.176s-.027-.117.031-.176zm-.059.176c.113 0-.059.145-.059.199 0 0-.027.031-.059.031-.113 0 .086-.231.117-.231zm-.203.258c.059 0 .059 0 .059.027 0 .144-.203-.027-.059-.027zm-.98 1.785c.031-.027.031-.027.059.031.086.145-.086.059-.059-.031zm-.258.637c.059-.031 0-.144.059-.176l.059-.055c0-.059.086-.031.055-.086 0-.09.059-.059.059-.117s0-.059.027 0c.059.086-.055.059-.055.172.027.117-.086.031-.059.144 0 .086-.086.059-.086.145.027.086-.059 0-.031.086-.027.289-.199-.059-.027-.113zm-.145.344c.117 0-.086-.086.027-.113.117.027 0 .23-.055.199-.031-.027-.031-.055.027-.086zm-.145.348c0-.086.031-.176.086-.086.031.027-.055.141-.086.172v-.086zm-.145.52c.059 0 0 .141 0 .141-.113.09-.086-.141 0-.141zm-.199.43v.058c-.031.059-.031-.086 0-.058zm-.289 1.125c.027-.031.086 0 .086.058 0 .113-.086-.031-.086-.058zm-.117.836c.031.027.031.027 0 .086s-.027.086 0 .113c.031.059-.027.117 0 .176s.031.027.059-.059c.059-.086.031-.203.031-.316.027-.031.113-.172.055-.203-.027 0-.086-.086-.027-.086.086.027.059-.144.086-.23 0-.172-.086.027-.113-.027 0-.059.086-.031.027-.09-.027-.027-.027-.055-.027-.086.055-.055.086.145.172.031.059-.086-.031-.144.059-.262.086-.145.027-.199.086-.316.027-.113.027-.113-.059-.059-.144.203-.117-.258-.059-.199.059 0 0-.058.031-.086.055-.086-.031-.231.086-.231.113-.086-.031.375.086.231.086 0 .113-.434 0-.348-.031.031-.031.031-.031-.086v-.113c.059 0 .144-.09.117.027 0 .086.027.145.027.059 0-.059.086-.086.059-.145 0-.031 0-.059.027-.059.059 0 .059-.145.09-.172s.027-.145 0-.145c-.059.027-.23.203-.117 0 .086-.059-.086-.203.027-.172.176 0 0 .055.059.113.117.117.059-.027.117-.058.086 0 .027-.113.086-.172.059-.086.027-.145.086-.203.027-.027.027-.086.027-.086-.027-.055.09-.086.059-.144 0-.027 0-.055.031-.055h.027c0-.059.086-.176.086-.231.027-.117.086-.23.117-.262h0c-.145 0 .258-.285.113-.285-.027 0-.027-.031-.027-.031 0-.059.086.117.113-.086 0-.086.031-.113.059-.203-.027-.027-.086.059-.086.117 0 .027-.031.027-.059.027s-.059.031-.059.059c-.027.086-.172-.086 0-.203.086-.055.059-.258.145-.23 0 0 .031 0 .031-.027a.49.49 0 0 1 .113-.258c.059-.031.117-.059.059.055-.031.117-.031.144.027.144.145-.027 0-.258.086-.23.031 0 .059-.027.086-.059.09-.172-.086.059-.141.031s0-.23.027-.316c0-.086.086-.059.086-.117-.027-.027.059-.144.059-.059.027.348-.289.262-.059.348.117.086.258-.348.316-.402.031-.031.031-.058.031-.058 0-.059.086-.086.113-.203.086-.172.086-.113.145-.258.027-.027.059-.086.086-.086s.027 0 0-.031c0-.027 0-.055.027-.055s0-.144.031-.144c.027.027.144-.145.144-.172-.031-.031-.031-.059 0-.031s.113-.172.113-.144c.117 0-.027-.258-.059-.113 0 .027 0-.031 0-.086 0-.32.059.027.117.086.027 0 .113-.145.113-.203-.027-.027.031-.113.059-.086s.086-.145.059-.172c-.086-.203-.145.316-.203.344-.055 0 0-.113-.055-.144s.055.031 0-.086c-.059-.059.258-.375.258-.23 0 .031 0 .059.027.086.031 0 .176-.113.145-.172 0-.059.086-.027.086-.086s.09-.059.059-.117-.086-.055-.086 0c0 .031-.23-.172-.113-.113l.055-.059c0-.059.086-.086.059-.027 0 .027.059.145.086.172.031 0 .145-.113.172-.23.031-.059.117-.059.145-.027-.027.055-.055.027-.113.113l-1.672 2.852c-1.039 1.988-1.527 3.258-1.93 5.219 0 .145-.059.113-.031.258 0 .203-.027.258-.086.289-.059 0-.059 0 0 0 .086-.031 0 .402-.027.199 0-.086-.031-.086-.059-.086-.059 0-.027.117-.059.145-.055.031.059.117.031.144-.059-.086.055 1.211.145 1.383-.203-.113-.375-2.649-.09-2.477zm.75-2.508c.031 0 .031.027 0 .059 0 0-.059-.059 0-.059zm-.691 4.207c-.027-.027-.027-.633 0-.664.031-.172.086.434 0 .664zm-.086-.488c0 .027-.027.027-.027 0 0-.059.055-.031.027 0zm.203.949c-.031 0-.117-.258-.117-.375-.027-.258.145.375.117.375zm.199.461c-.055 0-.055-.086-.086-.113v-.09c.059-.086.117.203.086.203zm-.027-.316c.027 0 0 .086 0 .027v-.027zm.113.574c-.027.031-.113-.316-.027-.113.027.027.027.086.027.113zm0-2.91c-.027 0-.055.059-.055.09l-.059.602c-.117.406-.027 1.039 0 1.5 0 .172-.059.059-.059-.058-.199-.777.059-2.477.348-3.399.145-.316.344-1.238.574-1.469h.059c-.027.055-.113.316-.145.344-.027.086-.059.231-.113.316s-.059.231-.117.289c-.059.027-.059.231-.113.316s-.059.375-.117.402c-.027.059-.027.231-.086.289-.059.086-.027.316-.086.402-.031.059 0 .348-.031.375zm.059.059c-.027.059-.027-.059 0-.059v.059zm.059-.144c-.086.176.113-.43.113-.461.09-.23.059-.375.145-.574l.262-.836c.059-.172.086-.375.231-.547.059-.059.086-.289.172-.348 0 0 .027-.027.027-.059a.68.68 0 0 1 .059-.172c.031.203-.172.519-.258.664-.086.086-.117.43-.203.574-.172.519-.23.867-.402 1.469-.031.145-.086.203-.144.289zm4.926 4.094c-.199.086.09-.086.09-.031 0 0-.059.031-.09.031zm.059-.086c-.059-.031 0-.059.031-.031.055.031.027.059-.031.031zm.23-.059c-.086.086-.113-.031-.059-.031.059.031.117 0 .059.031zm.145-.086c-.059.055-.086.055-.113 0 0-.117.258-.117.113 0zm.23-.691c-.086.086-.144-.059 0-.031.059.031.059.031 0 .031zm.027-.059c-.055 0-.086 0-.027-.027.086-.09.117.027.027.027zm.203-.203s0 .031-.027.031c-.086.055.055-.086.027-.031zm.578.086c-.031.031-.09.031-.09.031 0-.058.23-.172.09-.031zm.574-.832c-.027 0-.059.027-.059.027 0 .059-.172.144-.199.172 0 .059-.176.086-.176.144 0 .027-.027.027-.055.027-.031-.027-.117.031-.145.031 0-.031.059-.086.316-.289.113-.086.258-.23.289-.258.199-.203.199.086.027.145zm.461-.32c0 .031 0 .031 0 0 0-.055.086-.027 0 0zm.117-.086c-.031 0-.031 0-.031-.027.059-.059.117-.031.031.027zm.199.316c0 .031-.113-.113-.086-.113 0-.031.031 0 .031 0 .027.059.086.059.055.113zm-.027-.461c-.145 0 .258-.375.23-.402.027-.059.344-.375.344-.203 0 .031-.402.492-.574.606zm.895-.516c-.059.027-.059-.031 0-.031.027 0 .027.031 0 .031zm-7.492-5.535c.055-.086-.086-.055 0-.113.113-.144-.117-.031-.059.059v.027c-.059-.027-.145.027-.059.059.086.055.086.055.117-.031zm9.019 3.027c0-.058-.059 0-.09.086s.117-.027.09-.086zm.316-.289c.145-.172.285-.316.199-.375a1.68 1.68 0 0 0-.316.402c0 .09.031.059.117-.027zm-1.875 2.016c-.027.144.23-.086.172-.141-.027-.031-.141.055-.172.141zm2.535-2.824c.23-.199.809-.949.867-1.094-.145.059-.23.262-.375.375l-.808 1.008c0 .086.031.058.316-.289zm-1.008 1.559c.031.059.117-.117.172-.172-.055.027-.199.141-.172.172z"/><path d="M38.07 87.948c-.055-.059-.574-.059-.633-.059 0-.031.086-.172.086-.172.145-.203-.055-.434-.258-.519-.316-.176-.664-.117-.863-.031-.117 0-.09.059-.203.059-.086-.086-.402.348-.461.434-.316.344-.949 1.324-1.238 2.016-.231.578-.52 1.039-.664 1.527-.375.98-.805 2.16-.805 3.172.055.602.113.633.199 1.094.031.199.434.633.664.805 1.266.289 2.188-.777 2.883-1.641.805-1.008 1.293-1.902 1.898-3.082.52-1.152 1.242-3.172-.605-3.602zm-2.82 1.035c.027-.203.055.059 0 .086-.031.031-.031.031 0-.086zm-.492.895c.031-.231.086-.231.172-.348 0-.059.09-.144.117-.199 0-.031.027 0 .027.027 0 .059-.23.402-.23.488.031.09-.113.203-.086.031zm-1.035 2.102c0-.172.086-.145.055-.055-.055.055-.086.199-.055.055zm-.09.289c0 .027.031.059 0 .059 0 .059 0-.059 0-.059zm-.285 1.18c.027-.371.172-.719.23-.977.086.086-.23.977-.23 1.152v-.176zm-.059.262c.027 0 0 .086 0 .027v-.027zm.172.664c-.027.027-.027-.117 0-.09v.09zm.23-1.242l-.23 1.039c0 .027 0 .027-.027.027-.117.031-.117.289-.145.406 0-.145-.027-.578.059-.605.172-.52.113-.664.402-1.527.23-.781.519-1.297.777-1.961.086-.086.059-.461.203-.488.059.086-.059.145-.031.258.059.145-.371.895-.316.863-.258.606-.547 1.383-.691 1.988zm1.816 1.613c-.578.52-.949.809-1.645.836-.055-1.238.23-2.363.695-3.484.141-.348.113-.406.23-.691.113-.375.863-1.875 1.121-2.164-.113.406-.863 1.758-.547 1.789.117-.059 0 .113.086.086.23-.027.289-.027.289 0 .203.086.258 0 .258-.258 0-.32.316-.75.551-1.211.516-1.039.461-.922.602-.98.32-.145.637-.23.895-.258.203-.09.375.199.402.488 0 .027 0 .059.031.059.027-.031-.031-.406 0-.434s.086 0 .086.059c.059.199.144 1.066 0 1.066-.059 0-.031.059-.059.145-.145.516-.547 1.555-.805 1.898 0 .059-.059.031-.059.09s-.086.027-.059.086.027.059 0 .027c0-.027-.086.031-.086.086 0 .031 0 .059-.027.059-.031.027.027.059-.031.086-.059 0-.113.086-.199.23-.461.809-1.066 1.699-1.73 2.391zm1.152-.777c-.086.086-.289.406-.348.348 0-.031.144-.231.176-.289.199-.23.891-1.238.922-1.355.113-.344.144-.258.23-.461.113-.199.172-.285.258-.519.461-1.008.953-1.898.836-2.879-.145-.289.059-.203.086 0 0 .027.031.086.031.086.055 0-.031.172 0 .172.055.031 0 .144.027.203s.027.059.027.086c-.055.059 0 .172-.055.203-.031.027-.031.055 0 .172.027.172-.059.172-.086.375-.32 1.152-1.242 2.793-2.105 3.859zm2.363-4.004c0 .086-.086.289-.086.402s-.059.086-.086.172c0 .176-.086.23-.117.406l-.344.805c-.031.117-.145.23-.145.348-.031.086-.203.258-.203.344-.113.262-.402.637-.52.894-.027.059-.746 1.18-.719.981 0 0 0-.031.027-.059.031 0 0-.172.059-.203s.145-.258.23-.316c.027 0 .086-.172.117-.172.055.027.141-.145.055-.086.203-.434.52-.809.723-1.238.055-.086.172-.406.258-.492.027-.027 0-.086.027-.113.059-.031.09-.231.145-.289.059-.027.031-.117.086-.144.145-.086.059-.231.117-.344.027 0 .059-.059.059-.09.172-.547.344-1.121.289-1.727.055.145.113.547.055.605-.027 0 0 .289-.027.316z"/><path d="M42.422 88.378c.059-.027 0-.231-.027-.113 0 .086-.117.23.027.113zm-.805 2.363c0 .145.059.117.059-.027 0-.031-.059-.117-.117-.117 0 .031.086.117.059.145zm.258-.434c-.027-.027-.113.031-.113.117s-.086.145-.031.23c.031 0 .145-.316.145-.348zm-.633 1.356c.027 0 .027-.027.027-.059.031-.055.117.031.117-.086-.031-.113.086-.113.059-.23-.031-.059 0-.086 0-.086.027 0 .23-.316.141-.316-.055-.086-.113.144-.141.086 0-.059-.09.027-.031.086.059.031-.059.117-.059.172.031.117 0 .117-.027.09-.059-.031-.059-.031-.027.055 0 .117 0 .117-.031.117-.086-.059-.055.172-.027.172zm7.664-4.727c-.52-.691-.719-.719-1.5-.691-1.555.117-2.59 1.473-3.629 2.68l-1.27 1.789c-.141.172-.461.922-.602.891l1.152-3.082c.375-.691.547-1.238.746-1.871l.664-1.816c.23-.492-.289-.75-.719-.75-.289 0-.316 0-.461.316l-.551 1.039c-.371.75-1.207 2.332-1.383 3.109-.027.176-.258.492-.055.605.027 0 .172-.199.172-.23s.027-.027.059-.027c.145-.059-.059.258-.059.316l-.633 1.731-1.875 5.156-1.699 5.274c-.777 2.363-1.441 5.101-1.758 7.664-.059.461.203.578.52.664.027 0 .055-.117.086-.262.027-.027.027-.086.059-.086.055 0 .086-.113.055-.199 0-.031-.027-.031-.055.027-.059.117 0 .289-.176.117-.113-.089-.027-.144-.113-.175-.031 0-.031 0-.031-.055.031-.059.031-.176.09-.176.027.031 0-.23-.031-.285-.027-.031.262-.059.316 0 .031.027.059.199.059.285.059-.172.059-.285.258-.316.375-.059.348-1.067.465-1.41.172-1.27.285-1.328.488-2.364.113-.808.434-1.843.691-2.679a29.62 29.62 0 0 1 1.586-4.207l.23-.492c.316-.66.285-.633.344-.633 2.652.519 4.984-2.219 6.57-4.004a7.84 7.84 0 0 1 .895-1.067c.863-1.355 1.988-3.227 1.094-4.785zm-13.195 21.469c-.059.027-.059 0-.031-.117.059-.317.117.058.031.117zm11.785-21.844h.141c.031 0 0 .031-.086.031s-.113 0-.055-.031zm-.32.09h.059c.059.027-.086.027-.059 0zm-1.035.199c.172-.086.375-.258.547-.258.086.027-.375.199-.547.344-.086.059-.203-.027 0-.086zm.145.23c.289-.23 1.238-.633.547-.199-.059-.031-.289.199-.316.199s-.402.172-.375.231c-.027.144-.348.086.145-.231zm-2.48 2.074c.031 0 .059-.144.09-.144.027-.027.316-.402.402-.43.086-.23 1.211-1.414 1.586-1.559.027 0 .027.09-.031.09-.52.461-1.125 1.121-1.613 1.613l-.375.461c-.086.144-.172 0-.059-.031zm-.055.117c.113-.031-.117.316-.176.199 0-.027.117-.199.176-.199zm-.262.289c.059-.176.145-.031.059.055-.086.117-.113.09-.059-.055zm-1.496 2.273c.172-.172.113-.285.258-.43.027-.031.23-.375.289-.348v-.059c-.059-.055.488-.602.461-.746-.031-.031.113-.059.086-.086l.059-.117c.086-.086.055-.113.145-.203.055 0 .086-.172.145-.172.027.031.027.145 0 .145l-.09.086-.172.289c-.488.664-.949 1.586-1.441 2.246-.258.262.145-.547.262-.606zm-.492 1.039s-.113.144-.055.059c0-.059.055-.086.055-.059zm0-.809c.031-.027 0 .144 0 .117-.027 0-.027-.117 0-.117zm0 .723a.46.46 0 0 1 .145-.262c.059 0 .059 0 .031.059-.031.086-.176.231-.176.203zm.086-.953v.09c-.027.055-.027-.145 0-.09zm.289-2.965c.086-.117.031.055 0 .113-.059.117-.027-.059 0-.113zm-.145.43c.031-.059.031-.059.031 0 0 .086-.117.117-.031 0zm-.055.145c.055-.113 0 .203-.031.117 0-.031 0-.059.031-.117zm-.406 1.066c.031-.027.289-.922.262-.606 0 .145-.52 1.211-.262.606zm-.172.461c0-.086.086-.258.086-.172 0 .027-.086.199-.113.289l.027-.117zm-.086.231c.059-.145.086-.113.027.027-.027.144-.113.176-.027-.027zm-.375.98c.059-.172.289-.809.316-.777-.027.172-.172.488-.23.691-.027.027-.086.289-.113.231 0-.031 0-.086.027-.145zm-.145.344c.059-.141.086.09.027.09-.027 0-.055-.031-.027-.09zm-.086.262c.113-.231.027.172-.027.172-.031.027 0-.086.027-.172zm-.086.316s-.059.258-.086.203c0-.059.086-.23.086-.203zm-.172.461v.059c-.031.055-.031-.086 0-.059zm-.145.375c.086-.031-.086.316-.086.344-.09.117.055-.375.086-.344zm.172.086c-.027-.144.086-.488.23-.633.203-.203 0 .172.086.145 0 0 .059-.031.086-.059.031.086.117-.203.145-.231.23-.547.258-.809.52-1.184-.059-.141-.086.09-.145.059s-.059.059 0 .059c.027.059-.402.289-.117.231-.055.113-.172.316-.141.375 0 .027-.031.086-.031.086-.059-.027-.027.113-.059.086-.027 0-.027.027-.027.086s-.027.117-.113.172c-.117.09-.23.117-.23.059 0-.086.172-.289.172-.375 0-.113.086-.086.086-.172s.145-.375.203-.434c.027-.055.027-.055 0-.086-.059-.027 0-.258.086-.23.027.031.027 0 0 0-.031-.027-.031-.055 0-.145s.055-.055.086-.144c.027-.172.172-.461.23-.633.027-.289.434-1.094.547-1.441.086-.172.664-2.043.75-1.699 0 .059-.059.031-.031.086 0 .031 0 .059-.027.059s.027.086-.027.086c-.086.031 0 .172.055.059 0-.086.262-.605.23-.402l-.746 2.273c-.031.059-.031.059 0 .09.113 0-.203.633-.23.805-.375 1.067-.691 2.277-1.242 3.172-.027.055-.316.516-.402.43-.086-.027-.086.031 0 .059 0 0 .031.027.031.059 0 .055-.176.344-.23.402a.2.2 0 0 0-.059.113c0 .117-.086.203-.144.32s-.086.258-.172.316c-.031 0-.031-.117 0-.144 0 0 .027-.059.027-.145.059-.117.172-.258.172-.434 0-.027.086-.258.086-.316.059-.23.23-.547.348-.777zm.316.461c-.027-.059.172-.086.059.027-.031.031-.059.059-.059.09 0 0-.059-.059 0-.059.027 0 .027-.031 0-.059zm-.059.258c-.055.117-.145.059-.055-.086.027-.086.113.031.055.086zm-.691-.055v.055c-.027.059-.027-.113 0-.055zm-.113.316c.027.027-.059.199-.059.289-.027.086-.059.172-.059.113-.027-.086.117-.402.117-.402zm-.145 1.641c.059-.027.027.059 0 .086-.059.09-.027-.086 0-.086zm-.402-.402c.055 0-.031.086-.031.027 0 0 0-.027.031-.027zm-.059.117c.059 0-.027.141-.027.055 0-.027 0-.055.027-.055zm-.059.746c-.145.203-.059-.113 0-.145.059 0 .031.059 0 .145zm0-.574c.031 0 .031.086 0 .086-.059 0-.059-.086 0-.086zm-.086.258c.027 0 .027.086 0 .086-.059 0-.059-.086 0-.086zm-.145.461c0-.027 0-.086.027-.086.09 0-.027.203-.027.086zm0 .086c.117 0 0 .145-.027.059-.031-.059 0-.059.027-.059zm-.203.52c.09-.145.059-.23.117-.289.027 0 .027 0 .027-.055-.055-.059.031-.059.059-.059-.027.113-.203.574-.23.66-.086.117-.059-.027.027-.258zm-.172 1.902c.086-.117.059.059.031.086-.059.059-.09 0-.031-.086zm-.027.172c.059-.027.027.031 0 .059-.059.027-.031-.059 0-.059zm-.059.145c.059 0 .027.027 0 .058s-.027-.058 0-.058zm-.113-.547c.23-.402 0 .316 0 .258 0-.145-.23.176 0-.258zm-.09.344c.031.09 0-.086.031-.055v.113c-.059.231-.172-.145-.031-.059zm0 .664c0-.086.059-.028.031.027 0 .031-.031 0-.031-.027zm0 .203c-.027 0-.086.144-.086.055 0-.055.059-.231.117-.141 0 .027 0 .055-.031.086zm-.922 2.879c0 .031 0 0 0-.028-.027-.086.031-.027 0 .028zm.031-.113c-.031 0 .059-.29.059-.231s-.059.289-.059.231zm.289-1.903c-.031 0-.031 0-.031.059 0 .23-.199.75-.23.949l-.172.547c-.059.031-.027.176-.059.203 0 0-.027.059-.027.117l-.605 2.449c-.031.172-.086.344-.117.371-.055.176.203-1.207.203-1.265l.348-1.383c.113-.316.086-.316.199-.519.031-.059.031-.086.031-.118-.031 0 0-.23.055-.285.031-.031 0-.144.031-.176.055-.086.086-.371.145-.461.086-.171.027-.23.113-.371.059-.09.027-.175.086-.203.059-.058 0-.172.086-.23s.086-.231.145-.289c.031-.028.031-.403.086-.434.086-.086.176-.547.262-.516.027 0 .027.086-.059.231-.059.144-.027.199-.086.258s-.086.375-.145.461c0 .031-.203.633-.258.605zm.258.145c0 .058-.059.086-.059 0 .031-.086.059-.086.059 0zm0 .574c-.027.117-.086.203-.086.203-.059.027-.059 0-.031-.059.059-.113.231-.574.117-.144zm.059-.231c-.086.059.027-.171.027-.085 0 .031 0 .085-.027.085zm.172-1.121v.028c-.027.086-.027.289-.086.375-.23.402.059-.434.086-.403zm.289.403c-.031.172-.086 0-.031-.059.031-.027.031 0 .031.059zm.172-.461c-.027.117-.117.316-.145.23 0 0 .172-.433.145-.23zm.258-.719c-.027.113-.086.172-.086.086 0-.031.117-.231.086-.086zm.23-.637c-.145.262 0-.199.031-.172s0 .086-.031.172zm.262-.66c-.059 0-.059-.031 0-.059.027-.027.027.059 0 .059zm.574-2.219c-.027.055 0 .145-.055.199s-.09.262-.145.316c-.059.031 0 .23-.086.23l-.059.059c-.031.059.059.031.059.086 0 .031-.09 0-.09.059s.059-.027.031.027c-.059.32-.145.176-.117.262.031.059-.027.059 0 .113 0 .059 0 .059-.027.031-.027 0-.027 0-.027.055.027.059 0 .117-.031.23-.059.117-.199.262-.172.375 0 0-.059.231-.086.262-.348.75-.605 1.641-.895 2.418l-.059.145c-.027.144-.144.175-.027-.114.086-.144.172-.605.23-.636.027 0 .027 0 0-.028 0 0 0-.086.059-.144.055-.145.027-.172.086-.317.059-.086.027-.172.059-.23.027-.028.027-.059.027-.114 0-.09.086-.117.086-.23s.086-.262.086-.375c0-.031.031-.086.031-.117.027 0 .055-.086.055-.199.031-.145.176-.434.23-.461-.027-.176.406-1.098.578-1.387-.027-.055.289-.746.258-.516zm0-.637a4.9 4.9 0 0 1 .262-.633c.086-.086.027-.113.113-.23.086-.086.031-.23.117-.258.086 0 .027-.176.113-.086.031.027 0 .086-.027.172-.086.144-.086.258-.172.375-.059.027-.375.805-.406.66zm.52-.258c.027-.059.086-.289.145-.316.289-.519.258-.809.777-1.672l1.383-2.305c.262-.461.578-.98.922-1.383 0 .113.117.059.059 0 0-.031-.027-.031-.027-.059l.777-1.066c.027.027.316-.258.172-.203.172-.258 1.586-1.699 1.469-1.324-.113-.059.031.145-.055.117-.059-.031-.09 0-.09.055-.055.144-.141.144-.172.203 0 .027-.23.117-.23.172.027.086-.203.203-.23.289 0 .027-.027.058-.059.086-.055.031-.086.117-.145.117-.027-.031-.027-.059 0-.086s.031-.031-.027 0c-.027.027-.059.086-.059.172 0 .145-.145.344-.23.289-.055-.031-.23.027-.23.086 0 .027.117.027.145-.031.031-.027.086.031.031.059l-.461.605c0 .059-.23.316-.23.348-.031.027-.031.027-.059-.031-.059-.027-.059-.027-.086 0-.117.117-.203.289-.203.289.402-.375-.027.316-.172.461 0-.027-.059-.086-.086-.117.027-.027.055-.055.027-.086-.059-.055-.203.203-.23.23.027.059.172-.086.203-.144 0 .09.027.144-.031.144-.059-.027-.086.086-.059.059s.117-.027.117 0-.059.086-.086.172c-.172.23-.203.262-.262.23-.027-.055-.113-.027-.113.059 0 .027-.027.086-.086.117-.203.199.172.113-.031.23 0 0-.027 0-.027-.031-.027-.113-.145.031-.113.117 0 .027-.09.144-.059.144 0 .055-.117.086-.059.199 0 .086 0 .086-.059.117-.086 0-.144.027-.055.027.113 0-.145.231-.145.316-.059.203-.176.375-.203.348s0-.145-.059-.145.031.145-.027.145c-.086.058.086.113-.027.23-.09.059-.117.289-.176.199-.055-.055.059-.086.059-.172 0-.027-.027-.027-.086.059-.117.113-.027.203-.086.258-.031 0-.031 0-.031.031 0 .086.145-.144.09.027-.145.289-.117-.316-.203.289 0 .059-.059.086-.027.027 0-.027 0-.027-.031-.027s-.086.172-.059.231c0 .059 0 .086-.027.059s-.059.086-.086.055c-.086 0-.172.145-.117.203.059.086-.027.086-.027.144.027.059-.086.172-.117.172-.055-.027-.055.059-.027.117.086.055-.113.199-.145.172-.059 0-.027.145-.086.113-.027 0-.086.117-.027.144.055 0 .027.086-.086.203-.117.172-.059.172-.144.344-.117.059-.086.348-.203.23-.027-.027-.027-.055 0-.113zm3.543-5.762c0 .027-.027.027-.027 0-.059-.059.117-.086.027 0zM43 91.202c-.031.117-.172.086-.059-.027.059-.031.059-.031.059.027zm-.145.23c-.027 0-.086-.059-.059-.059s.086.059.059.059zm-2.422 5.188c-.055 0-.113-.027-.172-.027.059-.031.117-.031.172 0 .031.027.031.027 0 .027zm.145.027c0-.055.262-.027.289.031-.059.027-.258.027-.289-.031zm.547.059c-.172 0-.055-.086.031-.059.059.031.059.031-.031.059zm.406-.086c-.059.059-.375.086-.23 0 .027.027.258-.059.23 0zm0-.316c-.031-.031.055-.031.055 0a.03.03 0 0 1-.055 0zm6.223-5.418c-.145.258-.258.519-.258.547-.176.289-.461.578-.691.922l-.492.664c0 .027-.461.488-.43.547-.289.488-1.527 1.527-2.047 1.93-.375.316-1.586 1.098-2.133 1.066.027-.113.402-.172.52-.231 0-.027.375-.113.172-.172-.027 0-.027 0 0-.031.203-.113.289-.231.691-.43.059-.031.027-.086.086-.086.086 0 .348-.289.461-.348.145-.086.52-.43.578-.402.113 0 .055-.086.145-.172.055-.059.461-.289.316-.316-.117-.059-.086.086-.176.141-.113.031-.402.348-.516.406-.031 0-.086.027-.117.086-.113.144-.199.027-.059-.086.262-.145.723-.605.98-.867.086 0 .172-.086.203-.172.344-.316.863-1.066 1.211-1.266.055.055-.059.055-.059.113.027.027.086-.027.172-.113.117-.117.203-.145.23-.203-.086-.059.262-.258.262-.317-.059-.086.258-.316.316-.433 0-.027.027-.027.055-.027.059 0-.055-.059-.055-.086-.031-.059.027.086-.059.086-.059-.031-.203.289-.258.289s-.031.086-.09.113c-.344.203.519-.75.551-.895 0-.055.055-.027.055-.086 0-.027.031-.059.031-.059.055 0 .113-.113.145-.141 0 .055-.031.172-.09.199-.055.059-.027.145-.113.172-.086.09.027.117-.172.203.055.086.055.172.199-.027.203-.23.316-.461.492-.691.059 0 .027.027-.059.172zm-5.102 4.984c-.086 0-.086.145-.231.086-.144 0-.055.059-.086.059-.027-.027-.258.113-.289.086-.027 0-.027 0 .031-.027.059 0 .113-.117.172-.117.027 0 .059-.027.117-.086.086-.086.285-.144.285-.059.031.059.031.059 0 .059zm.031-.113c.027-.059.086-.059.172-.145.059-.086.145-.059.203-.117.027-.059.547-.402.316-.144-.145.176-.23.144-.375.262-.059.027-.316.23-.316.145zm-.348.43s-.059.059-.059 0c-.027-.027.059-.027.059 0zm1.152-1.008c.086-.172.348 0 .203-.027-.059-.031-.172.145-.203.027zm2.797-2.68c.027-.113.289-.402.316-.375-.059.117-.23.289-.289.375h-.027zm1.727-3.66c-.574 1.699-1.93 3.316-3.168 4.609-1.008 1.039-.895 1.156-2.566 2.047-.691.375-.922.492-1.352.633-.203.059-.289.09-.289.031-.027-.086.547-1.125.922-1.816.633-1.211 1.961-3.398 2.852-4.551.922-1.211 2.074-2.652 3.516-2.969.461.344.316 1.266.086 2.016z"/><path d="M65.301 89.647c-.027 0-.172.113-.172.086-.922.488-2.016 1.035-2.16 1.266.664-.231 1.613-.832 2.305-1.18.203-.086.203-.203.027-.172zm.348.172c-.058-.113-.461.172-.52.172-.375.176-.836.492-1.211.691-.113.031-1.93 1.356-1.469.867.145-.203.059-.117-.027-.145.059-.117.43-.289.461-.375-.289.145-.605.344-.895.547-.199.145-.23.145-.086 0s.172-.203.027-.117c-.027.031-.086.059-.086.059-.027 0 0-.402.031-.43.055-.32.172-1.816.145-2.133-.09-1.184-.031-1.5-.605-2.277-.262-.375-.375-.578-.723-.605-.402-.086-.719-.316-1.18-.059-.348.145-.777.52-1.039.809-.574.574-1.352 1.555-1.871 2.363l-.75 1.035c-.086.203-.059 0-.027-.086-.98 1.238-2.078 3.66-2.941 4.93-.027-.176.117-.578.145-.75l.375-1.211.633-2.047c.23-.574.375-1.18.605-1.785.145-.492.492-1.5.52-2.019.059-.488-.348-.199-.402-.371-.031-.145-.23-.059-.32 0 0 .027-.027.027-.027-.031-.258-.145-.461.809-.574.98l-.781 1.816-.863 1.93-.316.75c-.117.145 0 .375.172.172.117-.144.145-.144.145-.059.059.144.086.059-.145.809-.258 1.066-.344 1.066-.43 2.074-.059.375.113.574.285.863.031.117.176.117.289.203.434.52 1.211-.145 1.414-.52.344-.547.602-1.008.746-1.496.289-.695.406-.836.836-1.644.203-.375.375-.664.406-.664.055-.027.141-.113.141-.141s.262-.465.32-.551c.141-.285.488-.574.574-.922-.027-.086.52-.633.52-.805.027-.059.059-.086.113-.117.117-.027.117-.144.176-.199.113-.117.086-.23.199-.32.117-.113.348-.574.406-.547.027-.027.172-.172.199-.172s.059-.027.059-.086c.113-.348.344-.519.664-.836.285-.289.141-.172.488-.488.348-.289.863-.551.578-.289-.059.027-.09.086-.059.086.086-.059.375-.203.488-.203.059.031.23.23.23.289.031.117.059.059.086.172 0 .059.031.086.031.086.027 0 .055.203.086.203.172.836.172 1.324.145 2.566-.031.605-.031.66 0 .516.055-.23.172-1.066.285-1.152.059-.055.09-.027.059.031-.027.113 0 .375.059.375.027.258-.086 1.266-.172 1.641 0 .086-.031.258-.059.348-.059.547-.145.777-.23.777-.059 0-.086-.059-.059-.086a2.66 2.66 0 0 0 .117-.637c-.145.406-.262.375-.406.836-.055.203-.055.203-.316.406l-2.016 1.582a44.38 44.38 0 0 0-6.598 6.86c-1.645 2.133-2.969 4.035-4.152 6.511-.23.461-.344.922-.547 1.383-.086.289-.258.547-.285.836-.059.203-.117.348-.23.489-.031.031-.031.031 0 .089.055 0 .027.317.055.317.117.172.262.605.434.804 1.555 1.645 4.234-1.468 5.301-2.507 1.098-1.063 2.047-2.45 2.969-3.688l1.469-2.16c.203-.289.23-.52.492-.863 1.297-2.133 2.594-4.668 3.457-7.004.144-.43.316-.605.461-1.18.113-.262.316-1.328.488-1.527.289-.492.664-.75 1.125-1.066.922-.633 1.758-1.211 2.852-1.758.117-.086.117-.059.058-.144zm-12.273 1.613c0-.113.027 0 0 .027 0 .031 0 .031 0-.027zm-.117-.777c0-.144.027-.027.027.027-.027.031-.027 0-.027-.027zm.027 1.035l.031-.141c0 .055-.031.285-.059.316s-.027-.031.027-.176zm-.113-.746v.086c-.027.086 0-.117 0-.086zm-.059.199c.031 0 .031 0 .031.031s-.09 0-.031-.031zm-.086.348c.027-.031.027-.23.059-.23.027-.031.027 0 .027.027-.027.059-.059.262-.086.289-.059 0-.027-.086 0-.086zm-.113.461c0-.086.055-.117.027-.203 0-.027 0-.027.027-.059.059-.027-.086.492-.055.262zm-.031.145v.027c-.027.059-.027-.059 0-.027zm-.086-.664c.027-.144.027 0 .027.059-.027.027-.027 0-.027-.059zm-.691 2.68c-.086.348-.316 1.211-.23 1.469.059.117.059.145.027.145-.316-.316.086-1.211.145-1.641.316-.894.375-1.414.605-2.191.086-.258.145-.375.086-.203 0 .09-.172.578-.086.578.059 0 .059 0 0 .027l-.547 1.816zm.488-1.125c0 .059 0-.141.031-.086 0 .031 0 .059-.031.086zm-.086.32c0 .141-.059.141-.027 0s.059-.144.027 0zm-.113 1.93c-.031 0-.059.574-.145.375 0-.059.059-.031.059-.059-.031-.144.172-.98.258-1.238.117-.461.348-1.238.434-1.356 0-.027 0-.027 0 .027l-.262.953c-.113.344-.23.863-.344 1.297zm3.313-4.785c0-.027.086-.086.059-.027-.059.027-.145.203-.059.027zm-.113.176v.055c-.031.059-.031-.086 0-.055zm-.809 1.582c.027-.027.027 0 .027.031-.055.086-.055-.031-.027-.031zm4.984-5.965c-1.152.723-1.816 1.645-2.594 2.711-1.008 1.383-1.613 2.332-2.477 3.801-.75 1.242-.723 1.125-.262.203.176-.258.23-.434.434-.75.145-.258.203-.461.348-.719l.777-1.211c.719-1.094 1.356-2.016 2.277-3.027.402-.461 1.066-.949 1.438-1.094.289-.113.32-.086.059.086zm1.469 2.363c0 .059 0 0 0-.145v-.144c.031.059 0 .203 0 .289zm0-.605c.031-.086.031-.086.031.031 0 .23-.059.144-.031-.031zm.059-.316l-.027.117v-.117c-.031-.231.027-.144.027 0zm.145 1.238c.086-.172.059.547.027.52-.027 0-.027-.344-.027-.52zm0 2.074v-.055c.027.027 0 .144 0 .055zm-.52 1.644c.031-.144.059-.258.117-.258.027 0-.031.285-.059.344-.059.086-.086.027-.059-.086zm-.23.113c.031-.055.145.09.059.117-.027.027-.086-.086-.059-.117zm-12.996 18.903c-.23.117-.488-.172-.113-.172s.488-.23.75-.316c.863-.489 1.957-1.442 2.477-2.016.547-.637 1.5-1.5 1.902-2.106.027-.199-.52.52-.547.547-.117.145-.664.692-.922.981-.547.633-1.383 1.469-2.02 1.875-.605.43-1.555 1.094-1.902.89-.055-.054-.055-.085-.027-.546 0-.344.027-.52.059-.606.027-.055.027-.086 0-.113-.086-.145-.117.199-.117-.031.059-.231.145-.719.262-.836 0 .031-.176.578-.144.605.027.09.059.031.113-.199.176-.578.203-.434.375-.895.117-.316.289-.343.316-.664-.055-.14.348-.777.434-1.008l.289-.546c.113-.114.836-1.469.836-1.383.055 0 .027.086-.031.113-.027.059-.055.176 0 .176.059-.031.262-.317.262-.406 0-.055.027-.086.258-.403.172-.289.262-.402.203-.402-.176.172-.348.488-.52.719-.086.175-.145.144-.027 0 .055-.028.055-.172.027-.231s.059.031.113-.054c.059-.032.059-.118.031-.118s-.031 0-.031-.027c.031-.059.059.113.145-.031.086-.114.145-.317.262-.403.059-.058.086-.113.113-.144 0-.027.031-.059.059-.059s.027-.113-.027-.172c-.086-.086.086 0 .113-.058 0-.055.086.058.031.058-.059.032-.09.231-.059.262.027 0 .059-.031.086-.058.027-.086.172-.231.145-.317-.086-.058.23-.406.258-.551.031-.086.316-.371.375-.515.027.172.086.172.203.027.113-.203-.145-.113.027-.289.059-.055.348-.43.402-.516.031 0 .289-.406.289-.289.059.059.059.059.117 0 .113-.144-.031-.203.144-.375.141-.203.199-.117.231.028 0-.055.055-.172.086-.231.027-.027.055-.058.027-.113-.086 0 .23-.348.375-.547.203-.203.145.027.402-.289.145-.172.059-.316.203-.433.199-.199.316-.402.316-.43l.113-.059c.203-.203.176.059.09.113-.031 0-.031.031-.031.058.031.086.723-.691.809-.777.23-.316.949-.922.98-1.211-.031-.145.141-.172-.117-.145.059 0 .172-.172.172-.086.031.027.059 0 .203-.113.289-.262.461-.434.434-.461-.031-.059-.578.516-.637.488-.027-.027.176-.172.031-.117-.086.059-.434.406-.605.52-.117.059-.059.289.059.203.027-.031.027-.059.027-.059-.059-.027.113-.203.059 0 .027.059-.289.348-.23.203.055-.117.055-.145 0-.117s-.203 0-.203.059c0 .027-.145.172-.172.203-.031.055-.117.086-.203.199-.086.086-.461.402-.402.519.027.086.027.086-.086.086-.145-.059-.316.348-.461.461-.348.23-.664.777-1.008 1.094-2.133 2.508-4.207 5.274-5.535 8.301-.059.203-.145.316-.199.461 0 .027-.145.316-.203.316s-.086.059-.059.086c.059.031-.027.289-.059.348 0-.059.09-.348 0-.317-.027.028-.027 0 0-.117l.262-.633c.027-.058.086-.117.086-.144 0-.059.203-.488.203-.547 0-.031.027-.059.027-.059.113-.058.145-.347.203-.433.113-.113.199-.375.285-.516.059-.031.031-.058.059-.117.117-.23.316-.547.461-.777.086-.172.23-.461.348-.606.055-.027.285-.488.375-.605.172-.113.141-.289.258-.434.23-.285.633-.949.895-1.238 0 0 0-.027.027-.059.059-.054.027-.14.117-.199.141-.144.172-.289.285-.402.059-.031.289-.375.348-.434.027 0-.031-.058.027-.058.316-.289.547-.75.809-1.008.144-.086.172-.258.316-.348.027 0 .145-.141.23-.316.059-.145.172-.114.23-.231 0-.027.113-.086.113-.144 0-.027.117-.113.117-.141s0-.059.027-.031.059-.172.086-.145c.059 0 .09-.113.117-.144.059 0 .113-.141.145-.141.059 0 .258-.203.289-.262 0 0 0-.027.027-.027 0 .027.027.027.027 0 0-.086.23-.316.316-.434.031-.086.262-.203.289-.289 0-.055.059-.113.086-.172.086-.059.32-.316.406-.344.027.027 0-.059.027-.031.258-.43 1.527-1.555 1.641-1.613.031 0 .031 0 .031-.027.027-.031.086-.117.145-.176.172-.141.113-.141.258-.23.086-.055.145-.086.145-.113 0-.059.605-.547.633-.547l.031-.031c0-.027.055-.086.145-.172l2.074-1.641c.145-.117.402-.406.375-.262-.031.086-.059.289-.117.375-.027.031-.059.086-.059.117.086.086-.574.516-.836.75a34.62 34.62 0 0 0-1.871 1.613c-.203.23-.027.086-.059.172 0 .027-.027.027-.086.027-.027-.059-.316.172-.289.203s.176-.086.145-.031c0 .031-.059.09-.316.375-.086.059-.117.117-.086.144.027 0 .98-.836.98-.891 0-.031-.117-.031-.117-.059.172-.203 1.008-.895 1.383-1.184.867-.746 1.125-.949 1.125-.863 0 0-.027.117-.086.231-.23.75-.547 1.5-.836 2.246-.434 1.066-1.094 2.336-1.613 3.402l-1.184 2.133c.145.086.781-1.356.895-1.211.059.058-.203.258-.23.344 0 .117-.434.836-.605 1.039l-1.008 1.613c-.117.144-.144.316-.203.434-.027.027-.027.058-.027.058.059.027.059.113 0 .141-.086.176-.289.551-.461.551-.086 0-.117.14-.172.14-.117.059.086.031.086.059 0 .058-.145.144-.176.144-.141 0 .176-.144 0-.113-.172.086.031.172-.086.199-.258.117-.113.317-.23.348-.027 0-.055.027-.055.172-.031.172-.059.144-.117.258-.027.058-.059.089-.113.058 0 0-.117.117-.145.172 0 0-.031.031-.059.031-.059.028-.086.028-.086.059-.031.027.027.027.199-.031.031 0 .031 0 0 .058s-.055.086-.141.059c-.09.027-.176-.059-.145 0 0 .199-.348.461-.434.605-.027.055-.145.086-.172.172-.059.113-.262.289-.262.231.031-.059-.027-.059-.027 0v.086c-.059.027-.027.113-.113.171s-.176.231-.262.289c-.316.172-.633.633-.922.922-.52.547-.777.809-1.238 1.153-.492.375-.145.316-.492.605-.949.692-1.121.922-2.074 1.18zm.086-3.227c0-.054.031-.172.059-.199s.145-.348.172-.289c0 .059-.086.375-.086.344-.027 0-.113.117-.145.144zm1.414-2.734c.027-.031.059-.031.059.027 0 .028-.086.059-.059-.027zm1.324-1.902c0-.059.059-.059.059 0-.027.027-.059.027-.059 0zm.176-.407a.03.03 0 0 1 .055 0c0 .059-.055.032-.055 0zm.891-1.152c.086-.086.059 0 0 .031-.059.055-.059.028 0-.031zm.172-.23c.059-.028.031.031 0 .031s-.027-.031 0-.031zm2.969-3.426c0-.031.059-.117.086-.09.059.059-.113.203-.086.09zm.262-.234c.027-.086.086-.055.113-.141.059-.09.262-.348.375-.375.172-.176 0 .086-.172.285-.117.09-.23.406-.316.348-.031 0-.031-.027 0-.117zm1.008-1.152c.086-.027.059-.113.113-.113s.059.059 0 .086c-.027.027-.055.059-.055.117-.031.141-.23-.031-.059-.09zm4.465-3.398c-.027.059-.027-.086-.027-.059.027 0 .027.031.027.059zm-.52 1.297a.03.03 0 0 1-.055 0c0-.058.055-.027.055 0zm-.141.863c-.031.059-.031-.086 0-.059v.059zm-.031.117c0 .055-.059.055-.059 0s.059-.059.059 0zm-.52 1.211c-.055.027-.086-.09-.055-.145.055-.059.086.145.055.145zm-.027.199c-.027 0-.059 0-.059.031-.027.027-.027.027-.027 0 0-.059.059-.176.086-.176.059.031.027.145 0 .145zm-.145-.145c-.086.031-.027-.144.027-.055 0 .027 0 .055-.027.055zm-.059.117c-.027.086-.086-.059-.027-.031.027 0 .027.031.027.031zm-4.148 7.777c-.086.117-.144.234-.258.348-.145.144-.176 0-.059-.114s.113-.32.316-.234zm-.434.492c-.027.028-.027.028-.027 0 0-.058.117-.058.027 0zm-.488.719c0 .059-.461.52-.316.23.086-.171.172-.23.316-.23zm-2.707 3.172c-.086.086-.176.172-.176.144-.055 0-.027-.058.031-.117.199-.23.258-.289.289-.289.086 0 .027.117-.145.262zm-1.758 1.758s-.031.027-.059.027c-.086.059.059-.113.059-.027zm.344-.231c-.059.055-.113.086-.113.028s.285-.204.113-.028zm.348-.261c-.031 0-.23.261-.23.144 0-.086.285-.258.375-.316.145 0-.117.172-.145.172zm.289-.258c-.145.113-.031-.059.027-.059.027 0 .027 0-.027.059zm10.719-17.52c-.203 1.094-.519 1.93-.894 2.938-.488 1.269-1.125 2.594-1.758 3.805-1.758 3.344-4.18 6.86-6.828 9.594-.145.176-.836.895-1.098 1.039.375-.488.98-1.008 1.383-1.469.52-.578 1.039-1.183 1.5-1.789.059 0 0-.086.027-.086.09-.027.23-.257.289-.316.086-.059.031-.113.086-.145.059 0 .059-.085.145-.144.402-.402.605-.922 1.008-1.352.09-.086.176-.175.176-.175 0-.086.145-.231.172-.317s.086-.086.113-.144c-.055 0 .434-.633.52-.805-.027-.027-.059 0-.059.059l-.027.027c-.172.144-.664.894-.805 1.008-.176 0 .258-.461.258-.489.113-.203.691-.98.75-1.093.605-.895 1.152-1.848 1.672-2.77.141-.144 1.008-1.898 1.008-1.988.258-.344.285-.547.43-.836.145-.258.145-.285.289-.574.375-1.039.723-1.672 1.066-2.621a32.1 32.1 0 0 1 .402-1.297c.031-.262.316-.406.176-.059zm.316-1.645c-.059.231-.031.465-.145.578-.059.027-.059.059 0 .086.086 0 .027.262-.086.375-.031.059-.059.117-.059.117-.059 0-.059-.176-.027-.176.055-.027.027-.199.086-.231.027-.027.086-.375.086-.574 0-.289.086-.262.113-.606.059-.316.059-.375.086-.348s0 .461-.055.777zm-5.852-.547c-.027 0-.055.059-.055.144-.031.145.141-.172.055-.144z"/><path d="M78.556 88.464c-.172-.516-.488-1.152-1.035-1.297-.117 0-.922-.055-.867.059 0 .027.031.027.09.027.027-.027.055 0 .086.059.055.117.285.059.344.144.547.953.492 2.016.348 3.313-.031.231-.031.551 0 .461.23-.777.316-1.957.172-2.734-.059-.086-.059-.316.027-.059.406.922.031 2.852-.258 3.66 0 .059 0 .145-.027.145-.031.027-.031 0-.031-.059.031-.172-.059-.027-.086.172-.344.953-.922 2.133-1.672 2.738-1.527 1.324-2.648.316-3.141-1.297-.199-.633-.258-.172-.402-1.039-.086-.547-.144-1.152-.316-1.668-.031 0-.059-.262-.086-.289a1.2 1.2 0 0 0-.231-.375c-.031-.059-.059-.086-.086-.086-.059 0-.144-.086-.231-.086s-.289-.145-.375-.086c-.059 0-.09 0-.117-.031-.086-.059-.344-.059-.488 0-.664.348-1.328 1.269-1.817 1.844-1.152 1.469-2.652 3.832-4.004 4.93-.144.086-.809.375-.867.317-.172-.145.176-1.902.262-2.16.086-.375.316-.895.375-1.328.199-.836.633-1.812.922-2.68.055-.172.344-.719.317-.719 0-.031.058-.144.086-.144.027.086.027.172.172.059s.402.055.375-.262c0-.145 0-.199.258-.691.117-.289.262-.52.262-.52.059-.055.375-.746.402-.805.059-.027.375-.777.402-.809l.32-.66.719-1.441c.113-.059.059-.203-.086-.203-.059 0-.172-.145-.262-.086-.055 0-.086 0-.086-.059 0-.027 0-.027-.086-.027-.199.086-.574.086-.75.23-.055.086-.231.086-.258.172-.086.117-.203.086-.316.348-1.094 1.613-1.731 3.109-2.391 4.695l-1.211 3.344c-.316 1.152-.863 2.996-.059 4.035.203 0-.258-.551.086-.203.316.344.031.633.664.719.981.145 1.816-.691 2.477-1.496.117-.203.316-.348.348-.519-.031-.027.113-.258.086-.086.027.402.836-.863.98-1.008l1.813-2.48c.434-.547.953-1.238 1.473-1.641a1.9 1.9 0 0 1 .258.777c.289 1.211.434 2.363 1.27 3.371.316.375.777.633 1.066.949.285.289.43.32.891.492 3.285 1.035 4.984-5.648 4.293-7.926zm-.98-.43c-.027.055 0-.117 0-.058v.058zm-14.004 5.848c-.055.172-.113.289-.113.289-.059 0-.059-.059-.027-.086.027 0 .027-.059.027-.086.059-.32.402-1.039.113-.117zm.578-1.871c-.027.23-.145.516-.231.719-.027.027 0 .203-.059.203-.027.055-.086.547-.199.43l.488-1.352zm.117.144c-.031 0-.031-.059 0-.059.055 0 .055.059 0 .059zm.141-.75c-.055.086-.113.375-.199.461-.086 0 .113-.316.086-.348 0-.086.086-.059.059-.144.027-.231.199-.231.055.031zm.231-.578c-.086.144-.055.262-.141.316-.117-.027.027-.113.027-.199.059-.231.258-.52.113-.117zm-1.758 6.137c.09.203-.113.09-.172-.141-.144-.434.086-1.441.172-1.902.031-.348.145-.691.262-1.039.172-.402.258-.777.402-1.152.172-.402.258-.863.434-1.238.055-.23 1.094-2.652.375-1.27-.117.262-.23.434-.23.348.375-1.066 1.297-2.766 1.785-3.746a.06.06 0 0 1 .059-.059c.199-.027-.059.434-.059.488-.086.176-.23.664-.316.809-.691 1.441-1.184 2.738-1.73 4.207-.43 1.41-.949 2.594-1.008 4.121l.027.574zm.117-.836c-.027.059-.027-.086 0-.055v.055zm.402-1.582c-.086-.203-.059.461-.086.461 0-.117-.059-.086-.059.027.031.117-.027.059-.027.172 0 .09-.145.375-.145.289s.203-1.297.348-1.211c.055.031.055.031.027.059-.059 0 0 .262-.059.203zm4.41-1.238c-.145.258-.434.402-.578.574-.23.144.031-.231.086-.316.145-.145.203-.375.406-.488.086-.059.344-.406.316-.461 0 0 0-.031.027-.031.086.059.434-.375.492-.488.055-.289.344-.492.488-.75.086-.172.144-.172.172-.258 0 0 0-.031.031-.031.113-.059.746-.719.863-.75.777-.344-.375.461-.461.664l-1.008 1.211-.836 1.125zm2.391-2.394c-.344.289-.777.867-1.094 1.125.059-.375.805-.981 1.121-1.383.434-.375.461-.144-.027.258zm1.816 2.996c-.031 0-.031-.086 0-.086 0 0 .059.086 0 .086zm.144.348c0 .059-.059-.086-.086-.203-.059-.285.113.145.086.203zm6.109-5.707v.059c-.031.059-.031-.086 0-.059zm-.289-.574c.027.027 0 .144 0 .172-.031-.027-.086-.23 0-.172zm-.262-.434s0-.027.031-.027c.059-.027.027.113-.031.027zm.059.578c-.086-.262.086-.086.086.059 0 .055-.055 0-.086-.059zm.145.344c.027.086 0 .262-.027.231-.059-.055-.059-.316.027-.231zm-.231 4.094c-.027.027-.203.344-.203.402.031 0-.402.836-.43.777-.059-.027-.262.406-.316.434-.031 0 .172-.492.23-.492s.199-.285.055-.141c-.055.055-.055.055-.027 0 .059-.203.145-.059.113-.203-.027-.086.031-.059.031-.086 0-.059.086-.231.113-.231 0 0 .031-.031 0-.031.031-.172.289-.488.316-.66 0-.031.031-.086.059-.117.059-.086.031-.23.117-.344.059-.086.059-.492.113-.578.031 0 .031 0 .031-.027s0-.117.027-.203a7.85 7.85 0 0 0 .172-2.449c-.055-.23-.086-.375-.055-.375.371.836.258 2.074.055 3.086-.086.344-.199.977-.402 1.238zm.691-2.019c-.059.75-.258 1.441-.086.32a14.03 14.03 0 0 0 0-2.219c.113.371.113 1.41.086 1.898zm-13.284-1.76c-.055-.055-.086.117-.086.176 0-.031.086-.144.086-.176zm22.305-1.18c.144-.145-.145-.086-.375-.113-1.152-.117-2.707.633-3.715 1.324.055-.492.141-.723.316-1.383.027-.289.375-1.125.199-1.238-.172-.231-.285-.32-.691-.289-.285-.031-.316 0-.43.059-.262.199-.262.719-.461.977-.059.144-.461.953-.52 1.098-.172.488-.664 1.266-.664 1.93 0 .316 0 .344.172.289.695-.262.059.836-.23 1.324-.891 1.41-1.266 2.566-1.555 4.18-.027.199 0 .66.086.746.059.117.176.117.262.23a.66.66 0 0 1 .113.09c.117 0 .316.23.434.172a.37.37 0 0 1 .144.027c.027.086.285-.027.258-.144.027-.145.23-.66.23-.66.633-1.559 1.211-3.344 1.699-4.988.316-.832 1.527-1.785 2.336-2.391-.086.031.98-.605 1.496-.75.348-.086.922-.316.922-.344-.027-.027-.113-.117-.027-.145zm-7.406 6.426c-.027.059-.027-.059 0-.059v.059zm.059-.144c0 .027-.027-.086 0-.059.027 0 .027.031 0 .059zm.172-.461c-.027.027-.144.375-.144.316-.027-.059.176-.52.144-.316zm.031.578c0 .055-.031-.059 0-.031.027 0 .027.031 0 .031zm.285-.723c-.027.059-.027-.059 0-.027v.027zm1.617-3.945c.055-.09-.117.633-.117.402 0-.027.059-.402.117-.402zm-.289 1.988c.059-.09.113-.262.172-.203.027 0-.258.488-.258.375 0-.059.027-.117.086-.172zm-.836.863v.059c-.031.055-.031-.086 0-.059zm1.125-.059l-.867 2.535a6.06 6.06 0 0 0-.144.406c-.199.547-.285.719-.344.805-.086.117-.117.117-.086.027.113-.66.258-1.352.488-1.898.172-.52.375-1.27.723-1.703 0 .375.172-.172.055-.086-.055.031-.027-.027.086-.23.176-.258.176-.199.09.145zm1.121-2.449c-.145.117-.461.664-.633.578.027-.145 1.699-1.559.633-.578zm8.818-3.484c.086.086.172.285.258.285.203.086.551.031.723-.113.316-.262.461-.633.144-1.008-.434-.406-.922-.231-1.184.285 0 .117-.027.605.059.551zm4.695 3.715c-.141.231-.172.434-.371.664-.176.23-.203.289-.145.258s.055 0 0 .086c-.059.144-.144.059-.23.23-.031.086-.059.145-.086.145-.059 0-.23.262-.289.289l-.637.664c-.027.086-.086.027-.086.086.031.027 0 .027-.027.027-.059-.027-.059-.027-.059 0 .031.059 0 .059-.059.086-.086.031-.172.176-.23.203-.027 0-.086.086 0 .059.031 0 .031 0-.027.086l-1.5 1.383c.348-.402.406-.375.953-.922.086-.059.258-.231.289-.316.027 0 .145-.117.027-.059-.895.805-2.305 2.16-3.371 2.594-.289.086-.836.317-.895-.117-.086-.285-.113-.574-.113-1.066 0-1.152.258-1.93.547-2.937.316-1.039.605-2.016 1.18-2.797l.09-.172c.172-.172-.059-.488-.262-.488-.172-.059-.605-.172-.719-.117-.519.316-.492.375-.777.981-.203.488-.637 1.039-.836 1.441-.086.172-.637 1.008-.117.863.117-.059.145-.027.117.059-.32 1.094-.637 2.738-.262 3.832.086.316.547.777.836 1.066.348.289.375.258.922.348 1.066.141 2.106-.695 2.824-1.387.402-.402 1.527-1.352 1.672-1.641 0-.027.172-.258.258-.348.059-.086.031-.086.086-.141.031 0 .059-.031.059-.059 0-.086-.172.113-.145.113-.172.203-1.207 1.152-.949.836.086-.059-.086-.059-.059-.113v-.059c-.086-.086.086 0 .086.027 0 .117.262-.113.176-.144-.059-.027-.031-.055.055-.027.145 0 .086-.027.203-.113.949-.894 0-.289.488-.75.059-.059.145-.059.031.027-.059.059-.086.117-.031.145.117-.027.348-.289.434-.434 0-.086.059-.055.059-.141 0-.058.027-.09.027-.09.172-.055.172-.285.348-.402.145-.113.086-.145.199-.258.031-.059.059-.086.059-.117.059-.027.145-.113.145-.231 0-.059.145-.289.289-.461s.258-.547-.059-.113c-.117.199-.289.402-.375.605 0 .055-.434.547-.922 1.035l-2.219 2.074c-1.039.894-.836.519-.172-.027 1.238-1.094 2.16-1.988 3.227-3.285.059-.027.949-1.211.488-.777a1.46 1.46 0 0 1 .262-.461c.258-.492-.348.113-.406.258zm-.977 2.25c.027 0 .055-.031.055-.031.031.031-.141.144-.055.031zm-.895.891c.059-.086.172-.199.23-.258.086-.059.086.027-.027.113s-.09.117-.145.145-.059.031-.059 0zm-.145.172c.027-.172.203-.141.059-.027-.031.027-.059.027-.059.027zm-.23.176c0-.059.117-.086.172-.059.031.027-.113.027-.113.059-.031.027-.086.027-.059 0zm-.289.316c0 .027-.055.086-.055.059s.055-.059.055-.059zm-.086.344c0 .059-.145.059-.059-.027.059-.027.059-.027.059.027zm-.086-.258c.117.059-.027.086-.027.027 0-.027 0-.027.027-.027zm-.344.348c.027 0 .141-.203.141-.176 0 .176-.199.203-.141.176zm-.406.285h.059c.059.031-.086.031-.059 0zm-.949.231c.027.031.43-.317.461-.317.059 0-.578.578-.461.317zm.519-.375s.027 0 .027.031-.117 0-.027-.031zm3.977-4.062c-.117.117-.145.289-.32.433-.344.258-.199.086.059-.172.086-.086.172-.289.262-.316a.03.03 0 0 1 0 .055z"/><path d="M96.392 92.124c-.055-.172-.055.117 0 .203.031.027.031.027 0 0-.055-.031-.055.086-.113.113-.031 0 0 .23.058.262.086.055.027-.145.055-.176a.43.43 0 0 0 .031-.316c0-.027-.031-.055-.031-.086zm7.207.691c-.031.117.086-.027.086-.086s-.058.027-.086.086zm-.175.348c.031-.059.175-.203.117-.262-.059 0-.086.176-.172.203-.09.086-.031.203.055.059zm-7.75-.723c-.059.031 0 .289.027.059.031-.059 0-.059-.027-.059zm7.23 1.414c0 .055-.055.113-.086.144 0 .055.059.027.086-.031 0-.059.117-.144.145-.199 0-.059-.114.027-.145.086zm-6.742-2.766c.086-.144 0-.203-.027 0v.113l.027-.113zm7.148 2.188c-.058 0-.117.117-.117.172 0 .117.231-.231.117-.172zm-7.175-2.969l-.434 2.047c0 .031.031.031.031-.059.144-.461.23-1.094.402-1.727.027-.117.027-.289 0-.262zm.348-.371c.086-.406.113-.465.086-.492 0-.027 0 0 0 .027-.031.117-.059.059-.086.203 0 .145-.059.117-.059.23 0 .059 0 .086-.031.117-.055.199-.055.547.09-.086zm.461-1.731c.055-.117.055-.203.113-.348.059-.344-.289.551-.113.348zm-.231.805c.027-.086.141-.316.086-.371-.059-.117-.176.602-.086.371zm9.621-8.27c.086.031.086.031.086-.027.117-.086-1.41-.027-1.383-.027 0 .027 1.297.027 1.297.055zm-4.004-.199c-.203 0-.231.086 0 .059s.203-.117 0-.059zm4.035-.145c-.086-.031-.23-.031-.316 0-.231 0 .515 0 .316 0zm-3.691.113c-.055 0-.028 0 .089 0 .258 0-.031 0-.089 0zm2.968-.113c-.086-.031-.574 0-.75 0h.75zm-2.39.258c-.059 0-.258.031-.059.031.086 0 .117 0 .059-.031zm-1.297-.113c-.434.027-.403.172 0 .086.23-.027.23-.086 0-.086zm-4.149.805c-.23.031-.578.086-.605.145-.027 0 .027 0 .461-.059.375-.055.434-.113.144-.086zm11.7.262c-.032-.059-.059-.059-.032.055.032.09 0 .176-.027.262 0-.348-.086-.578-.348-.809-.14-.113-.172-.113-.086-.027.059.086.059.086-.027.059-.809-.348-1.5-.434-2.363-.406.949.09 1.961.145 2.508.605-.032.031-.262-.027-.348-.086-.199-.145-.516-.199-.691-.231-.461-.113-1.813-.258-2.102-.113.113.027.316.027.691.027l.575.027c.031.031.289.09.55.09.172-.031.922.113.864.231-1.383-.32-3.516-.289-5.043-.117-.117 0-.172 0-.172-.027-.059-.086 1.121-.144 1.469-.203.343-.059.75.086 1.066-.059-.402-.172-1.789 0-1.988-.027-1.125.027-2.336.23-3.43.289 0-.059.027-.059.027-.117.262-.027.578 0 .52-.113-.027-.031-.317.027-.488.055.027-.086.086-.172.086-.199 1.007-.086 1.152-.262.027-.086.262-.664.348-.691.637-1.328l.546-1.238c.028 0 .286-.664.344-.691.031 0 .059-.172.086-.172.031-.031.031-.086.086-.203.059-.145.117-.289.145-.43 0-.117.23-.519.203-.606 0-.23-.086-.203-.231-.289a.69.69 0 0 0-.519-.145c-.086.027-.199-.027-.289.086-.028.027-.055.059-.086.059-.199.144-.258.375-.375.664-.028.027-1.094 2.188-.692 1.668.059-.086.086-.055.059.031-.231.402-.258.719-.434.981-.113.055-.054.086-.172.258-.113.203-.058.203-.171.344s-.231.637-.348.691c0 0-.113.203-.231.492l-6.078.777c-.547.027-1.297.059-1.5-.086-.055-.027-.145-.059-.172-.086-.086-.031-.144 0-.203-.117-.086-.086-.141-.086-.231.031-.141.113-.141.488-.172.746.402.953 2.25.434 3.141.375l4.844-.719c-1.066 2.621-1.988 5.273-2.684 8.012-.055.461.289-.637.262-.664l.691-2.246c.145-.375.203-.32.086 0-.027.086-.145.402-.086.402.113 0 .23-.836.316-1.039.027-.027 0-.144.059-.172.059-.059.059-.172.145-.402.144-.23.144-.461.285-.547.059 0 .09-.031.031-.059-.086-.031.059-.203.027-.231 0-.031.031-.059.031-.086.055-.059.027-.059.086-.144.113-.145.086-.289.199-.434.031-.059.031-.086.059-.059 0 .176-.172.637-.231.809 0 .086-.086.113-.086.203 0 .027 0 .086-.027.086a.61.61 0 0 0-.059.231c-.981 2.824-1.816 5.676-2.25 8.644-.086.145-.285 2.793-.086 3.082.031.059.059.348.086.434-.547-1.27-.402-2.942-.172-4.437.031-.145.031-.434 0-.434l-.086.547c-.203 1.328-.375 3.227.172 4.438.117.262.375.578.547.809a1.15 1.15 0 0 0 .52.633c.176.086.578.434.75.402.172 0 .203.059.375.086.461.059 1.125-.055 1.41-.285.289-.176.461-.375.75-.605.348-.262.29-.117.665-.492 1.296-1.383 2.101-2.879 3.113-4.406.086-.176.316-.52.344-.723-.059-.055.316-.574.257-.574-.199.172-.461.836-.66 1.121-.203.348-.375.578-.633.926l-.605.832c-.031.031-.09 0-.09.031.031.027-.141.172-.141.199 0 0-.031.059-.089.117-.317.461-.461.777-.891 1.297-.117.145-.375.375-.348.289.032-.031.032-.059.032-.086-.032-.058.054.027.054-.031.492-.891.953-1.41 1.473-2.16l1.641-2.566c.433-.66.949-1.496 1.296-2.246l.809-1.586c-.031 0-.23.348-.348.637l-1.902 3.168c-.23.461-.605.949-.863 1.41-.117.145-.403.606-.547.836-.203.262-.375.606-.578.836-.028 0-.086.203-.172.231-.027 0-.348.406-.434.578-.086.113-.113.113-.086-.027-.027-.117.231-.434.434-.695.289-.371.633-.891.863-1.266.059-.144.086-.117.117-.203s.028-.086-.031-.027c-.058.027-.058.113-.086.113 0 0-.027.059-.058.09-.055.086-.172.258-.2.344-.058.027-.086.172-.175.231s-.055.117-.114.144c-.058 0 .231-.375.258-.434l.606-1.008c.175-.258.347-.488.492-.777.144-.144.316-.488.43-.664.031 0 .031 0 .031-.027 0 0 .172-.23.172-.144-.028.23.488-.75.519-.777.285-.578.692-1.094.981-1.613.086-.117-.032-.262-.09-.117-.086.176-.086.145-.231.406-.172.316-.375.547-.488.832a2.39 2.39 0 0 1-.316.434c-.059.059-.032.144-.086.172l-.059.117c-.027.113-.117.113-.027-.059.086-.344-.231.145-.262.231l-2.418 3.746c-.031.059-.551.75-.551.809-.027.086-.054.145-.23.344-.231.316-.344.262-.606.633-.14.176-.89.867-1.093 1.066 0 .031-.145.144-.199.144 0 0-.031 0-.031.031-.113.086-.691.402-.98.402-.258.027-.574.113-.777-.086-.316-.316-.52-1.008-.605-1.5-.199-.719-.055-3.254.406-4.637.027-.23.086-.406.113-.637.027-.922.231-1.152.402-1.93.176-.836.406-1.441.637-2.102l.402-1.356 1.929-5.07c.348 0 .547-.059.836-.09.172-.027.204-.027.231-.086 0-.055.144-.027.058-.027-.117.027 0 .113.086.059.086-.031.114.027.258-.031 1.731-.144 4.035-.344 5.735-.144.605.09 1.382.059 1.699.578.058.059-.231.574-.258.691.086.145.172-.316.258-.203.031.086.058-.113.117-.144s.027-.141.086-.141c.086 0 0-.406-.027-.375zm-8.5-3.027c.054-.027.027.031 0 .059-.032.086-.032-.059 0-.059zm-.059.231c.027 0-.027.059-.027.059-.032 0-.032-.086.027-.059zm-.262-.894c0-.055.059-.086.032 0-.032.059-.059.09-.032 0zm0 1.473c.059 0 .032.055 0 .055s-.027-.027 0-.055zm1.297 15.816c.176-.23 0 .145-.055.145s-.031-.027.055-.145zm-.14.262c.027-.086.085-.059.027-.031 0 0-.086.144-.117.117 0 0 .031-.059.09-.086zm-1.211 1.785c.027-.231.461-.66.488-.75 0-.027.172-.231.203-.199s-.086.086-.059.113c-.058.203-.203.316-.343.519-.032.059-.321.434-.289.316zM97.287 81.26c.059 0 .027.059-.027.059s-.031-.059.027-.059zm-.434.086s.031-.027.031 0c.059 0-.059.031-.031 0zm-.113 0s.027-.027.059 0c.027 0-.059.031-.059 0zm-1.672.434c-.231 0 0-.027.059 0 .027 0 0 0-.059 0zm.172.086h-.055c.027-.027.199 0 .055 0zm.262-.059c-.031.031-.059 0-.031 0 0-.027.059 0 .031 0zm.113 0c-.059 0 0-.027.031 0h-.031zm.52.262c0 .027-.059.027-.172.027-.578 0 .402-.172.488-.113 0 .027-.316.086-.316.086zm.289 0c-.031 0-.031 0 0-.031.059 0 .027.058 0 .031zm.258-.031c-.113-.027 0-.055.031-.027.027 0 0 .027-.031.027zm.375-.086c-.027 0-.059 0-.027-.027 0 0 .113.027.027.027zm.027-.172c-.027-.027-.172.059-.113-.027 0-.059.289 0 .113.027zm.176-.059c.027 0 0 .059.086.031.144-.031-.117.113-.086-.031zm.145.172c-.09.059-.031-.141 0-.055v.055zm.746-.285c0 .027-.375.055-.285 0 .027-.031.086.027.113 0 0-.031.258-.059.172 0zm.145-.059c-.086 0-.027-.027.031 0h-.031zm.348-.145l-.98.172c-.145.059-.231.031-.316.059 0 .027-.031.027-.086.027-.117 0-.086.031-.316.031-.231-.031-.434 0-.492.059-.027.027-.086.027-.145 0-.027 0-.086 0-.113.027-.086.027-.289.086-.434.027-.059-.027-.059-.027-.027-.027.258-.172.836-.086.777-.289l1.238-.23 1.5-.316-.144.375-.461.086zm.43 2.336c-.027.055-.027.055-.027.027 0-.117.117-.117.027-.027zm-.43.344c.027 0 0-.203.059-.172.086.289-.145.289-.059.172zm-.059-.75c.027 0 .027 0 .027.031s-.086.027-.027-.031zm0 .953c.059-.031.027.055 0 .055a.03.03 0 0 1 0-.055zm-.172-.289c-.086-.117-.145.144-.176.203-.141.172.176-.75.231-.461 0 .027 0 0 0-.059.031-.144.09-.172.09-.086 0 .145-.059.113-.059.258-.031.172-.059.203-.086.144zm-.086 1.008c.086-.172.086-.375.141-.461.031 0 .031-.027.031-.059.027-.113.113-.055.145-.145.027-.027.059-.027.059 0 0 0-.031.059-.09.09-.113.086.09.231-.055.199-.117-.059-.031.172-.117.203-.059.059-.027.172-.086.231-.059.086-.086.059-.027-.059zm-.031.144c.117-.027-.086.172 0 .172l.031.031c0 .055-.031.027-.09 0-.027-.059 0-.176.059-.203zm-.113.348c.086 0-.031.113-.031.027l.031-.027zm-.953 2.852l.144-.461.203-.578c.027 0 .027.117 0 .144-.031 0-.059.262-.086.231-.031.059 0 .316-.086.375s-.031.289-.059.231c-.059-.086-.059 0-.031.059.031.027-.027.144-.055.199-.031-.055-.086-.141-.031-.199zm.262-.086c.027-.117.055-.289.113-.375.144-.172-.145.66-.113.375zm.172-.895c-.027 0-.027 0-.027-.027 0-.144.055 0 .027.027zm-.375 1.699c-.027-.086.027-.316.086-.316.031.059-.059.258-.086.316zm-.086.434c-.059.059-.027.172-.086.172-.031 0-.059 0-.031-.059.059-.027.031-.145.09-.172 0 0 .027-.027.027-.059.027-.113.027.059 0 .117zm-.117-.723c.145-.547.145-.055.059.059-.027 0-.027.059 0 .086.031-.027-.027.316-.027.117 0-.145-.086-.059-.031-.262zm0 .406s.059.055 0 .055c-.027 0-.027-.027 0-.055zm-1.066 7.406c-.027.055-.027-.09 0-.059v.059zm-.055-.406c-.031-.086-.031-.113.027-.059.059.031.027.203-.027.059zm.027-.144c-.027.031 0-.258-.027-.258s-.031-.027 0-.086c.086-.145.055 0 .055.144s0 .199-.027.199zm.027-.574c0 .086-.027.086-.027.027 0-.086-.086-.199 0-.258.086.027.027.113.027.23zm.059-.434c-.027 0-.059-.086-.027-.086.027-.027.027.086.027.086zm0-.547c0-.027.031-.059.031-.059.113 0-.031.176-.031.059zm.059-.375c0-.027.059-.059.059 0 0 .031-.059.059-.059 0zm0 3.488c-.027-.176.086 0 .059.027s-.059.027-.059-.027zm.086.258c-.113-.23-.027-.23.027-.059s.031.23-.027.059zm.086-4.496s-.059-.055-.027-.055.058.055.027.055zm.059 4.813v.086l-.027-.086c-.031-.145.055-.113.027 0zm.172-5.965c0 .203-.055.203-.086.348 0 .059-.059.231-.086.231 0 0-.027 0-.027-.031s-.031-.055-.058 0c.027.031-.059 0-.059.031v.027c.059 0 .027.203-.027.262s-.031.316-.059.344-.027.059-.027.086c0 .144-.059.144-.059.402 0 .32-.117.203-.059.465.027.027-.027.285-.027.285-.031.031-.031.692-.058.723-.027.055-.027 1.238 0 1.266s.027.461.058.637c.055.055.086.43 0 .141-.406-1.555.027-3.945.402-5.734.258.176-.144 0 .059.32.086.113.113-.117.113.199zm0-.43c-.027-.09.086-.203.086-.262 0 0 .031-.027.031 0 .058-.027-.059.461-.117.262zm.144.691c-.144.574 0-.031.031-.262.055-.344.086-.144-.031.262zm.117-1.414c0 .059-.059.172-.086.231 0-.113.027-.231.086-.317v.086zm.027.664c-.059.027-.027-.117 0-.031.027 0 .027.031 0 .031zm.059-.316c-.031.055-.031-.059-.031-.031.031 0 .031.031.031.031zm-.031-.777c0-.031 0-.031.031-.031 0 .031-.031.145-.031.031zm.09-.117c-.059.086-.031-.086 0-.086s0 .059 0 .086zm.055.434c0 .055-.027.086-.055.113-.059.059.086-.316.055-.113zm-.086-.981c0 .059-.027.086-.059.086s-.027 0-.027.027c0 0 0 .031-.027.031s-.031.113 0 .113c.055 0 .027-.086.086-.086.027 0 .059-.027.086-.059.086-.113 0 .262-.027.32 0-.031-.031-.262-.059-.176 0 .031-.031.086-.059.086-.059 0 0 .117-.086.117-.059-.027-.059.258 0 .23.027 0 .027.113-.027.145-.031 0 0 .086-.058.086-.031 0-.031-.086 0-.086s.027-.031.058-.031c0-.027 0-.027-.058-.027s-.059.117 0 .203c.027.086-.059.086-.059.199 0 .145-.086.176-.086.289 0 .059-.027.086-.059.117s-.027.086 0 .086c.086 0 .059.027 0 .055-.258.117.547-2.477.605-2.707 0 .086-.027.289 0 .348.027.027.027.055-.027.086-.086.113.055.144 0 .172-.031 0-.059.059-.059.086.027.086-.059 0-.086.086-.086.117.145 0 .027.203zm.086-.059c0-.059.031-.113.059-.144s.027-.027.027.086c-.027.145-.086.203-.086.059zm.231.262c-.027.027-.172.746-.199.574.055-.258.144-.605.23-.836.055-.316.055.031-.031.262zm.289-1.066c-.027.027-.172.691-.172.516 0-.316.172-.516.199-.746 0-.059 0-.059.031-.031 0 .031-.031.145-.059.262zm.172-.637c-.113.289-.027-.055 0-.113.059-.117.031.027 0 .113zm-.027-1.238c-.145.027.027-.258.059-.434.027-.113.086-.344.113-.086 0 .176-.059.059-.086.145 0 .086 0 .086-.027.144-.031.027 0 .231-.059.231zm.113.117c.09-.203.09-.32.203-.492.027-.027.027-.027 0 .086a2.92 2.92 0 0 1-.231.578c-.027 0-.027 0 .027-.172zm.145.402l-.172.488c0 .059 0 .059 0 0 .027-.316.52-1.641.172-.488zm.144-.519c-.027 0 0-.059 0-.059.059-.027.031.031 0 .059zm.086-.203c-.086.231 0-.199.031-.141 0 0 0 .086-.031.141zm.086-.371c0-.09.059-.09.09-.203 0-.086.027-.086.027-.059 0 .086-.117.316-.117.262zm.231-.605c-.027.055-.027-.059 0-.031v.031zm-.172-.031c-.027.117-.059.144-.145.406-.055.199-.144.285-.113.172 0-.086.113-.402.144-.492.113-.172.113-.258 0-.199-.059.059-.086-.172-.117 0 0 .086-.086.145-.086.231 0 .059-.027.113-.059.144-.027.086.031.231-.086.258-.027 0-.027-.086 0-.086s.031 0 .031-.027c-.031 0 0-.145.055-.23 0-.031.23-.75.203-.492 0 .086 0 .086.086.117.059 0 .086 0 .086-.059 0-.027 0-.059.031-.059.027-.059.055-.172.086-.258.055-.117.055-.172.086-.231.059-.031 0-.086.027-.117.086-.086.059-.144.117-.316l.375-.949c.113-.031-.316.977-.316 1.035s-.09.203-.09.262-.055.027-.055.086c0 .172-.203.574-.262.805zm.23-.145c-.027-.027.117-.344.117-.23 0 0-.117.32-.117.23zm.203-.547c-.027.059-.027.176-.059.203s0-.23.031-.258.055 0 .027.055zm.402-1.066c-.059.117-.199.637-.258.578.059-.144.488-1.269.258-.578zm.117-.344c0 .144-.059-.031 0-.059.027 0 .027.027 0 .059zm.172-.52c-.086.117 0-.086.027-.113.031-.059 0 .086-.027.113zm.113-.316c-.027.113-.027-.059 0-.086.059-.031.031.059 0 .086zm.691-1.645c-.027 0-.027 0-.027-.027 0 0 .027-.027.027.027zm.262-.055c0-.031.027-.031.027-.031.032 0 0 0-.027.031zm.461.027c-.027 0-.027-.059 0-.059s.027.031 0 .059zm.289-.086c-.086.027-.117-.027-.059-.027.059-.031.086 0 .059.027zm1.035-.059c-.058 0-.027-.059 0-.027s.031.027 0 .027zm.52-.059c-.117 0 0-.027.027-.027.031.027 0 .027-.027.027zm.578-.027c-.059 0-.059-.059 0-.059.027 0 .027.059 0 .059z"/><path d="M108.064 86.19c.086.086.172.285.257.285.204.086.551.031.723-.113.317-.262.461-.633.145-1.008-.434-.406-.922-.231-1.184.285 0 .117-.027.605.059.551zm4.695 3.715c-.141.231-.172.434-.371.664-.176.23-.203.289-.145.258s.055 0 0 .086c-.058.144-.144.059-.23.23-.031.086-.059.145-.086.145-.059 0-.231.262-.289.289l-.637.664c-.027.086-.086.027-.086.086.031.027 0 .027-.027.027-.059-.027-.059-.027-.059 0 .032.059 0 .059-.058.086-.086.031-.172.176-.231.203-.027 0-.086.086 0 .059.031 0 .031 0-.027.086l-1.5 1.383c.348-.402.406-.375.953-.922.086-.059.258-.231.289-.316.027 0 .145-.117.027-.059-.894.805-2.304 2.16-3.371 2.594-.289.086-.836.317-.894-.117-.086-.285-.114-.574-.114-1.066 0-1.152.258-1.93.547-2.937.317-1.039.606-2.016 1.18-2.797l.09-.172c.172-.172-.059-.488-.262-.488-.172-.059-.605-.172-.719-.117-.519.316-.492.375-.777.981-.203.488-.637 1.039-.836 1.441-.086.172-.637 1.008-.117.863.117-.059.144-.027.117.059-.32 1.094-.637 2.738-.262 3.832.086.316.547.777.836 1.066.348.289.375.258.922.348 1.067.141 2.106-.695 2.824-1.387.403-.402 1.528-1.352 1.672-1.641 0-.027.172-.258.258-.348.059-.086.031-.086.086-.141.031 0 .059-.031.059-.059 0-.086-.172.113-.145.113-.172.203-1.207 1.152-.949.836.086-.059-.086-.059-.059-.113v-.059c-.086-.086.086 0 .086.027 0 .117.262-.113.176-.144-.059-.027-.031-.055.055-.027.144 0 .086-.027.203-.113.949-.894 0-.289.488-.75.059-.059.145-.059.031.027-.058.059-.086.117-.031.145.117-.027.348-.289.434-.434 0-.086.058-.055.058-.141 0-.058.028-.09.028-.09.172-.055.172-.285.347-.402.145-.113.086-.145.2-.258.031-.059.058-.086.058-.117.059-.027.145-.113.145-.231 0-.059.144-.289.289-.461s.258-.547-.059-.113c-.117.199-.289.402-.375.605 0 .055-.433.547-.922 1.035l-2.218 2.074c-1.04.894-.836.519-.172-.027 1.238-1.094 2.16-1.988 3.226-3.285.059-.027.949-1.211.488-.777a1.48 1.48 0 0 1 .262-.461c.258-.492-.347.113-.406.258zm-.977 2.25c.028 0 .055-.031.055-.031.031.031-.141.144-.055.031zm-.894.891c.058-.086.172-.199.23-.258.086-.059.086.027-.027.113s-.09.117-.145.145-.058.031-.058 0zm-.145.172c.028-.172.203-.141.059-.027-.031.027-.059.027-.059.027zm-.23.176c0-.059.117-.086.172-.059.031.027-.114.027-.114.059-.031.027-.085.027-.058 0zm-.289.316c0 .027-.055.086-.055.059s.055-.059.055-.059zm-.086.344c0 .059-.145.059-.059-.027.059-.027.059-.027.059.027zm-.086-.258c.117.059-.027.086-.027.027 0-.027 0-.027.027-.027zm-.344.348c.028 0 .141-.203.141-.176 0 .176-.199.203-.141.176zm-.406.285h.059c.058.031-.086.031-.059 0zm-.949.231c.027.031.429-.317.461-.317.058 0-.578.578-.461.317zm.519-.375s.028 0 .028.031-.118 0-.028-.031zm3.977-4.062c-.117.117-.145.289-.321.433-.343.258-.199.086.059-.172.086-.086.172-.289.262-.316a.03.03 0 0 1 0 .055z"/><path d="M124.345 90.194c-.059 0-.086.059-.145.23-.144.375-.113.574-.289 1.035-.055-.027-.141.09-.172.231-.027.176-.113.203-.172.348-.203.316-.605.863-.722 1.18.261-.285.636-.922.836-1.238-.286.867.46-.805.492-.98.058-.231.113-.199.144-.43-.031-.117.055-.289.028-.375zm-.606 1.699v-.027c0-.031.031-.086.059-.145-.028.059-.028.113-.059.172zm-1.555 2.16c-.316.461-.519.551-.835.922-.118.145-.204.203-.231.176s.258-.348.145-.316c-.176.055-.317.402-.493.461.118-.32.692-.809.922-1.211.203-.23.203-.406.407-.691.746-1.039 1.554-1.961 1.902-2.711 0-.027-.117.117-.176.203-.086.203-.258.316-.316.434-.317.574-1.18 1.641-1.614 2.188-.949 1.238-1.441 2.047-2.507 2.566 0 .055-.461.144-.575.113-.289-1.18.145-2.738.258-3.746l.375-2.824c.028-.402.117-.891.028-1.238-.055-.113 0-.258-.086-.344-.028-.059-.055-.144-.086-.348 0-.434-.434-1.008-.836-1.035-.028 0-.114-.031-.2-.059-.117-.086-.144-.086-.406-.086-1.211 0-2.043 1.266-2.851 2.074.027-.375.402-1.211.289-1.5-.086-.059-.032-.316-.032-.375-.027-.113-.171-.316-.316-.285-.144 0-.172 0-.172-.059 0-.086-.347-.172-.402-.117-.348.031-.375.262-.547.547l-.98 1.934c-.375.805-.665 1.496-.895 2.332-.027.059-.145.777-.027.895.027.027.086.027.113.027.117 0 .203.145.289.176s.086.086-.059.516l-1.093 3.574c.203.117.203.316.375.488.199.203.257-.027.429.176.059.113.145.113.321.113.172.031.172.031.199-.289.117-.691.637-2.246.777-2.734.117-.231.203-.637.262-.809l.402-.981 1.094-2.219c-.027-.086.059.059.059 0 .058-.055.171-.23.203-.316 0-.027.027-.059.027-.059.031-.027.203-.285.262-.285s.172-.176.172-.23c.086-.203.199-.145.375-.406.402-.375 1.468-1.582 1.957-1.582.433.805.23 2.043.175 2.824l-.261 1.785c-.028.203 0 .316.031.172.027-.113.027-.488.113-.574.028.43-.144 1.008-.23 1.352-.113.289-.086.637-.145.922-.172.461-.316 2.106.117 2.535.114.09.461.234.461.348 0 .172.2.203.317.316.027.145.433.059.519.117.375.199 1.469-.316 1.641-.637.348-.402.922-.922.953-1.066.258-.344.344-.633.602-.977.117-.145.144-.32.23-.461.289-.691-.027-.262-.43.285zm-8.386-3.746c-.086.059.031-.172.058-.199 0 .027 0 .172-.058.199zm.086-.258c0 .027-.028-.113 0-.059v.059zm.722-.145c-.031.031-.058.031-.058 0s.058-.059.058 0zm2.739-2.937c-.375.231-1.067.891-1.387 1.238-.231.059.691-.863 1.125-1.152.348-.23.836-.402.262-.086zm1.468 3.371c.028-.031.028 0 .028 0 .027.086-.086.027-.028 0zm-.058.199c.027-.23.086 0 .058.059-.031.031 0 .145-.058.172-.028 0-.028-.055 0-.23zm-.52-.055c.031-.086.059-.664.145-.605.086.144-.028.66-.145.863v-.258zm.145.891c-.059.059-.059-.145-.028-.086.028.031.028.059.028.086zm-.203-.285c0 .027 0 0 0-.031 0-.086.031 0 0 .031zm.461.949c-.055 1.18-.461 2.68-.372 3.977.086.027.317.172.055.113-.976-.316-.316-2.043-.23-2.793.031-.434.375-1.41.175-.434-.089.406-.089.895-.175 1.184-.055.199-.028.172-.028.344-.027.086 0 .176.059.23.027-.113 0-.547.027-.633.117-.348.059-.488.172-.949l.375-2.133c.117-.176-.058.922-.058 1.094zm-.575 2.938c0 .09-.058.262 0 .262.059-.059.028-.836 0-.262zm5.762-4.176c.059-.086.176-.289.145-.316.031-.059-.344.461-.145.316z"/><path d="M123.076 107.167c-.172.144-.231.23-.199.257.054.028.461-.546.199-.257zm-.66.375l-1.242 1.179-2.36 2.016c-.176.23.43-.258.43-.258l1.238-.98c.176-.145 1.934-1.758 1.125-.891-.027 0-.058.027-.086.055-.027.117-.172.144-.258.261-.117.114-.492.461-.636.547-.086.059-.145.231-.258.258-.059.031-.086.086-.059.086.348-.23 1.008-.891 1.383-1.18.031-.027 0-.117.086-.117.059-.027.231-.258.231-.285-.286.086.058-.176.144-.23.059-.032.059.027 0 .086-.113.23.578-.493.547-.493 0-.027-.027-.054-.055-.054-.058-.059-.031.172-.058.054-.028-.054.203-.257.257-.257v-.028c0-.058.118-.117.118-.176-.118-.113-.403.289-.547.407zm-.086.343c-.031 0-.031-.058 0-.058.055 0 .055.058 0 .058zm6.308-7.347c-.144 0-.085.203-.203.289-.14.086-.086.144-.172.23-.027.059-.058.086-.058.114s-.199.261-.172.289c-.172.289-.574.664-.691.953 0 .027.203-.176.203-.117.027.027.086.027.086-.028 0-.086.199-.262.23-.347 0-.028.059-.114.113-.172s.086-.118.086-.145.235-.316.203-.375c0-.027.032-.086.059-.086s.203-.23.231-.316.085-.059.058-.117.086-.114.027-.172zm1.817-6.598a2.25 2.25 0 0 0 .605-.262c.028-.055-.691.23-.605.262zm6.711-1.816c-1.352-.145-2.996.402-4.262.809-.059.027-.059-.031.027-.406.118-.602.059-.488.172-1.437.145-1.383-.113-3.172-1.207-4.008-1.355-1.008-2.449-.75-3.777.231-.113-.145-.375-.231-.547-.316-.488.027-1.383-.059-1.586.203-.836.66-1.758 2.016-2.246 2.938-.172.316-.719 1.211-.691 1.644.058.43.113.316.144.633 0 .172.113.258.113.113 0-.055.032-.086.032-.055.054 0 0 .172.027.199.059.145.258.406.461.434.059 0 .117 0 .144.027.118.144.059-.027.145-.055.719-.203 1.125-1.066 1.613-1.527.258-.32.258-.32.317-.262.117.059.172.031.289.145.547.375.863-.375 1.238-.719a6.5 6.5 0 0 0 .981-2.191c.058-.258 1.41-1.297 1.843-1.238.317-.059.348-.117.778 0 .433.086.492.172.777.836.375.633.434 2.305.348 3.023-.086.547-.375 1.672-.461 2.047.027.059-.231.258-.172.289.086.027-.09.289-.09.344-.086.23-.316.262-.574.375-2.969 1.297-5.735 2.996-8.098 5.16-.316.344-.574.461-.691.691-.028.055-.114-.058-.258.114-.52.402-2.363 2.25-2.824 2.765-.059 0-.262.231-.262.262a.35.35 0 0 1-.199.199c-.059 0-.059.032-.032.059.059.086-.285.262-.285.375-.175.289-.605.547-.781.836-.285.344-.516.836-.805 1.211-.144.113-.261.461-.375.574-.027.086-.117.117-.144.203-.059.317-.317.113-.375.375 0 .027-.028.086-.086.113-.547.868-1.094 2.075-1.442 2.883 0 .028-.027.059-.027.059-.117 0 .086-.578.402-1.27.403-.922.922-1.758 1.442-2.621.289-.375.375-.633.461-.719.144-.031.113-.175.203-.261.113-.086.258-.344.344-.461.172-.145.261-.344.117-.258-.117.086-.492.605-.606.805l-.578.777c-.89 1.328-1.64 2.711-2.218 4.238-.114.344-.258.805-.145 1.153.262.804.492 1.816 1.613 1.988.782.144 1.645-.317 2.336-.664.864-.43 1.672-1.035 2.332-1.613l1.067-.836c1.816-1.496 3.804-3.602 5.187-5.446.664-.836 1.094-1.64 1.844-2.449l.723-1.066c1.437-2.133 2.765-4.641 3.57-7.032.144-.633.691-.633 1.152-.836.145-.027.321-.113.348-.172s.027-.059.113-.027c.059.027.117.027.203-.031l1.356-.402c.144 0 .574-.172.777-.203.375-.086.289-.172.719-.199.203-.031.348-.031.348-.031.027-.172.085-.231-.262-.316zm-13.512-.863c-.031.059-.031-.086 0-.059v.059zm.172-.402c-.059.055-.059.027-.027-.09.113-.113.113 0 .027.09zm.172-.289c-.086.144-.086.144-.086.059 0-.117.23-.289.086-.059zm.144-.402c.086.027.059-.145.118-.176s.058-.199.144-.285c.027-.059.055-.09.027-.117 0-.027.059-.059.118-.027.086 0-.176.344-.176.402a2.83 2.83 0 0 1-.258.402c-.117.145 0-.172-.059-.172-.058-.027-.027.086-.086.086-.058.027 0 .086-.113.172-.031.059-.09.117-.09.144.032.059-.172.262-.199.348-.086.113-.144.43-.23.719-.032.117-.059.145-.059.086-.144-.258.258-.863.344-1.094.144-.289.519-.949.75-1.297 0-.027.203-.258.23-.203l-.113.231c-.117.117-.117.32-.23.375-.032-.027-.059 0-.059.059-.027.086-.172.289-.059.348zm.52-1.125c-.059.086-.059.027 0-.086.117-.117.058.027 0 .086zm.144.172c-.027.086-.027.086-.058 0 0-.086.086-.086.058 0zm2.594-.863c-.086.113-.144.172-.144.145 0-.059.257-.375.144-.145zm-.433.172l-1.672 1.961c-1.035 1.266.519-1.039.691-1.152.32-.406.32-.578.867-.953.66-.461.864-.633.114.144zm1.586-.519c-.059 0 0-.055.027-.055.058 0 .031.086-.027.055zm.144-.086c-.059.031-.059.031-.031 0 .031-.086.117-.059.031 0zm1.582-1.324c-.285 0-.805.145-1.094.258-.144.059-.199.059-.113 0 .344-.199.977-.375 1.352-.258h-.145zm-16.164 24.09c-.027.086-.027-.086 0-.058v.058zm.086-.23l-.055.113.028-.113c.027-.203.086-.145.027 0zm17.578-16.367c.086 0 .059.086 0 .086-.086 0-.086-.059 0-.086zm-.23.66c.086-.055 0-.172.086-.23.085-.027 0-.172.058-.199.059 0 .086-.117.059.027-.059.231-.176.547-.289.723-.028 0-.028-.09 0-.117.058-.027.027-.172.086-.203zm-.114-.172c.028-.113.086-.113.086-.027.028.113-.086.113-.086.027zm0 .086c.028 0 .055.086 0 .086-.031.031-.031.09-.031.176 0 .258-.144.027-.144.316-.028-.031-.086.145-.086.199.058.09-.059-.086-.086 0 .027.031.144.117 0 .117-.145.027.086-.289.086-.348 0-.027.171-.371.171-.43 0-.086.032-.117.09-.117zm-.922 1.875c.055-.086.258-.605.344-.664.028-.059.059-.344.172-.258.031 0 .031.027 0 .055-.055.059-.055.117-.086.262-.058 0-.23.316-.23.402 0 .059-.2.402-.2.203zm-2.019-.953c.059-.055.086-.086.086-.027 0 .027-.199.172-.086.027zm-1.125.691c.09-.027 0 .059-.027.031s0-.031.027-.031zm-3.141 2.133c.059-.059.117-.059.09 0s-.23.145-.09 0zm-2.562 2.16c.027 0 .027.059 0 .059-.059 0-.059-.059 0-.059zm-1.27 1.211c.117-.027.032.059-.027.031 0-.031 0-.031.027-.031zm-.488.547c.027.031-.059.117-.059.058 0-.027.059-.085.059-.058zm-3.977 4.844l.059-.086c0 .054-.059.199-.117.23-.059 0-.028-.058.058-.144zm-.894 1.672c.058-.032.031.085 0 .054-.027 0-.027-.027 0-.054zm-.461 1.007c0-.086.059-.117.059-.058 0 .027-.118.144-.059.058zm-.086.172c.059-.113.059.059.027.117-.054.086-.054-.058-.027-.117zm1.355 3.141c-.031 0-.031-.028-.031-.028 0-.031.145.028.031.028zm.375-.113c-.058.054-.175.027-.261.054-.028.031-.028 0 .031-.027.027-.059.375-.117.23-.027zm.231-.09s-.203.09-.086 0c.086-.086.172-.028.086 0zm1.035-.461c-.027 0-.055.031-.055.058 0 .059-.261.086-.261.118-.059.027-.344.144-.403.199-.172.086-.23-.028-.086-.055.055 0 .145-.09.086-.117-.031 0-.031 0 0 0s.059 0 .086.027c0 .031.317-.113.375-.199.059-.117.375-.117.258-.031zm2.508-1.699c-.027.058-.145-.028-.145.058 0 .059-.171.113-.058.113.09.059 0 .145-.141.145-.09 0-.058.059-.144.059-.032 0-.032.027-.059.058-.059.086-.086.059-.203.145-.113.113-.231.054-.289.199 0 0 .09.031 0 .031-.027-.031-.055 0-.055.027-.031.059-.289.348-.347.231s-.172.23-.258.203c-.059 0-.203.086-.203.145 0 .027-.344.199-.403.171 0 0-.027 0-.058.028s-.114.058-.114 0c.028-.055.114-.028.231-.145.113-.14.144-.113.258-.172 0-.058.375-.23.461-.316.027-.086.086-.059.144-.117.027-.028.059-.055.086-.055.059.027.231-.144.258-.144.058 0 .348-.317.406-.317s.145-.031.145-.058c0-.059.343-.317.375-.317s.027 0 0-.031c0-.086.199-.027.113.059zm-2.363 1.414c.031-.032.086-.032.086 0 0 0-.114.054-.086 0zm2.851-1.961c0 .027 0 .058-.027.058-.059 0 0 .231-.027.199-.059-.085-.086.145-.176.118-.086-.059-.231.203-.231.058 0-.058.176-.144.145-.23 0-.059.086-.176.117-.145s.23-.144.199-.058zm.031.203c-.031.027-.031-.031 0-.031.059 0 .028.031 0 .031zm.317-.375c-.059.058 0 .144-.027.199-.118.145-.09-.086-.145-.141-.059-.089.145-.23.199-.144.031 0 .031.027-.027.086zm.203-.031c-.09.031-.117.031-.117 0 .058-.086.23-.055.117 0zm.086-.172c-.117.031.055-.172.055-.059 0 .059-.028.059-.055.059zm.055-.145c-.055 0-.055 0 0-.027s.058.027 0 .027zm.117-.086c-.028 0-.059-.058 0-.058.027 0 .027.058 0 .058zm.203-.203c-.059.031-.09.031-.059.059.059.031.059.172-.058.058-.203-.203.402-.23.117-.117zm.144-.23c-.058-.086.114-.028.114 0 0 .058-.086.031-.114 0zm.114.117c-.059 0-.059-.059 0-.059.027 0 .027.059 0 .059zm1.152-1.067c-.086.172-.203.172-.289.289-.027.059-.113 0-.113.028.027.144-.117.086-.117.172l-.055.058c-.059 0-.375.262-.375.317 0 0 0 .031-.031.031-.086 0 .031.086 0 .086-.086.086-.114-.031-.086-.145 0-.058 0-.086-.028-.117-.058-.027.114.031.145-.055.086-.058.144-.031.199-.117.031-.086.117-.027.145-.144.031-.086.203-.145.23-.258 0-.117.172-.145.231-.203.085-.086.171-.086.261-.086l-.117.144zm-1.008.606c.059-.027.059.027 0 .027-.027 0-.027 0 0-.027zm.059-.086c0-.031.055-.031.055-.031.031.031-.055.09-.055.031zm1.265-.863c-.113.086-.23.113-.257.054-.059-.054.547-.402.257-.054zm.145-.203v-.059c.059-.027.059.144 0 .059zm.117-.086c-.058 0-.058-.086 0-.086s.055.086 0 .086zm.055-.118c-.086.032.031-.086.031-.027 0 .027-.031.027-.031.027zm.781-.718c-.117.172-.09-.203.027-.172.028 0 .028.113-.027.172zm.141-.231l-.028.059c-.027-.031-.171-.145-.058-.176.086-.027.086 0 .086.117zm2.133-2.738c-.055 0-.055-.086 0-.086.031 0 .031.059 0 .086zm.086.086c-.055.031-.055-.059-.028-.059 0 0 .059.059.028.059zm.433-.43c0 .027-.058.055-.058 0-.028-.031.085-.031.058 0zm.086-.433c-.027.085-.086.113-.086.027 0-.059.203-.258.086-.027zm3.258-4.668c-.031 0-.059-.031-.059-.059.059-.059.145.059.059.059zm.058-.145c-.089 0-.031-.059 0-.027s.028.027 0 .027zm1.18-2.621c0 .055-.117.145-.086.055 0-.027 0-.055-.031-.055-.055-.031.031.316-.027.258-.114 0-.258.52-.317.547-.027.117-.027.23-.117.375-.113.145-.086.172-.172.289-.086.027 0 .203-.058.258-.028 0-.141.316-.172.316-.028-.027-.145.176-.172.145-.028 0-.028.031-.059.086 0 .059-.027.09-.027.09-.031.086-.059.402-.145.402-.031 0-.117.144-.117.23 0 .059 0 .059-.027.027-.145-.113 0 .117-.086.059-.059 0-.059 0-.059.059.059.086-.086.027-.058.144 0 .027 0 .113-.055.145-.09.172-.117.371-.289.488-.117 0-.145.547-.262.547-.054 0-.027.086-.086.086 0 0-.027.031-.027.058 0 .059-.258.403-.258.489 0 .058-.058.086-.058.031-.032 0-.231.258-.262.23-.055.028-.055.059-.055.145s-.031.172-.058.199c-.086.176-.118.262-.317.434-.176.144-.176.343-.289.519-.086.172-.172.055-.23.113 0 .059-.258.231-.204.317.032.086-.085.086-.054.144 0 .032-.145-.027-.145.032-.058.054.028-.176.055-.176.059-.086.031-.086-.055-.027-.058.027-.347.375-.347.402-.059.144-.43.547-.317.519.028-.027.059-.086.117-.086.055.059.43-.316.258-.058-.058.031-.058.058-.027.086.086.058-.059.058-.059 0 0-.028-.144.058-.144.086 0 .09-.059.031-.059.117s-.144-.117-.144-.117c-.231.144-.145.203-.403.461-.258.289-.258.406-.461.636-.375.375-.547.778-.863.95-.086.031-.262.261-.348.289-.172.113.289-.028.348-.145.086-.172.285-.058.344-.172.031-.086-.028 0-.059-.058.031-.059.117-.059.117-.145.059-.113.231-.172.289-.316.055-.086.114-.117.145-.117.055 0 .027-.141.086-.141.027 0 .055-.031.055-.059 0-.086.089-.031.089-.117s.231-.375.286-.316.031.261-.028.261c-.027 0-.058.028-.027.055 0 .031 0 .031-.059.059-.086 0-.058.058-.117.058-.027 0-.055.028-.027.028 0 .031-.028.058-.086.086-.117.058-.059.175-.145.203-.058.027-.027.086-.144.144-.059.059-.114.114-.086.114 0 .058-.317.461-.403.519-.058.031-.031.117-.117.145 0 .027-.027.058-.027.058 0 .086-.145.114-.145.199-.027.176-.289.118-.203-.027.117-.433-.461.231-.515.258-.145.09.027.09-.032.117-.027 0-.086.059-.144.113-.055.118-.231.176-.172.289.059.086.086.086.117.032 0 0 0-.032-.031-.032-.086 0 .031-.113.086-.113s.031-.086.086-.031c.031.059.23-.113.23 0 0 .059-.113 0-.113.059.027.027-.172.117-.086.144.027.027.027.027 0 .027-.086 0-.059.086-.117.086-.113-.027-.027.118-.145.118-.086 0-.027.085-.086.085s-.058-.058-.027-.085c.086-.028.113-.231.059-.231s-.118.086-.09.113c0 0 0 .032-.028.032s-.027.027-.027.058c0 .055-.203.258-.262.258s-.027.086-.086.086c-.144-.027.086-.145-.058-.172l-2.59 2.391c-.492.492-1.184.922-1.758 1.324-.867.578-2.105 1.617-3.258 1.617.231-.031.547-.176.719-.289.09 0 .578-.23.637-.316 0-.059.027-.059.055-.059.117.059.406-.203.55-.262.086 0 .286-.172.286-.199s0-.031.058-.031c.031.031.086 0 .145-.055.519-.375.578-.492-.059-.144-.805.429-1.266.804-2.133 1.035-.258.117-.922.203-1.121.09-.058-.059-.058-.059.172-.059.348.027.922-.059.922-.145-.231-.171-1.27.29-1.238-.23 0-.086 0-.172-.032-.203-.113-.258-.027-.692.09-1.035.43-2.25 2.477-5.332 4.117-7.235.059-.144.493-.316.348-.461.086 0 .113.059.231-.113s.203-.262.605-.664c.375-.348.203-.203.145-.316 0-.032.027-.059.058-.032.172.059.547-.171.547-.316-.059-.055.574-.633.574-.691 0-.086.145-.028.172-.172.031-.086.492-.348.578-.547-.027-.086.059 0 .059-.059.344 0 1.008-.777 1.238-.949l2.449-1.902c.231-.172.317-.23.317-.289-.028 0 0 0 .031 0 .113 0 .258-.113.23-.203 0-.027 0-.027.055-.027.031.059.52-.172.375-.203-.058-.055-.058-.055 0-.027.086.027.145-.027.059-.059-.028-.027-.028-.027.027-.055s.117-.09.176-.117c.371-.348.086.117.344-.086.058-.027.117-.059.144-.059.059 0 .086.059.027.086-.605.434.895-.402 1.012-.547-.031 0-.144.059-.551.258-.113.09-.171.09-.257.09-.231-.059-.059-.059-.086-.117-.032-.086.058-.059.086-.086.113-.027-.059.289.23.027.172-.199.316-.145.434-.316 0-.027.343-.059.285.031-.028.055 0 .055.09-.059.113-.117.316-.086.316-.262 0-.055.172-.086.172-.172.027-.059.059-.059.113-.059.031-.027.059 0 .031.059-.031.117.028.144.145.031.172-.117.258-.117.344-.32.031-.055.144-.027.23-.086.031-.027.203 0 .203-.086 0-.059.086-.086.172-.059.059 0 .059 0 .059-.055-.028-.059-.028-.086 0-.086 0 .027.289 0 .23-.031s-.058-.027.059-.059c.086 0 .144-.086.23-.086s.172-.113.231-.086c.113 0-.086.172-.059.203-.23.805-.75 1.758-1.125 2.563 0 .031.031.031.059.031.144-.031-.117.285-.117.344-.231.492-.805 1.414-1.094 1.988-.172.348-.317.492-.488.809-.059.144-.172.23-.145.375.027.055.145.027.145-.059-.032-.058.113-.058.113-.117 0-.027.031-.027.058-.027.059.027.118-.028.086-.086 0-.059 0-.059.059-.031.027.058.059.058.086 0 .027-.028 0-.086.059-.114 0 0 .027 0 .027-.027 0-.09.316-.375.203-.406-.059 0-.031-.086.027-.086s.059-.113.145-.145.058-.344.117-.402c.027-.027.055-.059.055-.086.144-.231.578-.777.519-.836-.027-.027.086-.172.086-.23.031-.027.145-.086.117-.145 0-.059.2-.23.172-.289 0-.027.289-.43.289-.461-.031-.113.086-.055.086-.145 0-.141.317-.602.344-.719-.027-.117.09-.059.059-.117s.144-.258.144-.316c.059-.113.258-.746.348-.633.027.027.027.059.027.117-.058.113-.086.285-.027.258.027 0 .027.027.027.059zm-4.609 7.578c0 .086-.031.059-.086.086-.145.027.086-.23.086-.086zm1.758-2.969c-.032.059-.059.059-.059 0s.086-.058.059 0zm3.312-5.761l-.402 1.008c-.032.113-.117 0-.032-.059.059-.059.059-.316.118-.402s.027-.172.086-.231c.058-.086 0-.144.086-.23.058-.117.058-.117.027-.117-.055 0-.055-.027-.027-.055.058-.031.027-.145.117-.176.027 0 .054-.027.054-.055 0-.059.086-.144.118-.117l-.145.434zm.113-1.844c-.054.027-.172.461-.23.344-.027-.059.144-.434.176-.574 0-.09.113-.231.086 0-.032.172.058.141-.032.23zm.176.777c-.23.145-.031-.203.055-.203.031 0 0 .144-.055.203zm.145-.434c-.059.117-.176.059-.09-.059.058-.055.031-.547.117-.488.059.027.027.488-.027.547zm.054-1.269c-.027.144.032.117-.054.234-.059.055-.032.172-.059.23-.059 0-.059.199-.086.086-.031-.086-.23 0-.086-.145.086-.086.258-.605.285-.953.032-.258.032-.285.059-.23.027.117 0 .434-.059.777zm.75 1.527c-.086 0-.027-.055.032-.027.027 0 0 .027-.032.027zm.348-.113c-.461.203-.145-.086.086-.086.086 0 .059.027-.086.086zm.633-.348l-1.5.461s.203-.113.117-.113c-.203-.027.375-.258.75-.375 1.383-.402 2.824-.633 3.457-.402-.75-.172-2.047.23-2.824.43zm-13.313 7.636c.231-.258-.144-.027-.172.059 0 .058.055.027.172-.059zm-2.422 2.481c0-.032.059-.032.059-.059 0-.059-.258.231-.258.289-.031.113.231-.203.199-.23zm-.89 1.152c.258-.23 1.008-1.328.285-.492-.172.262-.547.578-.66.867.086.055.258-.289.375-.375z"/></g></svg>